<svg width="82" height="82" viewBox="0 0 82 82" fill="none" xmlns="http://www.w3.org/2000/svg">
<path d="M20.5 35.875H23.0625V38.4375H20.5V35.875Z" fill="#003B5A"/>
<path d="M20.5 48.6875C20.5 49.0273 20.635 49.3532 20.8753 49.5935C21.1155 49.8338 21.4414 49.9688 21.7812 49.9688H47.4062V47.4062H21.7812C21.4414 47.4062 21.1155 47.5412 20.8753 47.7815C20.635 48.0218 20.5 48.3477 20.5 48.6875Z" fill="#003B5A"/>
<path d="M15.375 16.6562C16.0826 16.6562 16.6562 16.0826 16.6562 15.375C16.6562 14.6674 16.0826 14.0938 15.375 14.0938C14.6674 14.0938 14.0938 14.6674 14.0938 15.375C14.0938 16.0826 14.6674 16.6562 15.375 16.6562Z" fill="#003B5A"/>
<path d="M37.1562 34.5938C37.8639 34.5938 38.4375 34.0201 38.4375 33.3125C38.4375 32.6049 37.8639 32.0312 37.1562 32.0312C36.4486 32.0312 35.875 32.6049 35.875 33.3125C35.875 34.0201 36.4486 34.5938 37.1562 34.5938Z" fill="#003B5A"/>
<path d="M39.7188 19.2188V8.96875H8.96875V28.1875H23.0625V24.3438C23.0625 22.9845 23.6025 21.681 24.5636 20.7198C25.5247 19.7587 26.8283 19.2188 28.1875 19.2188H39.7188ZM15.375 19.2188C14.6148 19.2188 13.8716 18.9933 13.2395 18.571C12.6074 18.1486 12.1148 17.5483 11.8238 16.8459C11.5329 16.1436 11.4568 15.3707 11.6051 14.6251C11.7534 13.8795 12.1195 13.1946 12.6571 12.6571C13.1946 12.1195 13.8795 11.7534 14.6251 11.6051C15.3707 11.4568 16.1436 11.5329 16.8459 11.8238C17.5483 12.1148 18.1486 12.6074 18.571 13.2395C18.9933 13.8716 19.2188 14.6148 19.2188 15.375C19.2188 16.3944 18.8138 17.3721 18.0929 18.0929C17.3721 18.8138 16.3944 19.2188 15.375 19.2188ZM21.7812 15.375V12.8125H34.5938V15.375H21.7812Z" fill="#003B5A"/>
<path d="M51.25 26.9062H30.75V44.8438H47.4062V42.2812C47.4105 41.1483 47.79 40.0488 48.4854 39.1544C49.1809 38.2601 50.1531 37.6214 51.25 37.3382V26.9062ZM37.1562 37.1562C36.396 37.1562 35.6529 36.9308 35.0208 36.5085C34.3887 36.0861 33.896 35.4858 33.6051 34.7834C33.3142 34.0811 33.238 33.3082 33.3864 32.5626C33.5347 31.817 33.9007 31.1321 34.4383 30.5946C34.9759 30.057 35.6608 29.6909 36.4064 29.5426C37.152 29.3943 37.9248 29.4704 38.6272 29.7613C39.3295 30.0523 39.9299 30.5449 40.3522 31.177C40.7746 31.8091 41 32.5523 41 33.3125C41 34.3319 40.595 35.3096 39.8742 36.0304C39.1533 36.7513 38.1757 37.1562 37.1562 37.1562ZM48.6875 33.3125H43.5625V30.75H48.6875V33.3125Z" fill="#003B5A"/>
<path d="M23.0625 30.75H7.6875C7.34769 30.75 7.0218 30.615 6.78152 30.3747C6.54124 30.1345 6.40625 29.8086 6.40625 29.4688V7.6875C6.40625 7.34769 6.54124 7.0218 6.78152 6.78152C7.0218 6.54124 7.34769 6.40625 7.6875 6.40625H41C41.3398 6.40625 41.6657 6.54124 41.906 6.78152C42.1463 7.0218 42.2812 7.34769 42.2812 7.6875V19.2188H44.8438V6.40625C44.8438 5.72663 44.5738 5.07485 44.0932 4.59429C43.6127 4.11373 42.9609 3.84375 42.2812 3.84375H6.40625C5.72663 3.84375 5.07485 4.11373 4.59429 4.59429C4.11373 5.07485 3.84375 5.72663 3.84375 6.40625V30.75C3.84375 31.4296 4.11373 32.0814 4.59429 32.562C5.07485 33.0425 5.72663 33.3125 6.40625 33.3125H23.0625V30.75Z" fill="#003B5A"/>
<path d="M70.4688 42.2812C70.4688 41.6016 70.1988 40.9499 69.7182 40.4693C69.2377 39.9887 68.5859 39.7188 67.9062 39.7188H52.5312C51.8516 39.7188 51.1998 39.9887 50.7193 40.4693C50.2387 40.9499 49.9688 41.6016 49.9688 42.2812V62.7812C49.9688 63.4609 50.2387 64.1127 50.7193 64.5932C51.1998 65.0738 51.8516 65.3438 52.5312 65.3438H65.3438V61.5C65.3438 60.1408 65.8837 58.8372 66.8448 57.8761C67.806 56.915 69.1095 56.375 70.4688 56.375V42.2812ZM56.375 49.9688C55.6148 49.9688 54.8716 49.7433 54.2395 49.321C53.6074 48.8986 53.1148 48.2983 52.8238 47.5959C52.5329 46.8936 52.4568 46.1207 52.6051 45.3751C52.7534 44.6295 53.1195 43.9446 53.6571 43.4071C54.1946 42.8695 54.8795 42.5034 55.6251 42.3551C56.3707 42.2068 57.1436 42.2829 57.8459 42.5738C58.5483 42.8648 59.1486 43.3574 59.571 43.9895C59.9933 44.6216 60.2188 45.3648 60.2188 46.125C60.2188 47.1444 59.8138 48.1221 59.0929 48.8429C58.3721 49.5638 57.3944 49.9688 56.375 49.9688ZM67.9062 46.125H62.7812V43.5625H67.9062V46.125Z" fill="#003B5A"/>
<path d="M75.5938 58.9375H70.4688C69.7891 58.9375 69.1373 59.2075 68.6568 59.688C68.1762 60.1686 67.9062 60.8204 67.9062 61.5V75.5938C67.9062 76.2734 68.1762 76.9252 68.6568 77.4057C69.1373 77.8863 69.7891 78.1562 70.4688 78.1562H75.5938C76.2734 78.1562 76.9252 77.8863 77.4057 77.4057C77.8863 76.9252 78.1562 76.2734 78.1562 75.5938V61.5C78.1562 60.8204 77.8863 60.1686 77.4057 59.688C76.9252 59.2075 76.2734 58.9375 75.5938 58.9375ZM75.5938 69.1875H70.4688V66.625H75.5938V69.1875ZM75.5938 64.0625H70.4688V61.5H75.5938V64.0625Z" fill="#003B5A"/>
<path d="M25.625 24.3438V44.8438H28.1875V25.625C28.1875 25.2852 28.3225 24.9593 28.5628 24.719C28.803 24.4787 29.1289 24.3438 29.4688 24.3438H52.5312C52.8711 24.3438 53.197 24.4787 53.4372 24.719C53.6775 24.9593 53.8125 25.2852 53.8125 25.625V37.1562H56.375V24.3438C56.375 23.6641 56.105 23.0124 55.6245 22.5318C55.1439 22.0512 54.4921 21.7812 53.8125 21.7812H28.1875C27.5079 21.7812 26.8561 22.0512 26.3755 22.5318C25.895 23.0124 25.625 23.6641 25.625 24.3438Z" fill="#003B5A"/>
<path d="M56.375 47.4062C57.0826 47.4062 57.6562 46.8326 57.6562 46.125C57.6562 45.4174 57.0826 44.8438 56.375 44.8438C55.6674 44.8438 55.0938 45.4174 55.0938 46.125C55.0938 46.8326 55.6674 47.4062 56.375 47.4062Z" fill="#003B5A"/>
</svg>
