<svg width="102" height="104" viewBox="0 0 102 104" fill="none" xmlns="http://www.w3.org/2000/svg">
<g clip-path="url(#clip0_574_104)">
<path d="M70.1206 0.5C64.6828 0.87981 58.3269 4.39466 54.6231 8.9717C51.2443 13.1239 48.4649 19.291 49.5486 25.2842C55.4901 25.4709 61.6292 21.8724 65.1864 17.2181C68.5141 12.8857 71.0322 6.75721 70.1206 0.5Z" fill="#003B5A"/>
<path d="M91.6106 35.0564C86.3895 28.4451 79.0519 24.6084 72.1223 24.6084C62.9743 24.6084 59.1047 29.0309 52.7488 29.0309C46.1954 29.0309 41.2165 24.6213 33.3052 24.6213C25.5341 24.6213 17.2594 29.4172 12.0128 37.6185C4.63699 49.1673 5.89923 70.8809 17.8523 89.3757C22.1299 95.9934 27.8419 103.435 35.3133 103.499C41.9624 103.564 43.8366 99.1928 52.8445 99.1478C61.8523 99.0963 63.5608 103.557 70.1971 103.487C77.6749 103.429 83.6993 95.1823 87.9769 88.5646C91.0432 83.8202 92.1843 81.4319 94.5622 76.0759C77.2669 69.426 74.4938 44.5903 91.6106 35.0564Z" fill="#003B5A"/>
</g>
<defs>
<clipPath id="clip0_574_104">
<rect width="102" height="103" fill="white" transform="translate(0 0.5)"/>
</clipPath>
</defs>
</svg>
