<svg width="153" height="152" viewBox="0 0 153 152" fill="none" xmlns="http://www.w3.org/2000/svg">
<g clip-path="url(#clip0_574_126)">
<path d="M151.783 68.3744V60.4092H122.295C116.139 60.4092 113.365 64.1842 112.909 67.8459V67.9592V60.4092H104.245V68.3744H112.871H151.783ZM112.871 71.2434L104.207 70.7527V79.9259C104.207 82.7949 102.763 83.6632 97.7466 83.6632H90.8306C86.6886 83.6632 84.9406 82.4929 84.9406 79.9259V69.8844L76.1626 69.2427V80.6432H75.9726C75.4786 77.3212 74.2246 73.4707 65.8646 72.9044L38.3906 71.0924C38.3906 75.2827 41.3926 77.7742 46.1046 78.2649L65.2566 80.1902C66.7766 80.3034 67.8786 80.7564 67.8786 82.0022C67.8786 83.3612 66.7386 83.5122 64.9906 83.5122H38.0486V71.0924L29.2706 70.5262V91.5907H65.0286C73.0086 91.5907 75.5546 87.4759 75.9346 84.0407H76.1246C77.1126 89.4767 81.9006 91.5907 89.9946 91.5907H98.9246C108.387 91.5907 112.871 88.7217 112.871 82.0022V71.2434ZM140.725 72.8667L113.251 71.2434C113.251 75.4337 116.025 78.2272 120.737 78.6047L140.307 80.1147C141.827 80.2279 142.739 80.6054 142.739 81.8512C142.739 83.0214 141.675 83.4744 139.471 83.4744H112.795V91.5907H140.041C148.629 91.5907 152.391 88.6084 152.391 81.8134C152.391 75.6979 149.009 73.3952 140.725 72.8667ZM76.1626 60.4092H84.9406V68.3744H76.1626V60.4092ZM24.4446 70.1487L14.9066 69.2049L0.390625 91.5907H11.0686L24.4446 70.1487ZM74.5666 60.4092H47.7766C41.5446 60.4092 38.8086 64.2597 38.1626 67.9592V60.4092H23.3046C21.2146 60.4092 20.2266 61.0509 19.2386 62.4854L15.1346 68.3744H74.5666V60.4092Z" fill="#003B5A"/>
</g>
<defs>
<clipPath id="clip0_574_126">
<rect width="152" height="151" fill="white" transform="translate(0.390625 0.5)"/>
</clipPath>
</defs>
</svg>
