<svg width="90" height="90" viewBox="0 0 90 90" fill="none" xmlns="http://www.w3.org/2000/svg">
<path d="M86.39 31.0878C86.39 47.4541 73.0749 60.7692 56.7084 60.7692C50.838 60.7692 45.1039 59.0191 40.256 55.7916L40.5074 56.6722C40.7204 57.4191 40.2878 58.1973 39.5409 58.4104C39.4121 58.4471 39.2822 58.4647 39.1544 58.4647C38.5421 58.4647 37.9791 58.0618 37.8028 57.4439L36.3716 52.4276C36.2529 52.0119 36.3322 51.5647 36.5864 51.2151C36.8406 50.8653 37.2415 50.6519 37.6734 50.6364L42.8866 50.4492C43.6609 50.419 44.3146 51.0279 44.3424 51.8041C44.3703 52.5804 43.7637 53.2322 42.9875 53.26L41.6076 53.3095C46.0392 56.3207 51.3097 57.9568 56.7084 57.9568C71.5242 57.9568 83.5775 45.9035 83.5775 31.088C83.5775 26.3347 82.3201 21.6642 79.9413 17.5816C79.5501 16.9107 79.7773 16.0497 80.4484 15.6588C81.1193 15.2678 81.9803 15.4946 82.3713 16.1659C85.0004 20.6775 86.39 25.8376 86.39 31.0878ZM32.448 47.0203C32.6943 47.0203 32.9437 46.9556 33.1701 46.8197C33.8361 46.4201 34.052 45.5562 33.6524 44.8903C31.1581 40.7331 29.8396 35.9603 29.8396 31.0878C29.8396 16.2721 41.8929 4.21875 56.7084 4.21875C62.1211 4.21875 67.3806 5.85246 71.8128 8.86588L70.4294 8.91563C69.6531 8.94357 69.0467 9.59537 69.0745 10.3714C69.1017 11.1305 69.7256 11.7272 70.4788 11.7272C70.4958 11.7272 70.5131 11.7271 70.5301 11.7264L75.7433 11.5392C76.1753 11.5237 76.5761 11.3103 76.8303 10.9605C77.0845 10.6109 77.1636 10.1637 77.0451 9.74795L75.6139 4.73168C75.4008 3.98479 74.6225 3.55166 73.8758 3.76523C73.1289 3.97828 72.6963 4.75646 72.9093 5.50336L73.1607 6.3842C68.3137 3.15492 62.5929 1.40625 56.7084 1.40625C40.3421 1.40625 27.0271 14.7213 27.0271 31.0878C27.0271 36.4699 28.4843 41.7431 31.2409 46.3373C31.5046 46.7768 31.9702 47.0203 32.448 47.0203ZM76.4109 36.5606C75.967 38.1614 75.3296 39.6988 74.5093 41.1474L75.8164 44.0907C76.0525 44.6222 75.937 45.2445 75.5255 45.6558L71.2765 49.9048C70.8652 50.3162 70.2431 50.4318 69.7113 50.1957L66.7693 48.889C65.3208 49.7095 63.7829 50.3471 62.1809 50.7911L61.0253 53.7935C60.8164 54.3364 60.2947 54.6945 59.7129 54.6945H53.704C53.1221 54.6945 52.6006 54.3363 52.3916 53.7935L51.2357 50.7902C49.6346 50.3464 48.0973 49.709 46.6488 48.8886L43.7057 50.1959C43.1742 50.432 42.5521 50.3165 42.1406 49.905L37.8914 45.656C37.4801 45.2447 37.3644 44.6226 37.6007 44.0909L38.9074 41.149C38.0869 39.7005 37.4495 38.1626 37.0053 36.5604L34.0029 35.4048C33.46 35.196 33.1019 34.6743 33.1019 34.0924V28.0835C33.1019 27.5017 33.4601 26.9801 34.0029 26.7711L37.0058 25.6152C37.4497 24.014 38.0872 22.4764 38.9078 21.0278L37.6007 18.0853C37.3644 17.5535 37.4801 16.9314 37.8914 16.5201L42.1404 12.2709C42.5517 11.8596 43.1738 11.7441 43.7055 11.98L46.6488 13.2873C48.0973 12.4669 49.6346 11.8296 51.2357 11.3857L52.3918 8.38248C52.6008 7.83967 53.1225 7.48143 53.7042 7.48143H59.7131C60.2949 7.48143 60.8164 7.83967 61.0254 8.38248L62.1816 11.3857C63.7824 11.8296 65.3198 12.4669 66.7682 13.2873L69.7115 11.98C70.2429 11.7441 70.8653 11.8596 71.2766 12.2709L75.5256 16.5199C75.937 16.9313 76.0526 17.5533 75.8164 18.0851L74.5096 21.027C75.3302 22.4756 75.9677 24.0135 76.4119 25.6154L79.4143 26.7711C79.9571 26.98 80.3153 27.5017 80.3153 28.0835V34.0924C80.3153 34.6743 79.9571 35.1958 79.4143 35.4048L76.4109 36.5606ZM74.725 34.196L77.5026 33.1267V29.0487L74.7257 27.9798C74.2931 27.8133 73.9701 27.444 73.8627 26.993C73.4307 25.177 72.714 23.4483 71.7328 21.8554C71.4897 21.4604 71.4568 20.9711 71.6451 20.5471L72.8538 17.8256L69.9702 14.9421L67.2476 16.1513C66.8239 16.3392 66.3344 16.3067 65.9396 16.0634C64.3463 15.0824 62.6182 14.3659 60.8034 13.934C60.3524 13.8266 59.9831 13.5039 59.8166 13.0711L58.7473 10.2932H54.6697L53.6004 13.0711C53.4338 13.5037 53.0648 13.8266 52.6136 13.934C50.7988 14.3659 49.0707 15.0824 47.4775 16.0634C47.0825 16.3065 46.5933 16.3392 46.1695 16.1513L43.4468 14.9421L40.5633 17.8256L41.7723 20.5479C41.9606 20.9719 41.9277 21.4613 41.6846 21.8561C40.7034 23.4494 39.9869 25.1777 39.555 26.9928C39.4476 27.4438 39.1249 27.8132 38.6921 27.9796L35.9146 29.0489V33.1269L38.6916 34.1958C39.1243 34.3622 39.4471 34.7314 39.5545 35.1826C39.9867 36.999 40.7032 38.7276 41.6842 40.3204C41.9275 40.7153 41.9604 41.2047 41.7721 41.6287L40.5634 44.3501L43.447 47.2337L46.1698 46.0245C46.5934 45.8362 47.0828 45.8691 47.478 46.1123C49.0711 47.0934 50.7992 47.8099 52.6141 48.2418C53.0652 48.3492 53.4345 48.6719 53.601 49.1047L54.6702 51.8825H58.748L59.8169 49.1055C59.9834 48.6728 60.3527 48.35 60.8038 48.2426C62.6198 47.8106 64.3482 47.0939 65.9412 46.1129C66.336 45.8694 66.8253 45.8369 67.2493 46.025L69.971 47.2337L72.8545 44.3501L71.6453 41.6275C71.457 41.2037 71.4899 40.7143 71.733 40.3195C72.7142 38.726 73.4307 36.9979 73.8624 35.1831C73.9694 34.7316 74.2922 34.3624 74.725 34.196ZM72.7945 31.0878C72.7945 39.9575 65.5784 47.1737 56.7084 47.1737C47.8385 47.1737 40.6225 39.9575 40.6225 31.0878C40.6225 22.218 47.8387 15.0017 56.7084 15.0017C65.5782 15.0017 72.7945 22.218 72.7945 31.0878ZM69.982 31.0878C69.982 23.7688 64.0274 17.8142 56.7084 17.8142C49.3894 17.8142 43.435 23.7688 43.435 31.0878C43.435 38.4068 49.3894 44.3612 56.7084 44.3612C64.0274 44.3612 69.982 38.4068 69.982 31.0878ZM45.8959 70.4723C45.8959 72.325 44.7789 73.9216 43.1829 74.6244C43.5138 75.2535 43.701 75.969 43.701 76.7276C43.701 78.4775 42.7043 79.9991 41.249 80.7548C41.6224 81.4134 41.8354 82.1739 41.8354 82.9833C41.8354 84.191 41.3629 85.3284 40.5047 86.1866C39.6468 87.0446 38.5091 87.5171 37.3018 87.5171C37.3017 87.5171 37.3017 87.5171 37.3013 87.5171H32.2525H32.2523C32.2522 87.5171 32.2522 87.5171 32.252 87.5171C31.9043 87.5171 31.5629 87.4767 31.2318 87.4004L30.5144 87.5245C27.2155 88.0965 24.3896 88.5865 21.8352 88.5865C18.5122 88.5865 15.6484 87.756 12.7985 85.1996H5.01627C4.23966 85.1996 3.61002 84.5699 3.61002 83.7933V62.174C3.61002 61.3974 4.23966 60.7678 5.01627 60.7678H12.8848C13.3703 60.4116 13.8668 60.0609 14.3508 59.7199C17.6064 57.4247 20.6814 55.257 20.6814 51.3649V44.8017C20.6814 44.0251 21.311 43.3955 22.0876 43.3955C27.2035 43.3955 31.3659 47.5571 31.3659 52.6725V57.7637C31.3659 57.828 31.3615 57.8922 31.3527 57.9558C31.2759 58.5123 31.0792 59.2028 30.741 59.9419C31.2205 59.7719 31.7299 59.683 32.2525 59.683H40.0445C42.5445 59.683 44.5783 61.7168 44.5783 64.2168C44.5783 65.125 44.3097 65.9719 43.8479 66.6821C45.0805 67.4935 45.8958 68.8895 45.8959 70.4723ZM31.0379 63.0023C30.7111 63.3291 30.5311 63.7604 30.5311 64.2169C30.5311 65.1662 31.3033 65.9384 32.2525 65.9384H40.0442C40.9934 65.9384 41.7656 65.1662 41.7656 64.2169C41.7656 63.2679 40.9934 62.4957 40.0444 62.4957H32.2523C31.796 62.4955 31.3646 62.6755 31.0379 63.0023ZM11.9449 63.5803H6.42252V82.3873H11.9508C11.9542 80.2181 11.9542 75.0002 11.9449 63.5803ZM28.2257 85.0641C27.8947 84.4277 27.7186 83.7186 27.7186 82.9832C27.7186 81.8112 28.1635 80.7052 28.9742 79.8565C28.1967 79.0423 27.7186 77.9398 27.7184 76.7278C27.7184 75.8194 27.987 74.9726 28.449 74.2625C27.6894 73.7626 27.0891 73.0401 26.7397 72.1891C25.978 72.7995 25.2269 73.28 24.625 73.6258C24.4042 73.7525 24.1634 73.8128 23.9259 73.8128C23.4388 73.8128 22.9653 73.5595 22.7053 73.1067C22.3184 72.4333 22.551 71.5737 23.2244 71.187C24.3524 70.5391 27.0348 68.7753 27.5778 66.397C27.8576 65.1718 27.5432 63.9185 26.6164 62.5655C26.2341 62.0072 26.3035 61.2555 26.7818 60.7769C27.8896 59.6682 28.4224 58.4255 28.5534 57.6568V52.6725C28.5534 49.5907 26.3851 47.0057 23.4939 46.3619V51.3649C23.4939 56.7155 19.4973 59.5329 15.9713 62.0186C15.5522 62.3141 15.1497 62.5983 14.7568 62.8835C14.7626 69.7345 14.7654 74.9023 14.7654 78.3863C14.7654 80.1889 14.7647 81.5412 14.7632 82.443C14.7626 82.7372 14.7621 82.983 14.7614 83.1816C18.4164 86.4095 21.9596 86.1231 28.2257 85.0641ZM39.0229 82.9833C39.0229 82.0341 38.2507 81.2619 37.3017 81.2619C37.3013 81.2619 37.3009 81.2619 37.3004 81.2619L33.291 81.2586L32.2571 81.2619C32.2555 81.2619 32.2541 81.2619 32.2525 81.2619C31.796 81.2619 31.3648 81.4419 31.0379 81.7689C30.7111 82.0956 30.5311 82.5268 30.5311 82.9832C30.5311 83.4398 30.7111 83.8712 31.0379 84.198C31.3646 84.5248 31.7958 84.7048 32.2522 84.7046H37.3015H37.3017C37.758 84.7046 38.1892 84.5248 38.5161 84.1978C38.8431 83.8709 39.0229 83.4397 39.0229 82.9833ZM40.8885 76.7276C40.8885 75.7786 40.1163 75.0064 39.167 75.0064H32.2525C31.3033 75.0064 30.5311 75.7786 30.5309 76.7278C30.5309 77.6767 31.3031 78.4491 32.2522 78.4492L33.2875 78.4459L37.3027 78.4492H39.1669C40.1163 78.4492 40.8885 77.677 40.8885 76.7276ZM43.0835 70.4723C43.0835 69.5232 42.3111 68.7509 41.3618 68.7509H40.0442H32.2525H30.9349C29.9856 68.7509 29.2133 69.5231 29.2133 70.4723C29.2133 71.4215 29.9856 72.1937 30.9349 72.1937H32.2525H39.167H41.3618C42.3111 72.1939 43.0835 71.4217 43.0835 70.4723ZM49.2581 30.0111C49.5599 30.0111 49.8642 29.9143 50.1209 29.7146L56.5455 24.7152C56.713 25.1028 57.0512 25.4115 57.4922 25.5226C57.6074 25.5516 57.7229 25.5654 57.8364 25.5654C58.4657 25.5654 59.0386 25.1401 59.1991 24.502L59.8966 21.7301C60.0022 21.3101 59.9085 20.8651 59.6426 20.5233C59.3766 20.1816 58.9683 19.9814 58.5353 19.9807L55.6771 19.9758C55.6762 19.9758 55.6754 19.9758 55.6747 19.9758C54.8991 19.9758 54.2698 20.6038 54.2684 21.3796C54.2675 21.8343 54.4837 22.2379 54.8183 22.4956L48.3936 27.495C47.7807 27.9719 47.6705 28.8555 48.1475 29.4685C48.4246 29.8248 48.8391 30.0111 49.2581 30.0111ZM52.6445 32.6447V37.2774C52.6445 38.054 52.0149 38.6837 51.2383 38.6837H47.2078C46.4312 38.6837 45.8016 38.054 45.8016 37.2774V32.6447C45.8016 31.8681 46.4312 31.2384 47.2078 31.2384H51.2383C52.0149 31.2384 52.6445 31.8679 52.6445 32.6447ZM49.832 34.0509H48.6141V35.8712H49.832V34.0509ZM60.13 28.5926V37.2774C60.13 38.054 59.5004 38.6837 58.7238 38.6837H54.6933C53.9167 38.6837 53.287 38.054 53.287 37.2774V28.5926C53.287 27.816 53.9167 27.1863 54.6933 27.1863H58.7238C59.5004 27.1863 60.13 27.816 60.13 28.5926ZM57.3175 29.9988H56.0995V35.8712H57.3175V29.9988ZM62.1787 22.9549H66.2092C66.9858 22.9549 67.6155 23.5846 67.6155 24.3612V37.2778C67.6155 38.0544 66.9858 38.684 66.2092 38.684H62.1787C61.4021 38.684 60.7725 38.0544 60.7725 37.2778V24.3612C60.7725 23.5844 61.4021 22.9549 62.1787 22.9549ZM63.585 35.8715H64.803V25.7674H63.585V35.8715Z" fill="url(#paint0_linear_367_182)"/>
<defs>
<linearGradient id="paint0_linear_367_182" x1="5.39731" y1="3.42628" x2="94.1745" y2="77.7091" gradientUnits="userSpaceOnUse">
<stop stop-color="#0088FF"/>
<stop offset="0.25" stop-color="#FB6609"/>
<stop offset="0.5" stop-color="#FC4798"/>
<stop offset="0.75" stop-color="#5BBBA9"/>
<stop offset="1" stop-color="#8A38F5"/>
</linearGradient>
</defs>
</svg>
