<svg width="241" height="32" viewBox="0 0 241 32" fill="none" xmlns="http://www.w3.org/2000/svg">
<g clip-path="url(#clip0_574_124)">
<path fill-rule="evenodd" clip-rule="evenodd" d="M165.665 31.5L182.763 0.5H240.052V5.61129H197.079L192.834 13.4316H215.52L212.786 18.5429H189.981L185.616 26.3631H208.422L205.568 31.5H165.665ZM124.539 23.4242H141.733C141.157 24.3186 140.893 25.2131 141.253 25.7754C141.876 26.7721 144.083 26.2861 144.659 26.082C145.809 25.6987 146.433 24.932 146.984 23.9097L149.862 18.5429H132.333C128.663 18.5429 128.544 16.2172 130.031 13.4316L135.426 3.669C137.033 0.857791 139.191 0.5 141.949 0.5H172.428C175.521 0.5 175.521 3.18343 174.274 5.61129L172.548 8.90808H155.258C155.786 7.83471 155.809 6.88912 155.402 6.30132C154.73 5.33017 152.956 5.53462 152.021 6.04575C151.277 6.48021 150.654 7.22135 149.982 8.42251L147.225 13.4316H164.179C167.752 13.4316 168.304 16.2176 167.176 18.5429L162.02 27.7176C160.63 30.1455 158.232 31.5 155.474 31.5H125.211C122.238 31.5 121.207 29.4044 122.477 27.1043L124.539 23.4242ZM88.3289 5.61129C91.0866 0.5 95.6669 0.5 99.2159 0.5H125.115C127.848 0.5 130.15 2.92786 128.663 5.61129L117.225 26.3631C114.803 30.5033 112.861 31.5 109.767 31.5H79.6241C76.6505 31.5 75.2837 29.1744 76.8904 26.3631L88.3289 5.61129ZM103.365 8.42251L94.6357 23.9097C94.3479 24.472 94.2281 24.9827 94.3959 25.392C94.9475 26.6698 98.3287 26.4398 99.5037 26.1843C101.182 25.7754 101.614 24.4975 101.974 23.9097L110.583 8.42251C111.182 7.32358 111.11 6.608 110.583 6.17354C109.815 5.53463 107.465 5.48351 106.17 5.86686C105.067 6.19909 104.156 6.94023 103.365 8.42251ZM46.5074 0.5H79.744C82.3818 0.5 84.4441 3.05565 82.7175 6.12242L79.2884 12.3326C77.8016 15.1439 75.2837 16.4728 73.4372 16.4728C75.2837 17.5717 75.2837 19.5137 74.3484 21.2263L70.9193 27.5895C70.008 29.3018 68.6172 31.5 64.3967 31.5H0.537354V26.3631H32.1912L46.5074 0.5ZM56.4832 13.4316H64.9482C66.9146 13.4316 67.7059 12.3326 68.1616 11.3615L69.8881 8.42251C70.5836 7.09357 70.5836 5.61129 69.0968 5.61129H60.8236L56.4832 13.4316ZM49.2651 26.3631H57.7302C59.6965 26.3631 60.4879 25.2639 60.9432 24.2931L62.6701 21.3541C63.3655 19.9996 63.3655 18.5429 61.8548 18.5429H53.6056L49.2651 26.3631ZM237.821 11.8215C236.503 11.8215 235.375 10.7226 235.375 9.24031C235.375 7.75804 236.503 6.68467 237.821 6.68467C239.14 6.68467 240.244 7.75804 240.244 9.24031C240.244 10.7226 239.14 11.8215 237.821 11.8215ZM235.855 9.24031C235.855 10.467 236.719 11.3871 237.821 11.3871C238.9 11.3871 239.764 10.467 239.764 9.24031C239.764 8.0136 238.9 7.09357 237.821 7.09357C236.719 7.09357 235.855 8.0136 235.855 9.24031ZM237.318 9.44477V10.7226H236.887V7.75804H237.942C238.613 7.75804 238.925 8.0136 238.925 8.6014C238.925 9.13809 238.613 9.3681 238.205 9.41921L238.997 10.7226H238.517L237.798 9.44477H237.318ZM237.318 9.06142H237.822C238.181 9.06142 238.494 9.03586 238.494 8.57585C238.494 8.21805 238.181 8.14139 237.894 8.14139H237.318V9.06142Z" fill="#003B5A"/>
</g>
<defs>
<clipPath id="clip0_574_124">
<rect width="240" height="31" fill="white" transform="translate(0.390625 0.5)"/>
</clipPath>
</defs>
</svg>
