<svg width="86" height="86" viewBox="0 0 86 86" fill="none" xmlns="http://www.w3.org/2000/svg">
<path d="M77.0416 16.125H60.9166V10.75C60.9166 9.32446 60.3504 7.95731 59.3423 6.9493C58.3343 5.94129 56.9672 5.375 55.5416 5.375H30.4583C29.0328 5.375 27.6656 5.94129 26.6576 6.9493C25.6496 7.95731 25.0833 9.32446 25.0833 10.75V16.125H8.95831C7.53277 16.125 6.16562 16.6913 5.15761 17.6993C4.14961 18.7073 3.58331 20.0745 3.58331 21.5V39.4167C3.58331 40.8422 4.14961 42.2094 5.15761 43.2174C6.16562 44.2254 7.53277 44.7917 8.95831 44.7917V60.9167C8.95831 63.2926 9.90213 65.5712 11.5821 67.2512C13.2622 68.9312 15.5407 69.875 17.9166 69.875H50.1666V66.2917H17.9166C16.4911 66.2917 15.124 65.7254 14.1159 64.7174C13.1079 63.7094 12.5416 62.3422 12.5416 60.9167V44.7917H21.5V48.375C21.5 48.8502 21.6887 49.3059 22.0247 49.6419C22.3608 49.9779 22.8165 50.1667 23.2916 50.1667H34.0416C34.5168 50.1667 34.9725 49.9779 35.3085 49.6419C35.6446 49.3059 35.8333 48.8502 35.8333 48.375V44.7917H50.1666V48.375C50.1666 48.8502 50.3554 49.3059 50.6914 49.6419C51.0274 49.9779 51.4831 50.1667 51.9583 50.1667H62.7083C63.1835 50.1667 63.6392 49.9779 63.9752 49.6419C64.3112 49.3059 64.5 48.8502 64.5 48.375V37.625C64.5 37.1498 64.3112 36.6941 63.9752 36.3581C63.6392 36.0221 63.1835 35.8333 62.7083 35.8333H51.9583C51.4831 35.8333 51.0274 36.0221 50.6914 36.3581C50.3554 36.6941 50.1666 37.1498 50.1666 37.625V41.2083H35.8333V37.625C35.8333 37.1498 35.6446 36.6941 35.3085 36.3581C34.9725 36.0221 34.5168 35.8333 34.0416 35.8333H23.2916C22.8165 35.8333 22.3608 36.0221 22.0247 36.3581C21.6887 36.6941 21.5 37.1498 21.5 37.625V41.2083H8.95831C8.48313 41.2083 8.02742 41.0196 7.69141 40.6836C7.35541 40.3476 7.16665 39.8918 7.16665 39.4167V21.5C7.16665 21.0248 7.35541 20.5691 7.69141 20.2331C8.02742 19.8971 8.48313 19.7083 8.95831 19.7083H77.0416C77.5168 19.7083 77.9725 19.8971 78.3085 20.2331C78.6446 20.5691 78.8333 21.0248 78.8333 21.5V39.4167H82.4166V21.5C82.4166 20.0745 81.8504 18.7073 80.8423 17.6993C79.8343 16.6913 78.4672 16.125 77.0416 16.125ZM53.75 39.4167H60.9166V46.5833H53.75V39.4167ZM25.0833 39.4167H32.25V46.5833H25.0833V39.4167ZM28.6666 16.125V10.75C28.6666 10.2748 28.8554 9.8191 29.1914 9.4831C29.5274 9.1471 29.9831 8.95833 30.4583 8.95833H55.5416C56.0168 8.95833 56.4725 9.1471 56.8085 9.4831C57.1446 9.8191 57.3333 10.2748 57.3333 10.75V16.125H28.6666ZM55.5416 41.2083H59.125V44.7917H55.5416V41.2083ZM26.875 41.2083H30.4583V44.7917H26.875V41.2083ZM78.8333 62.7083C78.8333 62.2332 78.6446 61.7774 78.3085 61.4414C77.9725 61.1054 77.5168 60.9167 77.0416 60.9167H69.875C69.3998 60.9167 68.9441 61.1054 68.6081 61.4414C68.2721 61.7774 68.0833 62.2332 68.0833 62.7083V77.0417H64.5V68.0833C64.5 67.6082 64.3112 67.1524 63.9752 66.8164C63.6392 66.4804 63.1835 66.2917 62.7083 66.2917H55.5416C55.0665 66.2917 54.6108 66.4804 54.2747 66.8164C53.9387 67.1524 53.75 67.6082 53.75 68.0833V77.0417H50.1666V80.625H82.4166V77.0417H78.8333V62.7083ZM57.3333 77.0417V69.875H60.9166V77.0417H57.3333ZM71.6666 77.0417V64.5H75.25V77.0417H71.6666ZM75.25 51.9583V50.1667H69.875C69.3998 50.1667 68.9441 49.9779 68.6081 49.6419C68.2721 49.3059 68.0833 48.8502 68.0833 48.375V43C68.0833 42.5248 68.2721 42.0691 68.6081 41.7331C68.9441 41.3971 69.3998 41.2083 69.875 41.2083H71.6666V39.4167H75.25V41.2083H78.8333V44.7917H71.6666V46.5833H77.0416C77.5168 46.5833 77.9725 46.7721 78.3085 47.1081C78.6446 47.4441 78.8333 47.8998 78.8333 48.375V53.75C78.8333 54.2252 78.6446 54.6809 78.3085 55.0169C77.9725 55.3529 77.5168 55.5417 77.0416 55.5417H75.25V57.3333H71.6666V55.5417H68.0833V51.9583H75.25Z" fill="url(#paint0_linear_367_151)"/>
<defs>
<linearGradient id="paint0_linear_367_151" x1="5.2854" y1="7.1186" x2="82.8863" y2="78.7577" gradientUnits="userSpaceOnUse">
<stop stop-color="#0088FF"/>
<stop offset="0.25" stop-color="#FB6609"/>
<stop offset="0.5" stop-color="#FC4798"/>
<stop offset="0.75" stop-color="#5BBBA9"/>
<stop offset="1" stop-color="#8A38F5"/>
</linearGradient>
</defs>
</svg>
