<svg width="110" height="110" viewBox="0 0 110 110" fill="none" xmlns="http://www.w3.org/2000/svg">
<path d="M88.0149 27.6331L84.9002 17.0624C84.5641 15.9214 83.5168 15.1378 82.3274 15.1373H54.5983C53.4088 15.1375 52.3614 15.9212 52.0255 17.0624L48.9147 27.6331H88.0149Z" fill="#DBD8DD"/>
<path d="M19.6159 20.4819H28.051C28.7918 20.4819 29.3925 21.0826 29.3925 21.8235V27.0484H18.2744V21.8232C18.2744 21.0824 18.8751 20.4819 19.6159 20.4819Z" fill="#575B6D"/>
<path d="M110 31.5461V41.9961H0.00134885V31.5461C-0.00303377 28.6242 2.36205 26.2519 5.28395 26.2473H5.28658H104.715C107.636 26.2548 110 28.6249 110 31.5461Z" fill="#DBD8DD"/>
<path d="M110 79.1272V89.5771C109.999 92.4957 107.633 94.8617 104.715 94.8624H5.28813C2.37281 94.8667 0.00596954 92.5071 0.00158691 89.5918C0.00158691 89.587 0.00158691 89.582 0.00158691 89.5771V79.1272H110Z" fill="#DBD8DD"/>
<path d="M0 41.9893H109.999V79.1311H0V41.9893Z" fill="#003B5A"/>
<path d="M69.6963 86.5426C84.046 86.5426 95.6787 74.9099 95.6787 60.5602C95.6787 46.2105 84.046 34.5778 69.6963 34.5778C55.3466 34.5778 43.7139 46.2105 43.7139 60.5602C43.7139 74.9099 55.3466 86.5426 69.6963 86.5426Z" fill="#414451"/>
<path d="M69.6962 81.4198C81.2166 81.4198 90.5558 72.0806 90.5558 60.5602C90.5558 49.0398 81.2166 39.7007 69.6962 39.7007C58.1758 39.7007 48.8367 49.0398 48.8367 60.5602C48.8367 72.0806 58.1758 81.4198 69.6962 81.4198Z" fill="#575B6D"/>
<path d="M69.6963 78.8789C79.8134 78.8789 88.015 70.6773 88.015 60.5602C88.015 50.443 79.8134 42.2415 69.6963 42.2415C59.5791 42.2415 51.3776 50.443 51.3776 60.5602C51.3776 70.6773 59.5791 78.8789 69.6963 78.8789Z" fill="#0D4D6E"/>
<path d="M69.6962 71.2543C75.6024 71.2543 80.3903 66.4664 80.3903 60.5603C80.3903 54.6541 75.6024 49.8662 69.6962 49.8662C63.7901 49.8662 59.0022 54.6541 59.0022 60.5603C59.0022 66.4664 63.7901 71.2543 69.6962 71.2543Z" fill="#003B5A"/>
<path d="M62.7731 59.6079C65.4632 59.6079 67.6439 57.4272 67.6439 54.7371C67.6439 52.047 65.4632 49.8662 62.7731 49.8662C60.083 49.8662 57.9022 52.047 57.9022 54.7371C57.9022 57.4272 60.083 59.6079 62.7731 59.6079Z" fill="#EEEFEE"/>
<path d="M12.5359 37.6134C14.3251 37.6134 15.7755 36.163 15.7755 34.3738C15.7755 32.5846 14.3251 31.1342 12.5359 31.1342C10.7467 31.1342 9.29626 32.5846 9.29626 34.3738C9.29626 36.163 10.7467 37.6134 12.5359 37.6134Z" fill="#EF5261"/>
<path d="M26.7996 37.6134C28.5888 37.6134 30.0392 36.163 30.0392 34.3738C30.0392 32.5846 28.5888 31.1342 26.7996 31.1342C25.0104 31.1342 23.5599 32.5846 23.5599 34.3738C23.5599 36.163 25.0104 37.6134 26.7996 37.6134Z" fill="#2CBFAE"/>
<path d="M80.5647 18.7231L83.2476 27.0521H53.6821L56.365 18.7231H80.5647Z" fill="#575B6D"/>
</svg>
