<svg width="116" height="116" viewBox="0 0 116 116" fill="none" xmlns="http://www.w3.org/2000/svg">
<path d="M95.7293 77.4564L81.7861 85.5555C81.7909 84.0819 80.7576 82.2823 79.4721 81.5406L61.9243 71.4096C61.2766 71.0388 60.6931 70.9992 60.2681 71.2465L74.2064 63.1476C74.6317 62.9003 75.2151 62.9351 75.8626 63.3107L93.4104 73.4419C94.6959 74.1834 95.7293 75.9781 95.7293 77.4564Z" fill="#4C5671"/>
<path d="M79.4721 81.5415C80.7569 82.2832 81.7921 84.0799 81.7879 85.5563L59.589 72.7397C59.5932 71.2632 60.6383 70.6677 61.9231 71.4096L79.4721 81.5415Z" fill="#373F51"/>
<path d="M113.577 80.8761L113.557 86.7712C113.557 87.6927 113.229 88.3275 112.718 88.6344L109.831 90.3136C110.343 90.0058 110.67 89.3722 110.67 88.4504L110.691 82.5553L113.577 80.8761Z" fill="#B4BED7"/>
<path d="M45.7341 45.0604L48.6195 43.3835L113.575 80.8856L110.69 82.5625L45.7341 45.0604Z" fill="#B4BED7"/>
<path d="M110.69 82.5625L110.673 88.4493C110.668 90.2816 109.37 91.0363 107.762 90.1081L48.6093 55.9563C47.0018 55.0281 45.7121 52.7795 45.7174 50.9472L45.7341 45.0604L110.69 82.5625Z" fill="#D3DBEA"/>
<path d="M113.68 41.8808L113.577 80.8763L110.691 82.5555L110.793 43.5591C110.793 41.717 109.504 39.465 107.907 38.5444L48.7482 4.39962C47.9295 3.92889 47.2129 3.88783 46.6807 4.19476L49.567 2.51647C50.0992 2.20954 50.8156 2.2506 51.6346 2.72133L110.794 36.865C112.39 37.7867 113.68 40.0385 113.68 41.8808Z" fill="#4C5671"/>
<path d="M107.9 38.5446C109.507 39.4729 110.797 41.7068 110.792 43.5537L110.69 82.5625L45.7341 45.0604L45.836 6.05164C45.8413 4.20446 47.1394 3.46461 48.7469 4.39284L107.9 38.5446Z" fill="#373F51"/>
<path d="M47.8853 6.25745L47.7832 46.2389L108.652 81.3821L108.75 41.3994L47.8853 6.25745Z" fill="#003B5A"/>
<path d="M97.8522 79.8115L97.8473 81.5244L94.6826 79.6971L94.6875 77.9845L97.8522 79.8115Z" fill="#9DA9C1"/>
<path d="M102.467 82.4756L102.462 84.1884L99.2971 82.3614L99.302 80.6486L102.467 82.4756Z" fill="#9DA9C1"/>
<path d="M107.081 85.1399L107.076 86.8527L103.912 85.0255L103.916 83.3126L107.081 85.1399Z" fill="#9DA9C1"/>
<path d="M2.31995 74.5015L2.32621 76.7987C2.32621 76.9335 2.37516 77.0321 2.45474 77.0741L65.394 113.654C65.3144 113.604 65.2655 113.506 65.2655 113.372L65.2592 111.074C65.2592 110.949 65.3089 110.812 65.3755 110.686L2.43711 74.1073C2.36959 74.234 2.31995 74.3722 2.31995 74.5015Z" fill="#9DA9C1"/>
<path d="M77.8146 103.324L84.1679 107.018L82.4463 103.953L79.5973 102.3L86.784 98.1467C86.9067 98.0787 87.0169 98.0732 87.0965 98.1149L24.1572 61.5431C24.0774 61.4933 23.9674 61.5058 23.8447 61.5726L2.75473 73.748C2.62527 73.8238 2.51693 73.9575 2.43689 74.1071L65.375 110.686C65.4548 110.535 65.5634 110.4 65.6938 110.326L77.8146 103.324Z" fill="#B4BED7"/>
<path d="M86.7849 98.1488C87.0236 98.011 87.2196 98.1184 87.2206 98.3971L87.2271 100.694C87.2277 100.968 87.0329 101.306 86.7944 101.444L85.6325 102.114L85.6439 106.164L84.1653 107.018L82.4483 103.953L65.7023 113.621C65.4636 113.759 65.2676 113.647 65.2666 113.373L65.2601 111.076C65.2594 110.797 65.4543 110.464 65.6928 110.326L86.7849 98.1488Z" fill="#4C5671"/>
<path d="M25.2781 65.6335L22.5732 67.2055L19.7064 65.5504L22.4115 63.9784L25.2781 65.6335Z" fill="#4C5671"/>
<path d="M29.1432 67.865L26.4384 69.4369L23.5715 67.7818L26.2767 66.21L29.1432 67.865Z" fill="#4C5671"/>
<path d="M33.0085 70.0965L30.3033 71.6685L27.4316 70.0104L30.1365 68.4384L33.0085 70.0965Z" fill="#4C5671"/>
<path d="M36.8735 72.3281L34.1684 73.8999L31.2811 72.2329L33.9862 70.6611L36.8735 72.3281Z" fill="#4C5671"/>
<path d="M23.3087 68.4474L20.6038 70.0194L16.296 67.5321L19.0011 65.9603L23.3087 68.4474Z" fill="#4C5671"/>
<path d="M27.1738 70.6788L24.4689 72.2508L21.5868 70.5869L24.2917 69.0149L27.1738 70.6788Z" fill="#4C5671"/>
<path d="M31.0389 72.9104L28.334 74.4824L25.4519 72.8183L28.1568 71.2465L31.0389 72.9104Z" fill="#4C5671"/>
<path d="M34.904 75.1418L32.1989 76.7138L29.317 75.0499L32.0219 73.4779L34.904 75.1418Z" fill="#4C5671"/>
<path d="M40.7385 74.5595L38.0336 76.1315L35.1464 74.4646L37.8513 72.8926L40.7385 74.5595Z" fill="#4C5671"/>
<path d="M38.7692 77.3733L36.0641 78.9454L33.1769 77.2785L35.882 75.7064L38.7692 77.3733Z" fill="#4C5671"/>
<path d="M22.3222 71.8291L19.6173 73.4009L12.8856 69.5142L15.5905 67.9424L22.3222 71.8291Z" fill="#4C5671"/>
<path d="M26.1871 74.0604L23.4825 75.6322L20.6003 73.9683L23.3052 72.3965L26.1871 74.0604Z" fill="#4C5671"/>
<path d="M30.0522 76.292L27.3476 77.8638L24.4603 76.1969L27.165 74.6251L30.0522 76.292Z" fill="#4C5671"/>
<path d="M33.9175 78.5234L31.2128 80.0952L28.3256 78.4282L31.0302 76.8564L33.9175 78.5234Z" fill="#4C5671"/>
<path d="M19.8897 74.3813L17.1899 75.9503L9.47522 71.4962L12.175 69.9274L19.8897 74.3813Z" fill="#4C5671"/>
<path d="M23.7497 76.6099L21.0499 78.1787L18.1833 76.5239L20.8829 74.9548L23.7497 76.6099Z" fill="#4C5671"/>
<path d="M27.4244 78.7315L24.7247 80.3003L21.8425 78.6364L24.5423 77.0674L27.4244 78.7315Z" fill="#4C5671"/>
<path d="M31.094 80.8502L28.3942 82.4189L25.5121 80.7551L28.2119 79.186L31.094 80.8502Z" fill="#4C5671"/>
<path d="M44.5985 76.7881L41.8936 78.3601L39.0115 76.6959L41.7164 75.1241L44.5985 76.7881Z" fill="#4C5671"/>
<path d="M42.6341 79.605L39.9292 81.1768L37.042 79.5099L39.7471 77.9381L42.6341 79.605Z" fill="#4C5671"/>
<path d="M37.7775 80.752L35.0726 82.3238L32.1907 80.6599L34.8953 79.0881L37.7775 80.752Z" fill="#4C5671"/>
<path d="M34.7582 82.9658L32.0586 84.5346L29.1765 82.8707L31.8761 81.3016L34.7582 82.9658Z" fill="#4C5671"/>
<path d="M48.4636 79.0196L45.7587 80.5914L42.8766 78.9275L45.5815 77.3555L48.4636 79.0196Z" fill="#4C5671"/>
<path d="M52.3287 81.2511L49.6236 82.8231L46.7417 81.159L49.4466 79.5872L52.3287 81.2511Z" fill="#4C5671"/>
<path d="M56.1938 83.4826L53.4887 85.0544L50.6066 83.3905L53.3117 81.8185L56.1938 83.4826Z" fill="#4C5671"/>
<path d="M60.0587 85.714L57.3538 87.286L54.4717 85.6221L57.1768 84.05L60.0587 85.714Z" fill="#4C5671"/>
<path d="M63.9238 87.9456L61.2189 89.5174L58.3368 87.8535L61.0417 86.2815L63.9238 87.9456Z" fill="#4C5671"/>
<path d="M46.4941 81.8333L43.7892 83.4054L40.9071 81.7415L43.612 80.1694L46.4941 81.8333Z" fill="#4C5671"/>
<path d="M50.3592 84.0649L47.6544 85.6369L44.7722 83.9728L47.4771 82.401L50.3592 84.0649Z" fill="#4C5671"/>
<path d="M60.5134 89.9274L57.8085 91.4994L48.6373 86.2045L51.3422 84.6324L60.5134 89.9274Z" fill="#4C5671"/>
<path d="M41.6426 82.9836L38.9377 84.5554L36.0558 82.8913L38.7604 81.3195L41.6426 82.9836Z" fill="#4C5671"/>
<path d="M45.5074 85.2149L42.8028 86.7867L39.9207 85.1228L42.6255 83.551L45.5074 85.2149Z" fill="#4C5671"/>
<path d="M49.3726 87.4466L46.6679 89.0184L43.7858 87.3543L46.4904 85.7825L49.3726 87.4466Z" fill="#4C5671"/>
<path d="M57.1028 91.9095L54.3981 93.4814L47.6509 89.5858L50.3555 88.014L57.1028 91.9095Z" fill="#4C5671"/>
<path d="M49.8222 91.6629L47.1226 93.2317L44.2405 91.5678L46.9403 89.9988L49.8222 91.6629Z" fill="#4C5671"/>
<path d="M38.4277 85.0842L35.728 86.6532L32.8409 84.9863L35.5405 83.4172L38.4277 85.0842Z" fill="#4C5671"/>
<path d="M42.0922 87.1998L39.3924 88.7688L36.5103 87.1049L39.21 85.5359L42.0922 87.1998Z" fill="#4C5671"/>
<path d="M11.6312 73.5642L8.93146 75.1332L6.04956 73.4691L8.74911 71.9003L11.6312 73.5642Z" fill="#4C5671"/>
<path d="M15.4964 75.7957L12.7966 77.3645L9.91467 75.7006L12.6142 74.1316L15.4964 75.7957Z" fill="#4C5671"/>
<path d="M19.3615 78.0272L16.6617 79.5962L13.7795 77.9321L16.4793 76.3633L19.3615 78.0272Z" fill="#4C5671"/>
<path d="M34.9813 87.0452L32.2815 88.6142L17.6395 80.1606L20.3393 78.5918L34.9813 87.0452Z" fill="#4C5671"/>
<path d="M38.6818 89.1817L35.982 90.7507L33.0999 89.0866L35.7996 87.5178L38.6818 89.1817Z" fill="#4C5671"/>
<path d="M42.5469 91.4133L39.8471 92.9821L36.965 91.3182L39.6648 89.7491L42.5469 91.4133Z" fill="#4C5671"/>
<path d="M46.4118 93.6447L43.7122 95.2138L40.8301 93.5499L43.5299 91.9808L46.4118 93.6447Z" fill="#4C5671"/>
<path d="M50.2769 95.8763L47.5773 97.4451L44.6952 95.7812L47.3947 94.2124L50.2769 95.8763Z" fill="#4C5671"/>
<path d="M67.6856 98.0196L64.981 99.5914L62.0938 97.9245L64.7984 96.3527L67.6856 98.0196Z" fill="#4C5671"/>
<path d="M70.6418 91.8241L67.9367 93.3959L65.0494 91.729L67.7546 90.1572L70.6418 91.8241Z" fill="#4C5671"/>
<path d="M67.2312 93.806L64.5263 95.378L61.639 93.7111L64.3442 92.139L67.2312 93.806Z" fill="#4C5671"/>
<path d="M63.8205 95.7881L61.1159 97.3599L58.2286 95.693L60.9333 94.1212L63.8205 95.7881Z" fill="#4C5671"/>
<path d="M60.4053 97.7729L57.7055 99.3419L54.8182 97.6747L57.518 96.106L60.4053 97.7729Z" fill="#4C5671"/>
<path d="M74.5067 94.0556L71.8018 95.6276L68.9146 93.9607L71.6194 92.3887L74.5067 94.0556Z" fill="#4C5671"/>
<path d="M71.0963 96.0375L68.3914 97.6096L65.5042 95.9426L68.209 94.3706L71.0963 96.0375Z" fill="#4C5671"/>
<path d="M64.2701 100.005L61.5706 101.573L58.6833 99.9064L61.3831 98.3376L64.2701 100.005Z" fill="#4C5671"/>
<path d="M60.8597 101.986L58.1602 103.555L51.4078 99.6568L54.1076 98.088L60.8597 101.986Z" fill="#4C5671"/>
<path d="M78.3513 96.2753L75.6464 97.8471L72.7798 96.192L75.4847 94.6202L78.3513 96.2753Z" fill="#4C5671"/>
<path d="M82.2163 98.5068L79.5114 100.079L76.6448 98.4237L79.3497 96.8517L82.2163 98.5068Z" fill="#4C5671"/>
<path d="M74.9409 98.2571L72.236 99.8292L69.3694 98.1741L72.0743 96.6021L74.9409 98.2571Z" fill="#4C5671"/>
<path d="M71.5301 100.239L68.8255 101.811L65.9589 100.156L68.6635 98.5842L71.5301 100.239Z" fill="#4C5671"/>
<path d="M68.1148 102.224L65.4151 103.793L62.5485 102.138L65.248 100.569L68.1148 102.224Z" fill="#4C5671"/>
<path d="M64.7042 104.206L62.0047 105.775L59.1381 104.12L61.8376 102.551L64.7042 104.206Z" fill="#4C5671"/>
<path d="M78.8059 100.489L76.101 102.061L73.2344 100.406L75.9393 98.8336L78.8059 100.489Z" fill="#4C5671"/>
<path d="M75.3953 102.471L72.6907 104.042L69.8241 102.387L72.5288 100.816L75.3953 102.471Z" fill="#4C5671"/>
<path d="M71.9798 104.456L65.8699 108.006L63.0031 106.351L69.1132 102.801L71.9798 104.456Z" fill="#4C5671"/>
<path d="M87.7796 93.3953C88.0835 93.9217 87.6346 94.2351 87.2968 93.6705C86.6904 92.6202 85.2155 91.2795 84.1787 91.8701C84.0068 91.9518 83.7971 91.7553 83.6976 91.5922C83.5693 91.3635 83.57 91.1129 83.6992 91.0391C85.122 90.2494 86.9604 91.9762 87.7796 93.3953Z" fill="#4C5671"/>
<path d="M89.7067 91.7695C89.835 91.9917 89.8343 92.2406 89.705 92.3144C89.5375 92.4098 89.3188 92.207 89.2239 92.0365C87.833 89.6348 84.6588 86.6692 82.2674 88.0201C82.0975 88.1166 81.8839 87.9115 81.7862 87.7422C81.6579 87.5197 81.6586 87.271 81.7878 87.1972C84.5108 85.6477 88.126 89.0328 89.7067 91.7695Z" fill="#4C5671"/>
<path d="M88.7403 92.5765C88.8758 92.8111 88.8751 93.0535 88.7387 93.1296C88.5784 93.221 88.3561 93.0162 88.2631 92.8549C87.2481 91.097 84.9446 88.9592 83.2257 89.9466C83.06 90.0449 82.8422 89.8382 82.7445 89.6686C82.6104 89.4364 82.6111 89.1942 82.7461 89.1158C84.8091 87.9423 87.543 90.5036 88.7403 92.5765Z" fill="#4C5671"/>
<path d="M85.7369 93.3399C86.2918 93.6603 86.7447 94.4365 86.7428 95.0838C86.741 95.7213 86.2851 95.9812 85.7304 95.6608C85.1671 95.3355 84.7212 94.5553 84.723 93.9178C84.7249 93.2705 85.1736 93.0146 85.7369 93.3399Z" fill="#4C5671"/>
</svg>
