<svg width="116" height="116" viewBox="0 0 116 116" fill="none" xmlns="http://www.w3.org/2000/svg">
<path fill-rule="evenodd" clip-rule="evenodd" d="M109.204 103.36H59.8687C56.1991 103.36 53.2091 100.37 53.2091 96.7007V63.8103C53.2091 62.8589 53.9566 62.1114 54.908 62.1114L95.9531 38.8026C95.9531 37.8513 96.7006 37.1038 97.652 37.1038H109.272C112.942 37.1038 115.932 40.1618 115.932 43.8314V96.5648C115.864 100.37 112.874 103.36 109.204 103.36Z" fill="#2F4054"/>
<path fill-rule="evenodd" clip-rule="evenodd" d="M105.195 98.2637H63.7422C60.5483 98.2637 57.8981 95.6134 57.8981 92.4195V61.4318C57.8981 60.4804 58.6456 59.7329 59.597 59.7329C63.0627 58.102 94.7299 42.1324 94.8659 42.1324H105.331C108.525 42.1324 111.175 44.7148 111.175 47.9766V92.3515C111.175 95.6134 108.525 98.2637 105.195 98.2637Z" fill="#003B5A"/>
<path fill-rule="evenodd" clip-rule="evenodd" d="M74.6151 83.7892C71.5571 83.7892 68.3632 83.4494 66.1886 81.4107C64.8975 80.1875 64.2179 78.4207 64.2179 76.2461V58.5097C64.2179 57.5583 64.9654 56.8108 65.9168 56.8108L77.6051 51.3744C78.5565 51.3744 79.304 52.1219 79.304 53.0733V68.2953L92.5553 65.3732C93.031 65.3053 93.6426 65.3732 93.9824 65.645C94.3901 65.9848 94.6619 66.3926 94.6619 67.0041V78.7604C94.6619 79.508 94.1183 80.1875 93.3708 80.3914L78.0808 83.6532C77.9449 83.6532 77.8769 83.6532 77.6731 83.6532C77.1974 83.6532 76.7217 83.6532 76.246 83.6532C75.7024 83.7892 75.1587 83.7892 74.6151 83.7892Z" fill="#C9D9E5"/>
<path fill-rule="evenodd" clip-rule="evenodd" d="M47.6368 64.3539C47.1611 63.6063 47.7047 65.645 48.5881 65.1693C48.86 65.0334 47.6368 63.8782 47.9765 63.7423L47.8406 47.365V47.2291L49.6754 46.4816L96.157 29.085C96.157 28.2695 96.7006 27.5899 97.584 27.3861C98.5354 27.3181 99.2829 27.8618 99.4868 28.8131C100.098 33.7059 100.438 42.4722 94.662 46.0738C88.2741 50.0152 79.9836 53.8208 71.2173 57.8301C63.9461 61.1599 54.5003 64.6936 48.1804 68.2273C47.229 67.6837 48.1125 65.2373 47.6368 64.3539Z" fill="#ABB7C1"/>
<path fill-rule="evenodd" clip-rule="evenodd" d="M47.1611 49.8114C46.4815 49.8114 45.8699 49.4716 45.666 48.7921C45.3942 47.9766 45.734 47.0252 46.6174 46.6175L5.98005 25.8231C5.02868 25.959 4.21321 25.3474 4.0773 24.464C3.87343 23.5126 4.55299 22.6972 5.43641 22.6292L66.7323 12.6398H67.072H90.1089C92.7592 12.6398 94.9338 13.5232 96.5647 15.4259C100.166 20.6585 99.4188 29.085 99.4868 29.2209L49.3356 47.2971C49.1318 47.365 47.3649 49.8114 47.1611 49.8114Z" fill="#D8E6EE"/>
<path fill-rule="evenodd" clip-rule="evenodd" d="M15.9695 50.5589H12.096C11.5524 50.5589 10.9408 50.287 10.669 49.7434L0.679526 32.7545C0.611571 32.6866 0.611571 32.6186 0.611571 32.4827C0.47566 32.2788 -1.01936 28.1336 1.29113 25.0756C2.65024 23.0369 5.02868 22.2214 8.42645 22.2214H8.63032L35.4727 25.1435H35.5407C38.8705 25.1435 43.2876 32.6866 48.86 47.5688C49.1318 48.4522 48.792 49.3357 47.9086 49.7434C47.0931 50.0152 20.7943 50.5589 15.9695 50.5589Z" fill="#091331"/>
<path fill-rule="evenodd" clip-rule="evenodd" d="M47.5688 68.2953C47.4329 68.2953 47.4329 68.2953 47.3649 68.2953L15.7656 64.3539C14.9502 64.2859 14.3386 63.4705 14.3386 62.723V31.0557C14.3386 30.58 14.5424 30.1723 14.9502 29.8325C15.2899 29.5607 15.7656 29.3568 16.2413 29.4927L42.4042 32.6866L49.3356 47.2971V66.5964C49.3356 67.0721 49.1318 67.5478 48.792 67.8196C48.3843 68.2273 48.0445 68.2953 47.5688 68.2953Z" fill="#262D43"/>
<path fill-rule="evenodd" clip-rule="evenodd" d="M42.9478 61.4318C42.8119 61.4318 42.8119 61.4318 42.744 61.4318L22.2894 59.0534C21.4059 58.9854 20.8623 58.3058 20.8623 57.4904V37.9872C20.8623 37.5115 21.0662 37.0358 21.4059 36.764C21.8137 36.4242 22.2894 36.2883 22.7651 36.3562L43.2197 38.8026C44.0351 38.8706 44.6467 39.686 44.6467 40.4336V59.7329C44.6467 60.2086 44.4429 60.6843 44.0351 60.9561C43.6953 61.2279 43.2876 61.4318 42.9478 61.4318Z" fill="#2F4054"/>
<path fill-rule="evenodd" clip-rule="evenodd" d="M32.6186 54.7042C29.6965 54.7042 27.386 52.1219 27.386 48.8601C27.386 45.6662 29.6965 43.0839 32.6186 43.0839C35.5407 43.0839 37.9191 45.6662 37.9191 48.8601C37.9871 52.1219 35.5407 54.7042 32.6186 54.7042Z" fill="#003B5A"/>
<path fill-rule="evenodd" clip-rule="evenodd" d="M32.6186 46.3457C31.5313 46.3457 30.6479 47.5009 30.6479 48.8601C30.6479 50.2871 31.5993 51.4424 32.6186 51.4424C33.7059 51.4424 34.5893 50.2871 34.5893 48.8601C34.5893 47.5009 33.7738 46.3457 32.6186 46.3457Z" fill="#0C70A5"/>
<path fill-rule="evenodd" clip-rule="evenodd" d="M31.2595 46.3457C30.9197 46.3457 30.6479 46.6855 30.6479 47.0932C30.6479 47.5009 30.9197 47.8407 31.2595 47.8407C31.5993 47.8407 31.8711 47.5009 31.8711 47.0932C31.8711 46.6855 31.5993 46.3457 31.2595 46.3457Z" fill="#BCD7E9"/>
</svg>
