<svg width="132" height="132" viewBox="0 0 132 132" fill="none" xmlns="http://www.w3.org/2000/svg">
<path d="M59 56.6001H78.4V74.6001H59V56.6001Z" fill="#D5B79F"/>
<path d="M68.6 74.6001L59 71.6001V56.6001H68.6V74.6001Z" fill="#C6A28A"/>
<path d="M78.4 66L68.6 74.6L68.8 91.6H86.6V71L78.4 66Z" fill="#D5B79F"/>
<path d="M68.5999 74.4L59 66.8L49.2 72.8V91.6H68.8L68.5999 74.4Z" fill="#C6A28A"/>
<path d="M87.4 75.4001C85.8 74.2001 85 73.2001 83.8 71.6001C83.6 79.4001 77.2 85.6001 69.2 85.6001C62.4 85.6001 56.6 81.0001 55.2 74.6001C53.8 76.8001 51.4 78.4001 48.4 78.8001V130H69.2H90V77.2001C89 76.6001 88.2 76.0001 87.4 75.4001Z" fill="#D4D8DB"/>
<path d="M87.4 75.4001C85.8 74.2001 85 73.2001 83.8 71.6001C83.6 79.4001 77.2 85.6001 69.2 85.6001C69 85.6001 68.8 85.6001 68.8 85.6001V130H69.4H90V77.2001C89 76.6001 88.2 76.0001 87.4 75.4001Z" fill="#E6E6E8"/>
<path d="M113.6 98.2001C112.8 89.6001 104.2 82.4001 101.4 80.4001C100.8 80.0001 100.4 79.8001 100.4 79.8001L87.2 71.6001L80.6 67.6001C80 72.0001 76 106.2 69.2 128.2V129.2L68.6 130H113.6C114 120.4 114 105 113.6 98.2001Z" fill="#4D6C8F"/>
<path d="M57.2 67.8L50.6 72L38.2 79.6C38.2 79.6 26 87.8 25 98.2C24.4 105 24.6 120.4 24.8 130H68.6C62 108.8 58 74.4 57.2 67.8Z" fill="#4D6C8F"/>
<path d="M57.2 67.8L50.6 72L49.4 86.2L53.8 89.6L51.8 95.2C55.4 106.2 68.6 129.6 68.8 130C62 108.8 58 74.4 57.2 67.8Z" fill="#4D6C8F"/>
<path d="M88.4 86.2001L87.2 71.6001L80.6 67.6001C80 72.0001 76 106.2 69.2 128.2C69 128.8 68.8 129.4 68.6 130C68.6 130 68.8 129.6 69.2 129.2C71.8 125.6 82.8 105 86.2 95.2001L84.2 89.6001L88.4 86.2001Z" fill="#4D6C8F"/>
<path d="M68.6 67.8001C80.3084 67.8001 89.8 55.264 89.8 39.8C89.8 24.3361 80.3084 11.8 68.6 11.8C56.8915 11.8 47.4 24.3361 47.4 39.8C47.4 55.264 56.8915 67.8001 68.6 67.8001Z" fill="#D5B79F"/>
<path d="M68.8 11.8V67.8001C80.6 67.8001 90 55.2001 90 39.8C90 24.4 80.4 11.8 68.8 11.8Z" fill="#C6A28A"/>
<path d="M62.4 16.8C62.4 16.8 80.4 27.6 86.8 31.6C86.8 31.6 90.8 37.6 88.6 47.8C86.4 58.2 78.6 64.8 78.6 64.8V66L81 67.4C81 67.4 89.2 64.8 93 56.6C96.8 48.4 100 37.2 96 27.6C92 18 89.2 -2.39998 65.4 2.80001C65.4 2.80001 59.8 0.800015 55 7.20001C50.2 13.6 43.8 22.8 43 34C42.2 45.2 46.8 60 53.6 65L56.8 68.4L59.2 67V65L55.6 62C55.4 61.8 48 30.4 62.4 16.8Z" fill="#3B4C56"/>
<path d="M95.6 27.6C91.8 18.6 89 -0.199989 68.6 2.20001V20.4C74.4 24 82.8 29 86.8 31.4C86.8 31.4 90.8 37.4 88.6 47.6C86.4 58 78.6 64.6 78.6 64.6V65.8L81 67.2C81 67.2 89.2 64.6 93 56.4C96.6 48.4 99.8 37.2 95.6 27.6Z" fill="#465C6A"/>
<path d="M69.2 58.9999C69 58.9999 68.8 58.9999 68.4 58.9999V56.7999C83.6 57.1999 88.6 45.3999 88.8 45.3999L90.8 46.1999C90.8 46.1999 85.4 58.9999 69.2 58.9999Z" fill="#465C6A"/>
<path d="M69.6 62.0001C72.5823 62.0001 75 60.1197 75 57.8001C75 55.4805 72.5823 53.6001 69.6 53.6001C66.6176 53.6001 64.2 55.4805 64.2 57.8001C64.2 60.1197 66.6176 62.0001 69.6 62.0001Z" fill="#465C6A"/>
<path d="M97.2 85.0001C97.2 77.6001 103.2 71.8001 110.4 71.8001V65.6001C99.6 65.6001 90.8 74.4001 90.8 85.2001C90.8 96.0001 99.6 104.8 110.4 104.8V98.6001C103.2 98.2001 97.2 92.4001 97.2 85.0001Z" fill="#73B6D5"/>
<path d="M110.4 65.6001V71.8001C117.8 71.8001 123.6 77.8001 123.6 85.0001C123.6 92.2001 117.6 98.2001 110.4 98.2001V104.4C121.2 104.4 130 95.6001 130 84.8001C130 74.0001 121.2 65.6001 110.4 65.6001Z" fill="#4286A3"/>
<path d="M125.6 85C125.6 76.6 118.8 69.8 110.4 69.8V100.2C118.8 100.2 125.6 93.4 125.6 85Z" fill="#73B6D5"/>
<path d="M95.2 85C95.2 93.4 102 100.2 110.4 100.2V69.8C102 69.8 95.2 76.6 95.2 85Z" fill="#4286A3"/>
<path d="M103.2 84.2C104.2 83 103.4 81.6 102 81.6C101.2 81.6 100.6 82 100 82.8L98.6 82C99.6 80.6 100.6 80 102 80C104.4 80 105.8 82.4 104.6 84.2C104 85.2 102.6 86.4 101 88.2H105.4V89.8H98.8V88.4C101 86.6 102.6 85.2 103.2 84.2Z" fill="white"/>
<path d="M111 86.1999V84.3999H112.6V86.1999H113.8V87.5999H112.6V89.9999H111V87.5999H106.8V86.1999L110.4 80.3999H112.2L108.8 86.1999H111Z" fill="white"/>
<path d="M116.8 90.2H115.2V80H116.8V84.2C117.2 83.2 118.2 82.8 119.2 82.8C120.8 82.8 122 83.8 122 85.8V90.2H120.4V86.2C120.4 83.8 118.4 83.8 117.4 84.8C116.4 85.4 117 86.8 116.8 90.2Z" fill="white"/>
<path d="M37.8 19.8H21H4.8C3.2 19.8 2 21.0001 2 22.6001V47.2001C2 48.8001 3.2 50.0001 4.8 50.0001H21H22.2L32.6 60.4001V50.0001H37.8C39.4 50.0001 40.6 48.8001 40.6 47.2001V22.6001C40.6 21.0001 39.4 19.8 37.8 19.8Z" fill="#5BBBA9"/>
<path d="M40.6 35.6V22.6001C40.6 21.0001 39.4 19.8 37.8 19.8H21V35.4001H40.6V35.6Z" fill="#23947F"/>
<path d="M2 35.6001V47.4001C2 48.8001 3.2 50.0001 4.8 50.0001H21.4V35.6001H2Z" fill="#23947F"/>
<path d="M12.2 39.2C14.1882 39.2 15.8 37.5882 15.8 35.6C15.8 33.6118 14.1882 32 12.2 32C10.2117 32 8.59998 33.6118 8.59998 35.6C8.59998 37.5882 10.2117 39.2 12.2 39.2Z" fill="#E6E6E8"/>
<path d="M21.4 39.2C23.3882 39.2 25 37.5882 25 35.6C25 33.6118 23.3882 32 21.4 32C19.4118 32 17.8 33.6118 17.8 35.6C17.8 37.5882 19.4118 39.2 21.4 39.2Z" fill="#E6E6E8"/>
<path d="M30.4 39.2C32.3882 39.2 34 37.5882 34 35.6C34 33.6118 32.3882 32 30.4 32C28.4118 32 26.8 33.6118 26.8 35.6C26.8 37.5882 28.4118 39.2 30.4 39.2Z" fill="#E6E6E8"/>
</svg>
