<svg width="106" height="106" viewBox="0 0 106 106" fill="none" xmlns="http://www.w3.org/2000/svg">
<path d="M86.125 16.5625H23.1875C20.4433 16.5625 18.2188 18.7871 18.2188 21.5312V34.7812C18.2188 37.5254 20.4433 39.75 23.1875 39.75H86.125C88.8692 39.75 91.0938 37.5254 91.0938 34.7812V21.5312C91.0938 18.7871 88.8692 16.5625 86.125 16.5625Z" fill="#37474F"/>
<path d="M23.1875 39.75H86.125V46.375H23.1875V39.75Z" fill="#263238"/>
<path d="M86.125 46.375H23.1875C20.4433 46.375 18.2188 48.5996 18.2188 51.3438V64.5938C18.2188 67.3379 20.4433 69.5625 23.1875 69.5625H86.125C88.8692 69.5625 91.0938 67.3379 91.0938 64.5938V51.3438C91.0938 48.5996 88.8692 46.375 86.125 46.375Z" fill="#37474F"/>
<path d="M23.1875 69.5625H86.125V76.1875H23.1875V69.5625Z" fill="#263238"/>
<path d="M86.125 76.1875H23.1875C20.4433 76.1875 18.2188 78.4121 18.2188 81.1562V94.4062C18.2188 97.1504 20.4433 99.375 23.1875 99.375H86.125C88.8692 99.375 91.0938 97.1504 91.0938 94.4062V81.1562C91.0938 78.4121 88.8692 76.1875 86.125 76.1875Z" fill="#37474F"/>
<path d="M74.5312 16.5625H11.5938C8.84959 16.5625 6.625 18.7871 6.625 21.5312V34.7812C6.625 37.5254 8.84959 39.75 11.5938 39.75H74.5312C77.2754 39.75 79.5 37.5254 79.5 34.7812V21.5312C79.5 18.7871 77.2754 16.5625 74.5312 16.5625Z" fill="#455A64"/>
<path d="M19.875 31.4688C21.7044 31.4688 23.1875 29.9857 23.1875 28.1562C23.1875 26.3268 21.7044 24.8438 19.875 24.8438C18.0456 24.8438 16.5625 26.3268 16.5625 28.1562C16.5625 29.9857 18.0456 31.4688 19.875 31.4688Z" fill="#F5F5F5"/>
<path d="M56.3125 29.3984H33.125C32.4391 29.3984 31.8828 28.8421 31.8828 28.1562C31.8828 27.4704 32.4391 26.9141 33.125 26.9141H56.3125C56.9984 26.9141 57.5547 27.4704 57.5547 28.1562C57.5547 28.8421 56.9984 29.3984 56.3125 29.3984Z" fill="#F5F5F5"/>
<path d="M69.5625 29.3984H62.9375C62.2516 29.3984 61.6953 28.8421 61.6953 28.1562C61.6953 27.4704 62.2516 26.9141 62.9375 26.9141H69.5625C70.2484 26.9141 70.8047 27.4704 70.8047 28.1562C70.8047 28.8421 70.2484 29.3984 69.5625 29.3984Z" fill="#F5F5F5"/>
<path d="M11.5938 39.75H74.5312V46.375H11.5938V39.75Z" fill="#37474F"/>
<path d="M74.5312 46.375H11.5938C8.84959 46.375 6.625 48.5996 6.625 51.3438V64.5938C6.625 67.3379 8.84959 69.5625 11.5938 69.5625H74.5312C77.2754 69.5625 79.5 67.3379 79.5 64.5938V51.3438C79.5 48.5996 77.2754 46.375 74.5312 46.375Z" fill="#455A64"/>
<path d="M19.875 61.2812C21.7044 61.2812 23.1875 59.7982 23.1875 57.9688C23.1875 56.1393 21.7044 54.6562 19.875 54.6562C18.0456 54.6562 16.5625 56.1393 16.5625 57.9688C16.5625 59.7982 18.0456 61.2812 19.875 61.2812Z" fill="#F5F5F5"/>
<path d="M56.3125 59.2109H33.125C32.4391 59.2109 31.8828 58.6546 31.8828 57.9688C31.8828 57.2829 32.4391 56.7266 33.125 56.7266H56.3125C56.9984 56.7266 57.5547 57.2829 57.5547 57.9688C57.5547 58.6546 56.9984 59.2109 56.3125 59.2109Z" fill="#F5F5F5"/>
<path d="M69.5625 59.2109H62.9375C62.2516 59.2109 61.6953 58.6546 61.6953 57.9688C61.6953 57.2829 62.2516 56.7266 62.9375 56.7266H69.5625C70.2484 56.7266 70.8047 57.2829 70.8047 57.9688C70.8047 58.6546 70.2484 59.2109 69.5625 59.2109Z" fill="#F5F5F5"/>
<path d="M11.5938 69.5625H74.5312V76.1875H11.5938V69.5625Z" fill="#37474F"/>
<path d="M74.5312 76.1875H11.5938C8.84959 76.1875 6.625 78.4121 6.625 81.1562V94.4062C6.625 97.1504 8.84959 99.375 11.5938 99.375H74.5312C77.2754 99.375 79.5 97.1504 79.5 94.4062V81.1562C79.5 78.4121 77.2754 76.1875 74.5312 76.1875Z" fill="#455A64"/>
<path d="M19.875 91.0938C21.7044 91.0938 23.1875 89.6107 23.1875 87.7812C23.1875 85.9518 21.7044 84.4688 19.875 84.4688C18.0456 84.4688 16.5625 85.9518 16.5625 87.7812C16.5625 89.6107 18.0456 91.0938 19.875 91.0938Z" fill="#F5F5F5"/>
<path d="M56.3125 89.0234H33.125C32.4391 89.0234 31.8828 88.4671 31.8828 87.7812C31.8828 87.0954 32.4391 86.5391 33.125 86.5391H56.3125C56.9984 86.5391 57.5547 87.0954 57.5547 87.7812C57.5547 88.4671 56.9984 89.0234 56.3125 89.0234Z" fill="#F5F5F5"/>
<path d="M69.5625 89.0234H62.9375C62.2516 89.0234 61.6953 88.4671 61.6953 87.7812C61.6953 87.0954 62.2516 86.5391 62.9375 86.5391H69.5625C70.2484 86.5391 70.8047 87.0954 70.8047 87.7812C70.8047 88.4671 70.2484 89.0234 69.5625 89.0234Z" fill="#F5F5F5"/>
<path d="M67.9062 69.5625C85.286 69.5625 99.375 55.4735 99.375 38.0938C99.375 20.714 85.286 6.625 67.9062 6.625C50.5265 6.625 36.4375 20.714 36.4375 38.0938C36.4375 55.4735 50.5265 69.5625 67.9062 69.5625Z" fill="#003B5A"/>
<path d="M82.8125 36.8516C82.1267 36.8516 81.5703 37.4079 81.5703 38.0938C81.5703 45.6277 75.4402 51.7578 67.9063 51.7578C60.3723 51.7578 54.2422 45.6277 54.2422 38.0938C54.2422 30.5598 60.3723 24.4297 67.9063 24.4297C70.7936 24.4297 73.598 25.3511 75.922 27.0406L67.5537 29.654C66.8986 29.8586 66.5339 30.5549 66.7385 31.2101C66.9042 31.7414 67.3943 32.0819 67.924 32.0819C68.0461 32.0819 68.1714 32.0642 68.2943 32.0253L77.2363 29.2328C77.9746 29.0023 78.5795 28.4978 78.9394 27.8119C79.2985 27.1261 79.3689 26.3417 79.1383 25.6025L76.3459 16.6606C76.1421 16.0064 75.4522 15.6392 74.7898 15.8454C74.1348 16.0499 73.7701 16.7462 73.9746 17.4014L76.0926 24.1838C73.625 22.7284 70.8006 21.9457 67.9059 21.9457C59.0019 21.9457 51.7575 29.1901 51.7575 38.0941C51.7575 46.9981 59.0019 54.2425 67.9059 54.2425C76.8099 54.2425 84.0544 46.9981 84.0544 38.0941C84.0544 37.4083 83.4984 36.8516 82.8125 36.8516Z" fill="#F5F5F5"/>
</svg>
