<svg width="97" height="98" viewBox="0 0 97 98" fill="none" xmlns="http://www.w3.org/2000/svg">
<path fill-rule="evenodd" clip-rule="evenodd" d="M82.2695 15.0224C74.5861 7.28762 64.2235 1.76894 49.6893 0.949219H46.7012C32.2626 1.74401 21.7925 7.3025 14.1214 14.9742C6.48529 22.6103 0.774882 32.9176 0.0481943 47.4579C0.0561569 47.514 0.0375078 47.5436 0 47.5543V50.4461C0.758957 65.0419 6.43835 75.2432 14.1214 82.978C21.8042 90.7126 32.1689 96.2291 46.7014 97.0508H49.6413C64.463 96.3215 74.2823 90.5906 82.27 83.026C89.8734 75.0624 95.6527 65.2751 96.3907 50.4461V47.5543C95.6318 32.9581 89.9523 22.757 82.2695 15.0224ZM87.5709 65.4348C83.5027 75.4056 76.1614 82.6316 66.8465 87.3155C62.0941 89.7051 56.3573 91.193 49.7375 91.5084C42.8358 91.837 36.707 90.3702 31.7605 88.2796C21.7585 84.051 14.5306 77.0939 9.78368 67.6517C7.3794 62.8698 5.85772 57.2598 5.54257 50.5907C5.0426 40.012 8.495 31.9449 12.4828 25.6736C16.5678 19.2486 22.4106 14.2364 29.4956 10.7331C31.8232 9.58209 34.3913 8.60794 37.2549 7.84123C40.1403 7.06844 43.3018 6.65146 46.6535 6.49179C53.4711 6.16721 59.8371 7.6803 64.727 9.72102C69.7669 11.8242 74.0434 14.7343 77.5945 18.155C84.7725 25.0686 90.2118 34.135 90.8484 47.5061C91.1847 54.5642 89.6288 60.3912 87.5709 65.4348ZM63.2323 51.3616V37.7224H56.0029V44.5662C52.7169 46.6616 49.4613 48.788 46.1229 50.8313C45.598 50.4891 45.0115 50.2083 44.5329 49.8192C47.7625 47.7317 50.913 45.564 54.1718 43.5057C52.8251 42.4903 51.3889 41.5647 49.9303 40.662C46.6778 42.7436 43.4118 44.8107 40.1468 46.8793C39.6552 46.5032 39.0964 46.195 38.6046 45.819C41.8428 43.7555 45.0352 41.6465 48.2919 39.6018C46.8504 38.505 45.2883 37.5284 43.7614 36.5171C39.5988 39.1829 35.4723 41.8837 31.2784 44.5176C30.2906 41.5333 28.161 39.1368 25.1577 38.2041C21.761 37.1491 17.0562 38.0061 12.7717 37.7222V57.8197C16.1992 57.6608 19.5799 58.0326 22.5554 57.8197C27.3262 57.4775 30.2097 54.5829 31.4236 50.7351C35.6144 53.4681 39.66 56.3468 43.858 59.0725C47.8891 56.5008 51.9955 53.7477 56.0029 51.313V57.8197H69.6424V51.4096C67.5214 51.3778 65.2728 51.4739 63.2323 51.3616ZM23.7116 50.7353C22.6952 51.5181 21.3855 51.4182 19.6635 51.4096V44.1807C19.6591 44.1121 19.6556 44.044 19.7115 44.0359C21.7988 43.9022 23.3028 44.1178 24.1938 45.1443C25.5286 46.6828 25.2241 49.5703 23.7116 50.7353ZM78.7511 37.7224H71.522C71.4654 37.7304 71.4696 37.7982 71.4738 37.8668V57.8199H85.113V51.4096H78.7513V37.7224H78.7511Z" fill="#003B5A"/>
</svg>
