<svg width="93" height="94" viewBox="0 0 93 94" fill="none" xmlns="http://www.w3.org/2000/svg">
<path d="M8.90766 40.2144V75.8462C8.90457 76.1648 9.00537 76.4755 9.19448 76.7304C9.38359 76.9852 9.65048 77.17 9.95391 77.2562L45.0469 87.7578V51.8909L8.90766 40.2144ZM17.8589 55.8565V48.3072C17.8604 48.0772 17.9151 47.8509 18.0188 47.6462C18.1224 47.4415 18.2721 47.2642 18.4557 47.1286C18.6394 46.9929 18.852 46.9027 19.0764 46.865C19.3008 46.8274 19.5308 46.8434 19.748 46.9119L33.4945 51.2447C33.791 51.3387 34.0499 51.5265 34.233 51.7803C34.4161 52.0341 34.5138 52.3406 34.5117 52.6547V60.1453C34.5087 60.3732 34.4535 60.5973 34.3504 60.8001C34.2473 61.0028 34.0991 61.1787 33.9175 61.3138C33.736 61.449 33.5259 61.5398 33.3037 61.5792C33.0816 61.6185 32.8534 61.6053 32.6372 61.5406L18.8906 57.2519C18.5934 57.1618 18.3327 56.9775 18.1469 56.7263C17.9612 56.4751 17.8602 56.1702 17.8589 55.8565Z" fill="#003B5A"/>
<path d="M31.6054 53.7269L20.7651 50.3047V54.7697L31.6054 58.1478V53.7269Z" fill="#003B5A"/>
<path d="M47.9531 51.8909V87.7578L83.0461 77.2562C83.3495 77.17 83.6164 76.9852 83.8055 76.7304C83.9946 76.4755 84.0954 76.1648 84.0923 75.8462V40.2291L47.9531 51.8909ZM68.4712 66.9309L77.0592 64.3753C77.4274 64.2722 77.8209 64.3197 78.1547 64.5077C78.4884 64.6956 78.7355 65.0088 78.8425 65.3795C78.9495 65.7503 78.9077 66.1486 78.7263 66.4885C78.5448 66.8283 78.2383 67.0822 77.873 67.1953C77.873 67.1953 69.0234 69.8097 68.8927 69.8097C68.5468 69.804 68.2143 69.6743 67.9543 69.4438C67.6943 69.2133 67.5238 68.8969 67.4731 68.5511C67.4225 68.2053 67.4951 67.8525 67.6779 67.5558C67.8607 67.259 68.1419 67.0376 68.4712 66.9309ZM66.1027 72.4828L77.0592 69.2075C77.4264 69.1075 77.8178 69.1569 78.1494 69.3451C78.481 69.5334 78.7263 69.8456 78.8328 70.2146C78.9393 70.5836 78.8984 70.9801 78.719 71.3191C78.5395 71.658 78.2358 71.9123 77.873 72.0275C77.8731 72.0275 66.6403 75.3616 66.5096 75.3616C66.1632 75.3557 65.8302 75.2252 65.5704 74.9935C65.3106 74.7619 65.1409 74.4442 65.0919 74.0975C65.0429 73.7509 65.1178 73.3979 65.303 73.102C65.4882 72.806 65.7717 72.5865 66.1027 72.4828Z" fill="#003B5A"/>
<path d="M82.6247 37.6147L59.6362 30.5647C57.4846 35.8759 49.5225 43.5991 49.2027 43.5188C48.4347 44.1371 47.4818 44.4737 46.5 44.4738C45.5181 44.4738 44.5653 44.1373 43.7972 43.519C43.4105 43.5345 35.5525 35.917 33.3639 30.5644L10.3753 37.6147C12.5994 38.3314 43.3554 48.264 46.5 49.2765C49.6033 48.291 80.4873 38.2971 82.6247 37.6147Z" fill="#003B5A"/>
<path d="M37.6359 32.2831C39.8406 35.64 42.5239 38.6492 45.5991 41.2131C45.8546 41.4202 46.1724 41.5331 46.5 41.5331C46.8276 41.5331 47.1453 41.4202 47.4009 41.2131C50.7963 38.8117 59.6631 28.7474 59.1564 20.8561C59.1589 19.1745 58.8334 17.5089 58.1985 15.9546C57.5635 14.4003 56.6316 12.9878 55.4561 11.7978C54.2806 10.6079 52.8845 9.66383 51.3477 9.01974C49.8108 8.37564 48.1635 8.04412 46.4998 8.04413C44.8361 8.04414 43.1887 8.37568 41.6519 9.0198C40.1151 9.66391 38.719 10.608 37.5435 11.7979C36.3679 12.9879 35.4361 14.4004 34.8012 15.9548C34.1662 17.5091 33.8407 19.1747 33.8433 20.8563C34.0009 24.9533 35.3171 28.9189 37.6359 32.2831ZM46.5 12.9103C56.1366 13.2085 56.1823 27.3483 46.4998 27.6713C36.8157 27.3476 36.8658 13.2063 46.5 12.9103Z" fill="#003B5A"/>
<path d="M46.5 24.7338C47.6577 24.7214 48.7639 24.2478 49.5782 23.4159C50.3925 22.584 50.8493 21.461 50.8493 20.2907C50.8493 19.1205 50.3925 17.9975 49.5781 17.1656C48.7638 16.3338 47.6576 15.8602 46.4999 15.8478C45.3421 15.8603 44.236 16.3338 43.4216 17.1657C42.6073 17.9976 42.1506 19.1206 42.1506 20.2909C42.1506 21.4611 42.6074 22.5841 43.4217 23.416C44.2361 24.2478 45.3422 24.7214 46.5 24.7338Z" fill="#003B5A"/>
</svg>
