<svg width="106" height="106" viewBox="0 0 106 106" fill="none" xmlns="http://www.w3.org/2000/svg">
<path d="M19.1897 78.5862V95.0345C19.1957 97.0507 20.8287 98.6836 22.8449 98.6896H33.8104C35.8266 98.6836 37.4595 97.0507 37.4656 95.0345V78.5862H19.1897ZM30.1552 91.3793H26.5C25.4907 91.3793 24.6725 90.561 24.6725 89.5517C24.6725 88.5423 25.4907 87.7241 26.5 87.7241H30.1552C31.1646 87.7241 31.9828 88.5423 31.9828 89.5517C31.9828 90.561 31.1646 91.3793 30.1552 91.3793Z" fill="#464F5D"/>
<path fill-rule="evenodd" clip-rule="evenodd" d="M44.776 71.2759L28.3277 67.6207L11.8794 71.2759L14.7012 79.7413C15.1986 81.2346 16.596 82.2418 18.1699 82.2414H38.4854C40.0607 82.2434 41.46 81.2359 41.9578 79.7413L44.776 71.2759Z" fill="#7F8284"/>
<path d="M33.8104 0H22.8449C20.8287 0.00602153 19.1957 1.63898 19.1897 3.65517V20.1034H37.4656V3.65517C37.4595 1.63898 35.8266 0.00602153 33.8104 0ZM26.5 7.31034H30.1552C31.1646 7.31034 31.9828 8.12858 31.9828 9.13793C31.9828 10.1473 31.1646 10.9655 30.1552 10.9655H26.5C25.4907 10.9655 24.6725 10.1473 24.6725 9.13793C24.6725 8.12858 25.4907 7.31034 26.5 7.31034Z" fill="#464F5D"/>
<path fill-rule="evenodd" clip-rule="evenodd" d="M44.776 27.4138L28.3277 31.0689L11.8794 27.4138L14.7012 18.9484C15.1986 17.4551 16.596 16.4479 18.1699 16.4482H38.4854C40.0607 16.4463 41.46 17.4538 41.9578 18.9484L44.776 27.4138Z" fill="#7F8284"/>
<path d="M44.7759 27.4138H11.8794C8.85132 27.4138 6.39661 29.8685 6.39661 32.8966V65.7931C6.39661 68.8212 8.85132 71.2759 11.8794 71.2759H44.7759C47.804 71.2759 50.2587 68.8212 50.2587 65.7931V32.8966C50.2587 29.8685 47.804 27.4138 44.7759 27.4138Z" fill="#003B5A"/>
<path fill-rule="evenodd" clip-rule="evenodd" d="M46.439 27.688C36.1863 28.8211 8.75419 34.8704 6.54281 67.0359C6.4481 66.6284 6.39906 66.2115 6.39661 65.7931V32.8966C6.39661 29.8685 8.85132 27.4138 11.8794 27.4138H44.7759C45.3419 27.4097 45.9044 27.5024 46.439 27.688Z" fill="#547580"/>
<path fill-rule="evenodd" clip-rule="evenodd" d="M87.6967 26.5256C87.212 26.5255 86.7473 26.3329 86.4046 25.9901C78.5475 18.1547 65.8317 18.1547 57.9747 25.9901C57.2576 26.6827 56.1177 26.6728 55.4127 25.9678C54.7078 25.2629 54.6979 24.123 55.3905 23.4059C64.6757 14.1456 79.7036 14.1456 88.9888 23.4059C89.5113 23.9286 89.6676 24.7145 89.3848 25.3973C89.102 26.0801 88.4358 26.5254 87.6967 26.5256Z" fill="#003B5A"/>
<path fill-rule="evenodd" clip-rule="evenodd" d="M92.8651 21.3553C92.3805 21.3552 91.9157 21.1626 91.573 20.8198C80.8575 10.1397 63.5218 10.1397 52.8063 20.8198C52.0927 21.5339 50.9353 21.5344 50.2212 20.8207C49.507 20.1071 49.5066 18.9497 50.2202 18.2356C62.3643 6.12816 82.015 6.12816 94.1591 18.2356C94.6818 18.7585 94.838 19.5449 94.5547 20.2279C94.2715 20.9109 93.6045 21.3559 92.8651 21.3553Z" fill="#003B5A"/>
<path fill-rule="evenodd" clip-rule="evenodd" d="M82.5283 31.6957C82.0437 31.6956 81.5789 31.503 81.2362 31.1603C76.2364 26.1727 68.143 26.1727 63.1431 31.1603C62.426 31.8529 61.2861 31.843 60.5812 31.138C59.8762 30.433 59.8663 29.2932 60.5589 28.5761C66.9874 22.1646 77.392 22.1646 83.8204 28.5761C84.343 29.0987 84.4992 29.8847 84.2164 30.5675C83.9336 31.2503 83.2674 31.6956 82.5283 31.6957Z" fill="#003B5A"/>
<path fill-rule="evenodd" clip-rule="evenodd" d="M48.4311 67.6207H95.9483C97.967 67.6207 99.6035 69.2572 99.6035 71.2759V98.6897C99.6035 102.727 96.3305 106 92.2931 106H52.0862C48.0488 106 44.7759 102.727 44.7759 98.6897V71.2759C44.7759 69.2572 46.4124 67.6207 48.4311 67.6207Z" fill="#D1D4D1"/>
<path fill-rule="evenodd" clip-rule="evenodd" d="M99.6035 45.7262V63.9656C99.5974 65.9818 97.9645 67.6147 95.9483 67.6207H48.4311C46.4149 67.6147 44.7819 65.9818 44.7759 63.9656V45.6897H79.5L99.6035 45.7262Z" fill="#A5A5A4"/>
<path fill-rule="evenodd" clip-rule="evenodd" d="M48.4312 63.9655V49.3448H79.5001L95.9484 49.3759V63.9655H48.4312Z" fill="#7F8284"/>
<path d="M72.1897 100.517C69.1616 100.517 66.7069 98.0626 66.7069 95.0345C66.7069 92.0065 69.1616 89.5518 72.1897 89.5518C75.2177 89.5518 77.6724 92.0065 77.6724 95.0345C77.6724 98.0626 75.2177 100.517 72.1897 100.517ZM72.1897 93.2069C71.1803 93.2069 70.3621 94.0252 70.3621 95.0345C70.3621 96.0439 71.1803 96.8621 72.1897 96.8621C73.199 96.8621 74.0173 96.0439 74.0173 95.0345C74.0173 94.0252 73.199 93.2069 72.1897 93.2069Z" fill="#7F8284"/>
<path fill-rule="evenodd" clip-rule="evenodd" d="M77.6724 67.6207V73.1035C77.6724 74.1128 76.8542 74.9311 75.8448 74.9311H68.5345C67.5251 74.9311 66.7069 74.1128 66.7069 73.1035V67.6207" fill="#A5A5A4"/>
<path fill-rule="evenodd" clip-rule="evenodd" d="M64.8794 45.781V67.6207H57.569V56.0155C56.7472 56.3415 55.8876 56.5625 55.0104 56.6735C54.6449 56.7283 54.2794 56.7466 53.9139 56.7648C50.6721 56.9661 47.493 55.8071 45.1415 53.5666C44.9352 53.3676 44.8058 53.1023 44.7759 52.8172V40.481C44.767 40.1499 44.9 39.8306 45.1415 39.6038C47.3624 37.5482 50.3045 36.4515 53.329 36.5517C55.9324 36.3095 58.5475 36.8708 60.8221 38.16C63.3261 39.8959 64.8372 42.7345 64.8794 45.781Z" fill="#D1D4D1"/>
<path fill-rule="evenodd" clip-rule="evenodd" d="M52.0863 49.3448C51.0769 49.3448 50.2587 48.5266 50.2587 47.5172V45.6896C50.2587 44.6803 51.0769 43.8621 52.0863 43.8621C53.0956 43.8621 53.9138 44.6803 53.9138 45.6896V47.5172C53.9138 48.5266 53.0956 49.3448 52.0863 49.3448Z" fill="#95A5A5"/>
<path fill-rule="evenodd" clip-rule="evenodd" d="M99.6035 40.481V52.8172C99.5736 53.1023 99.4442 53.3676 99.2379 53.5666C96.8863 55.8071 93.7073 56.9661 90.4655 56.7648C90.1 56.7466 89.7345 56.7283 89.369 56.6735C88.4918 56.5625 87.6322 56.3415 86.8103 56.0155V67.6207H79.5V45.781C79.5421 42.7345 81.0533 39.8959 83.5572 38.16C85.8319 36.8708 88.447 36.3095 91.0503 36.5517C94.0749 36.4515 97.017 37.5482 99.2379 39.6038C99.4794 39.8306 99.6124 40.1499 99.6035 40.481Z" fill="#D1D4D1"/>
<path fill-rule="evenodd" clip-rule="evenodd" d="M57.569 52.9999V56.0155C56.7472 56.3414 55.8875 56.5625 55.0104 56.6734C54.6449 56.7282 54.2793 56.7465 53.9138 56.7648V52.9999C53.9138 51.9906 54.7321 51.1724 55.7414 51.1724C56.7508 51.1724 57.569 51.9906 57.569 52.9999Z" fill="#BDC3C7"/>
<path fill-rule="evenodd" clip-rule="evenodd" d="M90.4656 52.9999V56.7648C90.1001 56.7465 89.7346 56.7282 89.369 56.6734C88.4919 56.5625 87.6323 56.3414 86.8104 56.0155V52.9999C86.8104 51.9906 87.6287 51.1724 88.638 51.1724C89.6474 51.1724 90.4656 51.9906 90.4656 52.9999Z" fill="#BDC3C7"/>
<path fill-rule="evenodd" clip-rule="evenodd" d="M92.2932 49.3448C91.2838 49.3448 90.4656 48.5266 90.4656 47.5172V45.6896C90.4656 44.6803 91.2838 43.8621 92.2932 43.8621C93.3025 43.8621 94.1207 44.6803 94.1207 45.6896V47.5172C94.1207 48.5266 93.3025 49.3448 92.2932 49.3448Z" fill="#95A5A5"/>
</svg>
