<svg width="100" height="100" viewBox="0 0 100 100" fill="none" xmlns="http://www.w3.org/2000/svg">
<path d="M89.0625 49.6687H10.9375C9.69471 49.6701 8.50322 50.1644 7.62444 51.0431C6.74565 51.9219 6.25136 53.1134 6.25 54.3562V60.5742C6.25136 61.8169 6.74565 63.0084 7.62444 63.8872C8.50322 64.766 9.69471 65.2603 10.9375 65.2617H71.2626L65.9546 75.8787C65.6779 76.4538 65.5868 77.1007 65.6939 77.7298C65.8009 78.3589 66.1008 78.9393 66.5521 79.3905C67.0033 79.8418 67.5837 80.1416 68.2128 80.2486C68.842 80.3556 69.4888 80.2645 70.0639 79.9878L74.083 77.9783C75.0964 77.4755 76.2124 77.2139 77.3438 77.2139C78.4751 77.2139 79.5911 77.4755 80.6045 77.9783L84.6237 79.9879C85.1988 80.2648 85.8457 80.356 86.475 80.2491C87.1042 80.1421 87.6847 79.8422 88.136 79.3908C88.5873 78.9395 88.8871 78.359 88.9941 77.7298C89.101 77.1005 89.0097 76.4536 88.7328 75.8785L83.4249 65.2616H89.0625C90.3053 65.2602 91.4968 64.7659 92.3756 63.8871C93.2543 63.0084 93.7486 61.8169 93.75 60.5741V54.3562C93.7486 53.1134 93.2543 51.9219 92.3756 51.0431C91.4968 50.1644 90.3053 49.6701 89.0625 49.6687ZM82.0023 75.1829C80.5543 74.4648 78.96 74.0912 77.3438 74.0912C75.7275 74.0912 74.1332 74.4648 72.6852 75.1829L68.7454 77.284L68.75 77.2764L77.2888 59.9775C78.8222 63.0023 84.3898 73.9751 86.0214 77.1925L82.0023 75.1829ZM90.625 60.5742C90.6247 60.9885 90.46 61.3857 90.167 61.6787C89.8741 61.9717 89.4768 62.1364 89.0625 62.1367H81.8625L80.0843 58.5798C79.8298 58.0709 79.4386 57.6429 78.9546 57.3437C78.4706 57.0446 77.9128 56.8861 77.3438 56.8861C76.7748 56.8861 76.217 57.0446 75.733 57.3437C75.2489 57.6429 74.8578 58.0709 74.6033 58.5798L72.825 62.1367H10.9375C10.5232 62.1362 10.126 61.9715 9.8331 61.6786C9.54017 61.3856 9.37541 60.9884 9.375 60.5742V54.3562C9.37541 53.9419 9.54017 53.5447 9.8331 53.2518C10.126 52.9589 10.5232 52.7941 10.9375 52.7937H89.0625C89.4768 52.794 89.8741 52.9587 90.167 53.2517C90.46 53.5446 90.6247 53.9419 90.625 54.3562V60.5742ZM12.487 35.1912L11.3815 38.5939C11.1987 39.157 11.1987 39.7635 11.3817 40.3266C11.5646 40.8897 11.9211 41.3804 12.4 41.7285C12.879 42.0766 13.4558 42.2641 14.0478 42.2643C14.6399 42.2645 15.2168 42.0773 15.696 41.7295L18.5906 39.6254L21.4859 41.7295C21.9669 42.066 22.5408 42.244 23.1277 42.2388C23.7147 42.2336 24.2853 42.0453 24.7602 41.7003C25.235 41.3553 25.5904 40.8707 25.7767 40.3141C25.963 39.7575 25.971 39.1566 25.7995 38.5952L24.6941 35.1911L27.5879 33.0885C28.067 32.7406 28.4237 32.2499 28.6068 31.6868C28.7899 31.1237 28.79 30.5171 28.6071 29.954C28.4242 29.3908 28.0677 28.9 27.5887 28.552C27.1097 28.2039 26.5328 28.0164 25.9407 28.0164H22.3626L21.2571 24.6122C21.0739 24.0492 20.7172 23.5586 20.2381 23.2108C19.759 22.863 19.1821 22.6757 18.5901 22.6759C17.998 22.6761 17.4212 22.8636 16.9423 23.2118C16.4634 23.5599 16.107 24.0507 15.9242 24.6138L14.8187 28.0165H11.2405C10.6486 28.0164 10.0718 28.2037 9.59289 28.5516C9.11395 28.8995 8.75745 29.3901 8.57449 29.953C8.39152 30.516 8.39148 31.1224 8.57438 31.6854C8.75727 32.2484 9.1137 32.739 9.59259 33.087L12.487 35.1912ZM15.052 31.1415C15.6444 31.1425 16.2218 30.9553 16.701 30.6071C17.1803 30.2588 17.5365 29.7674 17.7185 29.2036L18.5905 26.5196L19.4633 29.2051C19.6454 29.7686 20.0016 30.2597 20.4807 30.6077C20.9598 30.9556 21.5369 31.1426 22.1291 31.1415H24.9512L22.6677 32.8001C20.5686 34.2833 21.9639 36.7406 22.5221 38.6198C21.5511 38.0011 19.8324 36.3018 18.5906 36.4241C17.3575 36.2963 15.6189 38.0117 14.6598 38.6183L15.5319 35.9343C15.7156 35.3715 15.7159 34.765 15.5329 34.2021C15.3498 33.6391 14.9929 33.1488 14.5134 32.8016L12.2299 31.1415H15.052ZM37.97 32.9695L41.5794 35.5117L40.1886 39.7948C39.9906 40.4032 39.9903 41.0586 40.1879 41.6671C40.3855 42.2756 40.7707 42.8059 41.2883 43.1819C41.8059 43.5579 42.4293 43.7603 43.069 43.7601C43.7088 43.7599 44.332 43.5571 44.8494 43.1808L48.381 40.5334L52.0248 43.1808C52.5423 43.5571 53.1656 43.7599 53.8055 43.7601C54.4453 43.7603 55.0688 43.558 55.5866 43.182C56.1043 42.8061 56.4897 42.2759 56.6876 41.6674C56.8854 41.0589 56.8855 40.4034 56.6879 39.7948L55.2612 35.617L58.9049 32.9696C59.4224 32.5935 59.8074 32.0633 60.005 31.455C60.2026 30.8466 60.2026 30.1914 60.0049 29.583C59.8072 28.9747 59.422 28.4446 58.9046 28.0686C58.3871 27.6927 57.7639 27.4902 57.1242 27.4901L52.7099 27.5573L51.3183 23.2726C51.1207 22.6642 50.7355 22.1339 50.218 21.7578C49.7005 21.3817 49.0772 21.1791 48.4374 21.1791C47.7977 21.1791 47.1743 21.3817 46.6568 21.7578C46.1393 22.1339 45.7541 22.6642 45.5565 23.2726L44.2557 27.4902H39.7506C39.1155 27.4995 38.4992 27.7072 37.9881 28.0842C37.477 28.4613 37.0966 28.9888 36.9003 29.5929C36.704 30.197 36.7016 30.8473 36.8934 31.4528C37.0852 32.0583 37.4617 32.5886 37.97 32.9695ZM44.2559 30.6151C44.896 30.6164 45.5199 30.4143 46.0377 30.0381C46.5555 29.6618 46.9404 29.1307 47.1368 28.5216L48.4375 24.5192L49.7383 28.5216C49.9348 29.1308 50.3198 29.6619 50.8377 30.0382C51.3557 30.4145 51.9798 30.6165 52.6199 30.6151H56.8298L53.4241 33.0901C52.9059 33.4657 52.5202 33.996 52.3222 34.6046C52.1243 35.2132 52.1243 35.869 52.3224 36.4776L53.624 40.4799C48.0805 36.3752 48.7743 36.3989 43.2518 40.48L44.5511 36.4776C44.7506 35.8693 44.7517 35.2133 44.5541 34.6044C44.3564 33.9955 43.9704 33.4652 43.4517 33.0901L40.0452 30.6151H44.2559ZM66.3483 32.852L70.601 36.0518L68.9941 40.9956C68.7819 41.6494 68.782 42.3536 68.9945 43.0072C69.207 43.6609 69.621 44.2306 70.1771 44.6346C70.7332 45.0386 71.4029 45.2562 72.0903 45.2563C72.7776 45.2563 73.4474 45.0388 74.0035 44.6348L78.3599 41.5785L82.5652 44.6363C83.1216 45.04 83.7914 45.2573 84.4788 45.257C85.1662 45.2567 85.8358 45.039 86.3919 44.6348C86.9479 44.2307 87.3618 43.661 87.5743 43.0073C87.7867 42.3535 87.7868 41.6494 87.5746 40.9956L86.0152 35.9068L90.2206 32.8519C90.7769 32.448 91.191 31.8783 91.4036 31.2244C91.6161 30.5706 91.6161 29.8663 91.4037 29.2124C91.1912 28.5586 90.7771 27.9888 90.2208 27.5848C89.6646 27.1808 88.9946 26.9633 88.3071 26.9636L82.9864 26.8736L81.3797 21.9298C81.167 21.2764 80.7531 20.707 80.1971 20.3033C79.6411 19.8996 78.9716 19.6821 78.2844 19.6821C77.5973 19.6821 76.9278 19.8996 76.3718 20.3033C75.8158 20.707 75.4018 21.2764 75.1892 21.9298L73.4588 26.9636H68.2617C67.5791 26.9734 66.9167 27.1965 66.3673 27.6018C65.8179 28.007 65.409 28.5739 65.1981 29.2232C64.9871 29.8724 64.9846 30.5714 65.1908 31.2222C65.3971 31.8729 65.8019 32.4428 66.3483 32.852ZM68.2618 30.0886H73.4589C74.1465 30.0902 74.8169 29.8734 75.3733 29.4695C75.9298 29.0655 76.3435 28.4953 76.555 27.841L78.2853 22.8071C78.3787 22.807 78.3932 22.8489 78.4074 22.8972L80.0141 27.838C80.2248 28.4929 80.6383 29.0639 81.1948 29.4685C81.7513 29.873 82.4221 30.0902 83.1101 30.0886H88.3072L88.3835 30.3251C81.6006 35.2109 82.0104 34.0595 84.6025 41.963L84.4025 42.108L80.1971 39.0516C79.6419 38.646 78.9721 38.4273 78.2845 38.4273C77.5968 38.4273 76.927 38.646 76.3718 39.0516L72.1664 42.108L71.9665 41.963L73.5733 37.0161C73.7865 36.3629 73.7868 35.6589 73.5743 35.0054C73.3618 34.352 72.9474 33.7828 72.3907 33.38L68.1854 30.3251L68.2618 30.0886Z" fill="url(#paint0_linear_358_617)"/>
<defs>
<linearGradient id="paint0_linear_358_617" x1="8.1392" y1="21.0865" x2="69.0692" y2="98.5991" gradientUnits="userSpaceOnUse">
<stop stop-color="#0088FF"/>
<stop offset="0.25" stop-color="#FB6609"/>
<stop offset="0.5" stop-color="#FC4798"/>
<stop offset="0.75" stop-color="#5BBBA9"/>
<stop offset="1" stop-color="#8A38F5"/>
</linearGradient>
</defs>
</svg>
