<svg width="97" height="105" viewBox="0 0 97 105" fill="none" xmlns="http://www.w3.org/2000/svg">
<path d="M4.5 80L21.5563 40.5678C23.5522 36.5848 25.548 33.0001 33.5313 33H64.6662C68.2587 33 71.8512 33.7966 74.2462 40.5678L92.5 80" stroke="black" stroke-opacity="0.8" stroke-width="2"/>
<rect x="1" y="75" width="95" height="29" rx="14.5" stroke="black" stroke-opacity="0.8" stroke-width="2"/>
<path d="M21 83C23.3109 83 25 84.6635 25 86.5C25 88.3365 23.3109 90 21 90C18.6891 90 17 88.3365 17 86.5C17 84.6635 18.6891 83 21 83Z" stroke="black" stroke-opacity="0.8" stroke-width="2"/>
<rect x="41.5" y="85.5" width="34" height="1" stroke="black" stroke-opacity="0.8"/>
<rect x="41.5" y="92.5" width="34" height="1" stroke="black" stroke-opacity="0.8"/>
<path d="M66.9223 33.9139L74.7509 41.8608C74.5897 42.5749 74.4976 43.335 74.4976 44.0952C74.4976 49.5774 78.8724 54 84.2603 54C85.4116 54 86.5398 53.7927 87.5529 53.4242L87.4378 53.332L81.1289 46.9515L81.6354 41.4692L87.5759 41.1237L93.3552 47.2279L93.4704 47.32C93.8158 46.3065 94 45.2239 94 44.0952C94 38.6129 89.6252 34.1903 84.2373 34.1903C83.4774 34.1903 82.7176 34.2824 82.0038 34.4436L61.5575 13.6664C61.6496 13.1596 61.6726 12.6298 61.6726 12.077C61.6726 6.59477 57.2978 2.17212 51.9099 2.17212C50.7587 2.17212 49.6304 2.37943 48.6173 2.74798L48.7325 2.84012L55.0414 9.22072L54.5348 14.703L48.5943 15.0485L42.815 8.9443L42.6999 8.85216C42.3545 9.86569 42.1703 10.9483 42.1703 12.077C42.1703 17.5593 46.5451 21.9819 51.933 21.9819C52.923 21.9819 53.8671 21.8207 54.7651 21.5442L66.9223 33.9139Z" fill="#D9D9D9" stroke="black" stroke-opacity="0.8" stroke-width="2" stroke-miterlimit="10" stroke-linecap="round" stroke-linejoin="round"/>
<path d="M86.4675 1.58594C82.5062 0.224458 78.1326 1.27888 75.197 4.2998H75.196C72.7284 6.84325 71.5917 10.4083 72.1091 13.9199L53.5447 32.7178C50.1914 32.1828 46.7756 33.2536 44.3035 35.6309L44.0544 35.8779L44.0408 35.8926C39.8427 40.3719 40.0144 47.4547 44.4187 51.7139L44.4177 51.7148C48.6788 55.8432 55.393 55.8432 59.6541 51.7148C59.659 51.71 59.6639 51.7051 59.6687 51.7002C62.1758 49.1673 63.312 45.5833 62.7673 42.0674L81.2625 23.2705C87.0211 24.1975 92.5349 20.3747 93.74 14.5391V14.5371C94.1368 12.5999 94.0223 10.5884 93.406 8.70898L93.3572 8.58789C93.2265 8.31521 92.9778 8.11341 92.6785 8.04492C92.3366 7.96672 91.9785 8.07364 91.7351 8.32617L85.0154 15.3027L80.9919 14.333L80.0896 10.2295L86.8621 3.22656C87.0994 2.98089 87.1946 2.63102 87.115 2.29883C87.0352 1.96634 86.7909 1.69711 86.4675 1.58594ZM50.3503 38.001L50.4753 38.0195L55.821 39.1533C56.1631 39.2259 56.4386 39.4703 56.5544 39.793L56.5945 39.9355L57.6707 45.3291C57.7355 45.654 57.6354 45.9904 57.4031 46.2266L53.9822 49.7031C53.7378 49.9514 53.382 50.0546 53.0427 49.9756L47.8494 48.7656C47.4783 48.679 47.1885 48.3887 47.1023 48.0176L45.8689 42.7012C45.7915 42.3675 45.8902 42.0165 46.1306 41.7725L49.5554 38.2959C49.7649 38.0833 50.0571 37.9768 50.3503 38.001Z" fill="#D9D9D9"/>
<path d="M86.4675 1.58594L86.7926 0.640234L86.7927 0.640267L86.4675 1.58594ZM75.197 4.2998L75.9142 4.99671C75.7259 5.19048 75.4672 5.2998 75.197 5.2998V4.2998ZM75.196 4.2998L74.4783 3.60347C74.6667 3.40936 74.9256 3.2998 75.196 3.2998V4.2998ZM72.1091 13.9199L73.0984 13.7742C73.1442 14.0849 73.0414 14.3991 72.8206 14.6226L72.1091 13.9199ZM53.5447 32.7178L54.2562 33.4204C54.0294 33.6501 53.7058 33.7561 53.3871 33.7053L53.5447 32.7178ZM44.3035 35.6309L43.5991 34.921C43.6028 34.9173 43.6066 34.9137 43.6103 34.9101L44.3035 35.6309ZM44.0544 35.8779L43.3234 35.1956C43.3321 35.1863 43.341 35.1771 43.3501 35.168L44.0544 35.8779ZM44.0408 35.8926L44.7718 36.5749L44.7704 36.5764L44.0408 35.8926ZM44.4187 51.7139L45.1139 50.995C45.3066 51.1814 45.4164 51.4374 45.4187 51.7055C45.4209 51.9736 45.3154 52.2314 45.1258 52.421L44.4187 51.7139ZM44.4177 51.7148L43.7219 52.4331C43.5294 52.2466 43.4199 51.9907 43.4178 51.7228C43.4156 51.4548 43.5211 51.1972 43.7106 51.0077L44.4177 51.7148ZM59.6541 51.7148L60.35 52.433L60.3499 52.433L59.6541 51.7148ZM59.6687 51.7002L58.9579 50.9968L58.958 50.9967L59.6687 51.7002ZM62.7673 42.0674L61.7791 42.2205C61.7307 41.9081 61.8329 41.5913 62.0545 41.366L62.7673 42.0674ZM81.2625 23.2705L80.5496 22.5691C80.7768 22.3383 81.1017 22.2317 81.4214 22.2832L81.2625 23.2705ZM93.74 14.5391H94.74C94.74 14.607 94.7331 14.6748 94.7193 14.7413L93.74 14.5391ZM93.74 14.5371H92.74C92.74 14.4697 92.7468 14.4025 92.7603 14.3364L93.74 14.5371ZM93.406 8.70898L94.3334 8.33502C94.3417 8.35555 94.3493 8.37636 94.3562 8.3974L93.406 8.70898ZM93.3572 8.58789L94.259 8.15574C94.2681 8.17485 94.2767 8.19426 94.2846 8.21392L93.3572 8.58789ZM92.6785 8.04492L92.9015 7.0701L92.9015 7.07012L92.6785 8.04492ZM91.7351 8.32617L91.0149 7.63245L91.015 7.63228L91.7351 8.32617ZM85.0154 15.3027L85.7356 15.9965C85.4894 16.2521 85.1261 16.3581 84.7811 16.2749L85.0154 15.3027ZM80.9919 14.333L80.7576 15.3052C80.3857 15.2155 80.0975 14.9215 80.0153 14.5478L80.9919 14.333ZM80.0896 10.2295L79.1129 10.4443C79.0409 10.1169 79.1378 9.77525 79.3708 9.53431L80.0896 10.2295ZM86.8621 3.22656L87.5813 3.92133L87.5809 3.92174L86.8621 3.22656ZM87.115 2.29883L88.0874 2.06549L88.0875 2.0659L87.115 2.29883ZM50.3503 38.001L50.4325 37.0044C50.4542 37.0061 50.4757 37.0086 50.4972 37.0118L50.3503 38.001ZM50.4753 38.0195L50.6222 37.0304C50.6425 37.0334 50.6627 37.037 50.6828 37.0413L50.4753 38.0195ZM55.821 39.1533L56.0285 38.1751L56.0287 38.1751L55.821 39.1533ZM56.5544 39.793L57.4956 39.455C57.5036 39.4772 57.5108 39.4998 57.5172 39.5226L56.5544 39.793ZM56.5945 39.9355L57.5572 39.6652C57.5642 39.6898 57.5701 39.7148 57.5752 39.7399L56.5945 39.9355ZM57.6707 45.3291L56.69 45.5248L56.69 45.5248L57.6707 45.3291ZM57.4031 46.2266L58.116 46.9279L58.1159 46.9279L57.4031 46.2266ZM53.9822 49.7031L54.695 50.4045L54.6949 50.4046L53.9822 49.7031ZM53.0427 49.9756L52.8159 50.9495L52.8158 50.9495L53.0427 49.9756ZM47.8494 48.7656L47.6225 49.7395L47.6221 49.7395L47.8494 48.7656ZM47.1023 48.0176L46.1282 48.2437L46.1282 48.2436L47.1023 48.0176ZM45.8689 42.7012L46.843 42.4751L46.843 42.4752L45.8689 42.7012ZM46.1306 41.7725L45.4182 41.0707L45.4182 41.0707L46.1306 41.7725ZM49.5554 38.2959L48.843 37.5941L48.8431 37.594L49.5554 38.2959ZM86.4675 1.58594L86.1425 2.53164C82.5505 1.29709 78.5821 2.25123 75.9142 4.99671L75.197 4.2998L74.4799 3.6029C77.6831 0.306535 82.4619 -0.848172 86.7926 0.640235L86.4675 1.58594ZM75.197 4.2998V5.2998H75.196V4.2998V3.2998H75.197V4.2998ZM75.196 4.2998L75.9138 4.99614C73.6647 7.31426 72.6259 10.5673 73.0984 13.7742L72.1091 13.9199L71.1198 14.0657C70.5575 10.2494 71.7921 6.37224 74.4783 3.60347L75.196 4.2998ZM72.1091 13.9199L72.8206 14.6226L54.2562 33.4204L53.5447 32.7178L52.8332 32.0151L71.3976 13.2172L72.1091 13.9199ZM53.5447 32.7178L53.3871 33.7053C50.3452 33.22 47.2439 34.1906 44.9966 36.3517L44.3035 35.6309L43.6103 34.9101C46.3073 32.3166 50.0376 31.1456 53.7022 31.7303L53.5447 32.7178ZM44.3035 35.6309L45.0078 36.3407L44.7588 36.5878L44.0544 35.8779L43.3501 35.168L43.5991 34.921L44.3035 35.6309ZM44.0544 35.8779L44.7855 36.5602L44.7718 36.5749L44.0408 35.8926L43.3097 35.2103L43.3234 35.1956L44.0544 35.8779ZM44.0408 35.8926L44.7704 36.5764C40.9451 40.658 41.1029 47.1163 45.1139 50.995L44.4187 51.7139L43.7235 52.4327C38.9258 47.7931 38.7403 40.0858 43.3111 35.2087L44.0408 35.8926ZM44.4187 51.7139L45.1258 52.421L45.1248 52.422L44.4177 51.7148L43.7106 51.0077L43.7116 51.0068L44.4187 51.7139ZM44.4177 51.7148L45.1136 50.9966C48.9869 54.7493 55.0849 54.7493 58.9582 50.9966L59.6541 51.7148L60.3499 52.433C55.701 56.9372 48.3708 56.9371 43.7219 52.4331L44.4177 51.7148ZM59.6541 51.7148L58.9581 50.9967L58.9579 50.9968L59.6687 51.7002L60.3795 52.4036C60.3785 52.4046 60.3782 52.4049 60.3763 52.4068C60.3749 52.4083 60.3727 52.4104 60.3704 52.4128C60.3657 52.4175 60.3585 52.4247 60.35 52.433L59.6541 51.7148ZM59.6687 51.7002L58.958 50.9967C61.2387 48.6926 62.276 45.4278 61.7791 42.2205L62.7673 42.0674L63.7555 41.9143C64.348 45.7388 63.113 49.6419 60.3794 52.4037L59.6687 51.7002ZM62.7673 42.0674L62.0545 41.366L80.5496 22.5691L81.2625 23.2705L81.9753 23.9719L63.4801 42.7687L62.7673 42.0674ZM81.2625 23.2705L81.4214 22.2832C86.6418 23.1236 91.6618 19.6583 92.7607 14.3368L93.74 14.5391L94.7193 14.7413C93.4081 21.0912 87.4005 25.2715 81.1035 24.2578L81.2625 23.2705ZM93.74 14.5391H92.74V14.5371H93.74H94.74V14.5391H93.74ZM93.74 14.5371L92.7603 14.3364C93.1223 12.5693 93.0177 10.7343 92.4558 9.02057L93.406 8.70898L94.3562 8.3974C95.0268 10.4424 95.1513 12.6305 94.7197 14.7378L93.74 14.5371ZM93.406 8.70898L92.4786 9.08295L92.4297 8.96186L93.3572 8.58789L94.2846 8.21392L94.3334 8.33502L93.406 8.70898ZM93.3572 8.58789L92.4554 9.02005L92.4554 9.01972L92.6785 8.04492L92.9015 7.07012C93.501 7.2073 93.998 7.61106 94.259 8.15574L93.3572 8.58789ZM92.6785 8.04492L92.4555 9.01974L92.4552 9.02006L91.7351 8.32617L91.015 7.63228C91.5014 7.12759 92.2172 6.91358 92.9015 7.0701L92.6785 8.04492ZM91.7351 8.32617L92.4553 9.0199L85.7356 15.9965L85.0154 15.3027L84.2951 14.609L91.0149 7.63245L91.7351 8.32617ZM85.0154 15.3027L84.7811 16.2749L80.7576 15.3052L80.9919 14.333L81.2263 13.3608L85.2497 14.3306L85.0154 15.3027ZM80.9919 14.333L80.0153 14.5478L79.1129 10.4443L80.0896 10.2295L81.0663 10.0147L81.9686 14.1182L80.9919 14.333ZM80.0896 10.2295L79.3708 9.53431L86.1432 2.53138L86.8621 3.22656L87.5809 3.92174L80.8084 10.9247L80.0896 10.2295ZM86.8621 3.22656L86.1428 2.53179L86.1425 2.53176L87.115 2.29883L88.0875 2.0659C88.2464 2.72955 88.0565 3.42943 87.5813 3.92133L86.8621 3.22656ZM87.115 2.29883L86.1426 2.53217L86.1424 2.53161L86.4675 1.58594L86.7927 0.640267C87.4399 0.862779 87.9279 1.40103 88.0874 2.06549L87.115 2.29883ZM50.3503 38.001L50.4972 37.0118L50.6222 37.0304L50.4753 38.0195L50.3285 39.0087L50.2035 38.9901L50.3503 38.001ZM50.4753 38.0195L50.6828 37.0413L56.0285 38.1751L55.821 39.1533L55.6136 40.1316L50.2679 38.9978L50.4753 38.0195ZM55.821 39.1533L56.0287 38.1751C56.7126 38.3203 57.2636 38.8091 57.4956 39.455L56.5544 39.793L55.6133 40.131L55.6134 40.1315L55.821 39.1533ZM56.5544 39.793L57.5172 39.5226L57.5572 39.6652L56.5945 39.9355L55.6317 40.2059L55.5917 40.0633L56.5544 39.793ZM56.5945 39.9355L57.5752 39.7399L58.6513 45.1334L57.6707 45.3291L56.69 45.5248L55.6138 40.1312L56.5945 39.9355ZM57.6707 45.3291L58.6513 45.1334C58.7809 45.7825 58.5812 46.455 58.116 46.9279L57.4031 46.2266L56.6902 45.5253L56.69 45.5248L57.6707 45.3291ZM57.4031 46.2266L58.1159 46.9279L54.695 50.4045L53.9822 49.7031L53.2694 49.0017L56.6903 45.5252L57.4031 46.2266ZM53.9822 49.7031L54.6949 50.4046C54.2062 50.9011 53.4944 51.1075 52.8159 50.9495L53.0427 49.9756L53.2695 49.0017L53.2695 49.0017L53.9822 49.7031ZM53.0427 49.9756L52.8158 50.9495L47.6225 49.7395L47.8494 48.7656L48.0763 47.7917L53.2696 49.0017L53.0427 49.9756ZM47.8494 48.7656L47.6221 49.7395C46.8798 49.5663 46.3005 48.9858 46.1282 48.2437L47.1023 48.0176L48.0764 47.7914L48.0766 47.7918L47.8494 48.7656ZM47.1023 48.0176L46.1282 48.2436L44.8948 42.9272L45.8689 42.7012L46.843 42.4752L48.0764 47.7916L47.1023 48.0176ZM45.8689 42.7012L44.8948 42.9272C44.74 42.2604 44.9371 41.5591 45.4182 41.0707L46.1306 41.7725L46.843 42.4742L46.843 42.4751L45.8689 42.7012ZM46.1306 41.7725L45.4182 41.0707L48.843 37.5941L49.5554 38.2959L50.2678 38.9977L46.843 42.4742L46.1306 41.7725ZM49.5554 38.2959L48.8431 37.594C49.2623 37.1686 49.8462 36.956 50.4325 37.0044L50.3503 38.001L50.2681 38.9976L50.2677 38.9978L49.5554 38.2959Z" fill="black" fill-opacity="0.8"/>
</svg>
