<svg width="97" height="96" viewBox="0 0 97 96" fill="none" xmlns="http://www.w3.org/2000/svg">
<g clip-path="url(#clip0_574_119)">
<path d="M48.3909 96C47.9138 96 47.4386 95.9916 46.9642 95.9778L56.774 69.0182H70.274C72.6435 69.0182 75.2446 67.1967 76.0551 64.9711L86.6973 35.7387C88.4386 30.9527 85.6973 27.0371 80.6046 27.0371H61.8758L46.162 70.2184H46.156L37.2471 94.6969C16.1118 89.6724 0.390869 70.6729 0.390869 48C0.390869 25.9811 15.2175 7.42667 35.4315 1.772L26.2393 27.0371H26.2366L10.9553 69.0182L21.128 69.0191L34.1235 33.3458H41.7691L28.7735 69.0191L38.9424 69.0209L51.0531 35.7387C52.7953 30.9527 50.0538 27.0371 44.9658 27.0371H36.4146L46.2331 0.0504444C46.9486 0.0186667 47.6673 0 48.3904 0C74.9002 0 96.3904 21.4902 96.3904 48C96.3904 74.5096 74.9002 96 48.3904 96H48.3909ZM77.4335 33.32H69.7902L59.0864 62.6884H66.73L77.4335 33.32Z" fill="#003B5A"/>
</g>
<defs>
<clipPath id="clip0_574_119">
<rect width="96" height="96" fill="white" transform="translate(0.390625)"/>
</clipPath>
</defs>
</svg>
