<svg width="102" height="138" viewBox="0 0 102 138" fill="none" xmlns="http://www.w3.org/2000/svg">
<rect x="1" y="1" width="100" height="136" rx="9" stroke="black" stroke-opacity="0.8" stroke-width="2"/>
<rect x="45" y="9" width="12" height="1" fill="black" fill-opacity="0.8"/>
<rect x="45.25" y="9.25" width="11.5" height="0.5" stroke="black" stroke-opacity="0.8" stroke-width="0.5"/>
<rect y="117" width="102" height="1" fill="black" fill-opacity="0.8"/>
<rect x="0.25" y="117.25" width="101.5" height="0.5" stroke="black" stroke-opacity="0.8" stroke-width="0.5"/>
<circle cx="51" cy="127" r="4" stroke="black" stroke-opacity="0.8" stroke-width="2"/>
<path d="M49.9224 71.9139L57.751 79.8608C57.5898 80.5749 57.4977 81.335 57.4977 82.0952C57.4977 87.5774 61.8725 92.0001 67.2604 92.0001C68.4116 92.0001 69.5399 91.7927 70.553 91.4242L70.4378 91.3321L64.1289 84.9515L64.6355 79.4692L70.576 79.1237L76.3553 85.2279L76.4704 85.32C76.8158 84.3065 77 83.2239 77 82.0952C77 76.6129 72.6252 72.1903 67.2373 72.1903C66.4775 72.1903 65.7177 72.2824 65.0039 72.4436L44.5575 51.6664C44.6496 51.1596 44.6727 50.6298 44.6727 50.077C44.6727 44.5948 40.2979 40.1721 34.91 40.1721C33.7587 40.1721 32.6305 40.3794 31.6174 40.748L31.7325 40.8401L38.0414 47.2207L37.5349 52.703L31.5944 53.0485L25.8151 46.9443L25.6999 46.8522C25.3546 47.8657 25.1703 48.9483 25.1703 50.077C25.1703 55.5593 29.5451 59.9819 34.933 59.9819C35.9231 59.9819 36.8671 59.8207 37.7651 59.5442L49.9224 71.9139Z" fill="#D9D9D9" stroke="black" stroke-opacity="0.8" stroke-width="2" stroke-miterlimit="10" stroke-linecap="round" stroke-linejoin="round"/>
<path d="M69.4675 39.5859C65.5062 38.2245 61.1326 39.2789 58.197 42.2998H58.196C55.7284 44.8433 54.5917 48.4083 55.1091 51.9199L36.5447 70.7178C33.1914 70.1828 29.7756 71.2536 27.3035 73.6309L27.0544 73.8779L27.0408 73.8926C22.8427 78.3719 23.0144 85.4547 27.4187 89.7139L27.4177 89.7148C31.6788 93.8432 38.393 93.8432 42.6541 89.7148C42.659 89.71 42.6638 89.7051 42.6687 89.7002C45.1758 87.1672 46.312 83.5833 45.7673 80.0674L64.2625 61.2705C70.0211 62.1975 75.5349 58.3747 76.74 52.5391V52.5371C77.1368 50.5999 77.0223 48.5884 76.406 46.709L76.3572 46.5879C76.2265 46.3152 75.9778 46.1134 75.6785 46.0449C75.3366 45.9667 74.9785 46.0736 74.7351 46.3262L68.0154 53.3027L63.9919 52.333L63.0896 48.2295L69.8621 41.2266C70.0994 40.9809 70.1946 40.631 70.115 40.2988C70.0352 39.9663 69.7909 39.6971 69.4675 39.5859ZM38.614 78.1309L39.6902 83.5254L36.2693 87.002L31.0769 85.791L29.8425 80.4746L33.2683 76.998L38.614 78.1309Z" fill="#D9D9D9"/>
<path d="M69.4675 39.5859L69.7926 38.6402L69.7927 38.6403L69.4675 39.5859ZM58.197 42.2998L58.9142 42.9967C58.7259 43.1905 58.4672 43.2998 58.197 43.2998V42.2998ZM58.196 42.2998L57.4783 41.6035C57.6667 41.4094 57.9256 41.2998 58.196 41.2998V42.2998ZM55.1091 51.9199L56.0984 51.7742C56.1442 52.0849 56.0414 52.3991 55.8206 52.6226L55.1091 51.9199ZM36.5447 70.7178L37.2562 71.4204C37.0294 71.6501 36.7058 71.7561 36.3871 71.7053L36.5447 70.7178ZM27.3035 73.6309L26.5991 72.921C26.6028 72.9173 26.6066 72.9137 26.6103 72.9101L27.3035 73.6309ZM27.0544 73.8779L26.3234 73.1956C26.3321 73.1863 26.341 73.1771 26.3501 73.168L27.0544 73.8779ZM27.0408 73.8926L27.7718 74.5749L27.7704 74.5764L27.0408 73.8926ZM27.4187 89.7139L28.1139 88.995C28.3066 89.1814 28.4164 89.4374 28.4187 89.7055C28.4209 89.9736 28.3154 90.2314 28.1258 90.421L27.4187 89.7139ZM27.4177 89.7148L26.7219 90.4331C26.5294 90.2466 26.4199 89.9907 26.4178 89.7228C26.4156 89.4548 26.5211 89.1972 26.7106 89.0077L27.4177 89.7148ZM42.6541 89.7148L43.35 90.433L43.3499 90.433L42.6541 89.7148ZM42.6687 89.7002L43.3794 90.4037L43.3792 90.4039L42.6687 89.7002ZM45.7673 80.0674L44.7791 80.2205C44.7307 79.9081 44.8329 79.5913 45.0545 79.366L45.7673 80.0674ZM64.2625 61.2705L63.5496 60.5691C63.7768 60.3383 64.1017 60.2317 64.4214 60.2832L64.2625 61.2705ZM76.74 52.5391H77.74C77.74 52.607 77.7331 52.6748 77.7193 52.7413L76.74 52.5391ZM76.74 52.5371H75.74C75.74 52.4697 75.7468 52.4025 75.7603 52.3364L76.74 52.5371ZM76.406 46.709L77.3334 46.335C77.3417 46.3556 77.3493 46.3764 77.3562 46.3974L76.406 46.709ZM76.3572 46.5879L77.259 46.1557C77.2681 46.1749 77.2767 46.1943 77.2846 46.2139L76.3572 46.5879ZM75.6785 46.0449L75.9015 45.0701L75.9015 45.0701L75.6785 46.0449ZM74.7351 46.3262L74.0149 45.6324L74.015 45.6323L74.7351 46.3262ZM68.0154 53.3027L68.7356 53.9965C68.4894 54.2521 68.1261 54.3581 67.7811 54.2749L68.0154 53.3027ZM63.9919 52.333L63.7576 53.3052C63.3857 53.2155 63.0975 52.9215 63.0153 52.5478L63.9919 52.333ZM63.0896 48.2295L62.1129 48.4443C62.0409 48.1169 62.1378 47.7753 62.3708 47.5343L63.0896 48.2295ZM69.8621 41.2266L70.5813 41.9213L70.5809 41.9217L69.8621 41.2266ZM70.115 40.2988L71.0874 40.0655L71.0875 40.0659L70.115 40.2988ZM38.614 78.1309L38.8213 77.1526C39.2124 77.2355 39.5165 77.5432 39.5947 77.9352L38.614 78.1309ZM39.6902 83.5254L40.6709 83.3298C40.7357 83.6547 40.6354 83.9906 40.403 84.2268L39.6902 83.5254ZM36.2693 87.002L36.9821 87.7033C36.7377 87.9517 36.3815 88.055 36.0422 87.9758L36.2693 87.002ZM31.0769 85.791L30.8498 86.7649C30.4787 86.6783 30.189 86.3884 30.1028 86.0172L31.0769 85.791ZM29.8425 80.4746L28.8684 80.7008C28.7909 80.367 28.8897 80.0168 29.1302 79.7727L29.8425 80.4746ZM33.2683 76.998L32.556 76.2962C32.7954 76.0533 33.142 75.9491 33.4756 76.0198L33.2683 76.998ZM69.4675 39.5859L69.1425 40.5316C65.5505 39.2971 61.5821 40.2512 58.9142 42.9967L58.197 42.2998L57.4799 41.6029C60.6831 38.3065 65.4619 37.1518 69.7926 38.6402L69.4675 39.5859ZM58.197 42.2998V43.2998H58.196V42.2998V41.2998H58.197V42.2998ZM58.196 42.2998L58.9138 42.9961C56.6647 45.3143 55.6259 48.5673 56.0984 51.7742L55.1091 51.9199L54.1198 52.0657C53.5575 48.2494 54.7921 44.3722 57.4783 41.6035L58.196 42.2998ZM55.1091 51.9199L55.8206 52.6226L37.2562 71.4204L36.5447 70.7178L35.8332 70.0151L54.3976 51.2172L55.1091 51.9199ZM36.5447 70.7178L36.3871 71.7053C33.3452 71.22 30.2439 72.1906 27.9966 74.3517L27.3035 73.6309L26.6103 72.9101C29.3073 70.3166 33.0376 69.1456 36.7022 69.7303L36.5447 70.7178ZM27.3035 73.6309L28.0078 74.3407L27.7588 74.5878L27.0544 73.8779L26.3501 73.168L26.5991 72.921L27.3035 73.6309ZM27.0544 73.8779L27.7855 74.5602L27.7718 74.5749L27.0408 73.8926L26.3097 73.2103L26.3234 73.1956L27.0544 73.8779ZM27.0408 73.8926L27.7704 74.5764C23.9451 78.658 24.1029 85.1163 28.1139 88.995L27.4187 89.7139L26.7235 90.4327C21.9258 85.7931 21.7403 78.0858 26.3111 73.2087L27.0408 73.8926ZM27.4187 89.7139L28.1258 90.421L28.1248 90.422L27.4177 89.7148L26.7106 89.0077L26.7116 89.0068L27.4187 89.7139ZM27.4177 89.7148L28.1136 88.9966C31.9869 92.7493 38.0849 92.7493 41.9582 88.9966L42.6541 89.7148L43.3499 90.433C38.701 94.9372 31.3708 94.9371 26.7219 90.4331L27.4177 89.7148ZM42.6541 89.7148L41.9581 88.9967L41.9582 88.9965L42.6687 89.7002L43.3792 90.4039C43.3785 90.4046 43.378 90.4051 43.3763 90.4069C43.3749 90.4083 43.3728 90.4104 43.3704 90.4127C43.3658 90.4174 43.3586 90.4246 43.35 90.433L42.6541 89.7148ZM42.6687 89.7002L41.958 88.9967C44.2387 86.6925 45.276 83.4278 44.7791 80.2205L45.7673 80.0674L46.7555 79.9143C47.348 83.7388 46.113 87.6419 43.3794 90.4037L42.6687 89.7002ZM45.7673 80.0674L45.0545 79.366L63.5496 60.5691L64.2625 61.2705L64.9753 61.9719L46.4801 80.7687L45.7673 80.0674ZM64.2625 61.2705L64.4214 60.2832C69.6418 61.1236 74.6618 57.6583 75.7607 52.3368L76.74 52.5391L77.7193 52.7413C76.4081 59.0912 70.4005 63.2715 64.1035 62.2578L64.2625 61.2705ZM76.74 52.5391H75.74V52.5371H76.74H77.74V52.5391H76.74ZM76.74 52.5371L75.7603 52.3364C76.1223 50.5693 76.0177 48.7343 75.4558 47.0206L76.406 46.709L77.3562 46.3974C78.0268 48.4424 78.1513 50.6305 77.7197 52.7378L76.74 52.5371ZM76.406 46.709L75.4786 47.083L75.4297 46.9619L76.3572 46.5879L77.2846 46.2139L77.3334 46.335L76.406 46.709ZM76.3572 46.5879L75.4554 47.02L75.4554 47.0197L75.6785 46.0449L75.9015 45.0701C76.501 45.2073 76.998 45.6111 77.259 46.1557L76.3572 46.5879ZM75.6785 46.0449L75.4555 47.0197L75.4552 47.0201L74.7351 46.3262L74.015 45.6323C74.5014 45.1276 75.2172 44.9136 75.9015 45.0701L75.6785 46.0449ZM74.7351 46.3262L75.4553 47.0199L68.7356 53.9965L68.0154 53.3027L67.2951 52.609L74.0149 45.6324L74.7351 46.3262ZM68.0154 53.3027L67.7811 54.2749L63.7576 53.3052L63.9919 52.333L64.2263 51.3608L68.2497 52.3306L68.0154 53.3027ZM63.9919 52.333L63.0153 52.5478L62.1129 48.4443L63.0896 48.2295L64.0663 48.0147L64.9686 52.1182L63.9919 52.333ZM63.0896 48.2295L62.3708 47.5343L69.1432 40.5314L69.8621 41.2266L70.5809 41.9217L63.8084 48.9247L63.0896 48.2295ZM69.8621 41.2266L69.1428 40.5318L69.1425 40.5318L70.115 40.2988L71.0875 40.0659C71.2464 40.7296 71.0565 41.4294 70.5813 41.9213L69.8621 41.2266ZM70.115 40.2988L69.1426 40.5322L69.1424 40.5316L69.4675 39.5859L69.7927 38.6403C70.4399 38.8628 70.9279 39.401 71.0874 40.0655L70.115 40.2988ZM38.614 78.1309L39.5947 77.9352L40.6709 83.3298L39.6902 83.5254L38.7095 83.721L37.6333 78.3265L38.614 78.1309ZM39.6902 83.5254L40.403 84.2268L36.9821 87.7033L36.2693 87.002L35.5565 86.3006L38.9774 82.824L39.6902 83.5254ZM36.2693 87.002L36.0422 87.9758L30.8498 86.7649L31.0769 85.791L31.304 84.8172L36.4964 86.0281L36.2693 87.002ZM31.0769 85.791L30.1028 86.0172L28.8684 80.7008L29.8425 80.4746L30.8166 80.2484L32.051 85.5648L31.0769 85.791ZM29.8425 80.4746L29.1302 79.7727L32.556 76.2962L33.2683 76.998L33.9806 77.6999L30.5548 81.1765L29.8425 80.4746ZM33.2683 76.998L33.4756 76.0198L38.8213 77.1526L38.614 78.1309L38.4067 79.1091L33.061 77.9763L33.2683 76.998Z" fill="black" fill-opacity="0.8"/>
</svg>
