<svg width="72" height="124" viewBox="0 0 72 124" fill="none" xmlns="http://www.w3.org/2000/svg">
<rect x="1" y="1" width="70" height="122" rx="9" stroke="black" stroke-opacity="0.8" stroke-width="2"/>
<rect x="30" y="9" width="12" height="1" fill="black" fill-opacity="0.8"/>
<rect x="30.25" y="9.25" width="11.5" height="0.5" stroke="black" stroke-opacity="0.8" stroke-width="0.5"/>
<rect x="32" y="12" width="8" height="1" fill="black" fill-opacity="0.8"/>
<rect x="32.25" y="12.25" width="7.5" height="0.5" stroke="black" stroke-opacity="0.8" stroke-width="0.5"/>
<circle cx="36" cy="112" r="4" stroke="black" stroke-opacity="0.8" stroke-width="2"/>
<path d="M35.1296 64.7765L41.4527 71.1952C41.3225 71.7719 41.2481 72.3859 41.2481 72.9998C41.2481 77.4278 44.7816 80.9999 49.1334 80.9999C50.0632 80.9999 50.9745 80.8325 51.7928 80.5348L51.6998 80.4604L46.6041 75.3068L47.0133 70.8789L51.8114 70.5998L56.4793 75.5301L56.5723 75.6045C56.8512 74.7859 57 73.9115 57 72.9998C57 68.5719 53.4665 64.9997 49.1148 64.9997C48.501 64.9997 47.8873 65.0741 47.3108 65.2044L30.7965 48.4228C30.8709 48.0135 30.8895 47.5855 30.8895 47.139C30.8895 42.7111 27.356 39.1389 23.0042 39.1389C22.0743 39.1389 21.1631 39.3064 20.3448 39.604L20.4378 39.6785L25.5334 44.832L25.1243 49.26L20.3262 49.5391L15.6583 44.6088L15.5653 44.5343C15.2864 45.353 15.1376 46.2274 15.1376 47.139C15.1376 51.567 18.6711 55.1391 23.0228 55.1391C23.8225 55.1391 24.585 55.0089 25.3103 54.7856L35.1296 64.7765Z" fill="#D9D9D9" stroke="black" stroke-opacity="0.8" stroke-width="2" stroke-miterlimit="10" stroke-linecap="round" stroke-linejoin="round"/>
<path d="M50.979 38.4832C47.7086 37.3591 44.0979 38.2306 41.6753 40.7234H41.6743C39.6616 42.7979 38.7225 45.6962 39.1147 48.5603L24.2563 63.6052C21.52 63.1999 18.7437 64.087 16.728 66.0251L16.522 66.2283L16.5083 66.2429C13.0459 69.9373 13.1868 75.7785 16.8198 79.2917C20.336 82.6982 25.8769 82.6992 29.3931 79.2927C29.398 79.2879 29.4029 79.282 29.4077 79.2771C31.4533 77.2102 32.3932 74.2959 31.979 71.4275L46.7808 56.3835C51.4991 57.0897 55.991 53.9454 56.978 49.1667L56.979 49.1648C57.3062 47.5673 57.211 45.9081 56.7026 44.3582C56.5933 44.0252 56.3176 43.7734 55.9761 43.6951C55.6343 43.6169 55.2761 43.7239 55.0327 43.9763L49.6812 49.531L46.6558 48.8025L45.9751 45.7058L51.3726 40.1248C51.6101 39.879 51.7062 39.5284 51.6265 39.196C51.5466 38.8637 51.3022 38.5943 50.979 38.4832ZM25.9956 69.7976L26.8657 74.155L24.1021 76.9626L19.9077 75.9851L18.9116 71.6912L21.6782 68.8826L25.9956 69.7976Z" fill="#D9D9D9"/>
<path d="M50.979 38.4832L51.304 37.5375L51.3043 37.5375L50.979 38.4832ZM41.6753 40.7234L42.3924 41.4203C42.2041 41.6141 41.9455 41.7234 41.6753 41.7234V40.7234ZM41.6743 40.7234L40.9566 40.0271C41.1449 39.8329 41.4039 39.7234 41.6743 39.7234V40.7234ZM39.1147 48.5603L40.1055 48.4246C40.1476 48.7323 40.0445 49.042 39.8263 49.263L39.1147 48.5603ZM24.2563 63.6052L24.9678 64.3079C24.7439 64.5347 24.4252 64.6411 24.1098 64.5944L24.2563 63.6052ZM16.728 66.0251L16.0259 65.3129L16.0349 65.3043L16.728 66.0251ZM16.522 66.2283L15.7909 65.546C15.8004 65.5358 15.8101 65.5259 15.8199 65.5161L16.522 66.2283ZM16.5083 66.2429L17.2394 66.9252L17.2379 66.9268L16.5083 66.2429ZM16.8198 79.2917L17.515 78.5729L17.5156 78.5735L16.8198 79.2917ZM29.3931 79.2927L30.0921 80.0079L30.0889 80.011L29.3931 79.2927ZM29.4077 79.2771L30.1185 79.9805L30.1184 79.9806L29.4077 79.2771ZM31.979 71.4275L30.9893 71.5704C30.9446 71.2612 31.0471 70.9489 31.2662 70.7261L31.979 71.4275ZM46.7808 56.3835L46.0679 55.6822C46.2923 55.4541 46.6123 55.3472 46.9288 55.3946L46.7808 56.3835ZM56.978 49.1667L55.9987 48.9645C56.0163 48.8795 56.0448 48.7972 56.0836 48.7195L56.978 49.1667ZM56.979 49.1648L57.9587 49.3654C57.9411 49.451 57.9125 49.5339 57.8734 49.612L56.979 49.1648ZM56.7026 44.3582L57.6527 44.0462L57.6528 44.0465L56.7026 44.3582ZM55.9761 43.6951L56.1991 42.7202L56.1997 42.7204L55.9761 43.6951ZM55.0327 43.9763L54.3126 43.2825L54.3128 43.2822L55.0327 43.9763ZM49.6812 49.531L50.4013 50.2248C50.1551 50.4803 49.792 50.5863 49.447 50.5032L49.6812 49.531ZM46.6558 48.8025L46.4217 49.7747C46.0496 49.6851 45.7612 49.391 45.6791 49.0172L46.6558 48.8025ZM45.9751 45.7058L44.9984 45.9205C44.9265 45.5932 45.0233 45.2515 45.2563 45.0106L45.9751 45.7058ZM51.3726 40.1248L52.0916 40.8197L52.0914 40.8199L51.3726 40.1248ZM51.6265 39.196L52.5988 38.9625L52.5989 38.9629L51.6265 39.196ZM25.9956 69.7976L26.2029 68.8193C26.5939 68.9022 26.898 69.2099 26.9762 69.6018L25.9956 69.7976ZM26.8657 74.155L27.8464 73.9592C27.9113 74.2842 27.8109 74.6203 27.5784 74.8565L26.8657 74.155ZM24.1021 76.9626L24.8147 77.6642C24.5703 77.9124 24.2144 78.0156 23.8751 77.9365L24.1021 76.9626ZM19.9077 75.9851L19.6807 76.959C19.3095 76.8725 19.0197 76.5824 18.9336 76.2111L19.9077 75.9851ZM18.9116 71.6912L17.9375 71.9171C17.8601 71.5835 17.9588 71.2334 18.1992 70.9894L18.9116 71.6912ZM21.6782 68.8826L20.9658 68.1808C21.2052 67.9378 21.5519 67.8336 21.8856 67.9043L21.6782 68.8826ZM50.979 38.4832L50.654 39.4289C47.7529 38.4318 44.5475 39.2028 42.3924 41.4203L41.6753 40.7234L40.9582 40.0265C43.6483 37.2583 47.6642 36.2864 51.304 37.5375L50.979 38.4832ZM41.6753 40.7234V41.7234H41.6743V40.7234V39.7234H41.6753V40.7234ZM41.6743 40.7234L42.392 41.4197C40.5955 43.2715 39.7546 45.8621 40.1055 48.4246L39.1147 48.5603L38.124 48.696C37.6905 45.5304 38.7278 42.3244 40.9566 40.0271L41.6743 40.7234ZM39.1147 48.5603L39.8263 49.263L24.9678 64.3079L24.2563 63.6052L23.5448 62.9025L38.4032 47.8576L39.1147 48.5603ZM24.2563 63.6052L24.1098 64.5944C21.6815 64.2348 19.2149 65.0212 17.4211 66.746L16.728 66.0251L16.0349 65.3043C18.2726 63.1527 21.3585 62.1651 24.4029 62.616L24.2563 63.6052ZM16.728 66.0251L17.4301 66.7373L17.224 66.9404L16.522 66.2283L15.8199 65.5161L16.026 65.313L16.728 66.0251ZM16.522 66.2283L17.253 66.9106L17.2394 66.9252L16.5083 66.2429L15.7772 65.5606L15.7909 65.546L16.522 66.2283ZM16.5083 66.2429L17.2379 66.9268C14.1482 70.2235 14.2754 75.4401 17.515 78.5729L16.8198 79.2917L16.1247 80.0106C12.0982 76.1168 11.9435 69.6511 15.7787 65.5591L16.5083 66.2429ZM16.8198 79.2917L17.5156 78.5735C20.6441 81.6044 25.569 81.6051 28.6973 78.5745L29.3931 79.2927L30.0889 80.011C26.1847 83.7932 20.0278 83.792 16.124 80.01L16.8198 79.2917ZM29.3931 79.2927L28.6941 78.5776C28.6815 78.5899 28.6721 78.5998 28.667 78.6052C28.6644 78.608 28.6623 78.6103 28.6611 78.6115C28.66 78.6128 28.6593 78.6136 28.6596 78.6133C28.6598 78.613 28.6598 78.6131 28.6604 78.6124C28.6608 78.612 28.6614 78.6112 28.6622 78.6104C28.6636 78.6088 28.666 78.6061 28.669 78.603C28.6745 78.597 28.6844 78.5863 28.697 78.5736L29.4077 79.2771L30.1184 79.9806C30.1286 79.9703 30.1361 79.9622 30.1392 79.9589C30.1409 79.957 30.1421 79.9557 30.1424 79.9554C30.1425 79.9553 30.1425 79.9552 30.1423 79.9554C30.1423 79.9555 30.1416 79.9562 30.1413 79.9566C30.1398 79.9583 30.1338 79.9649 30.1265 79.9727C30.119 79.9807 30.1071 79.9932 30.0921 80.0078L29.3931 79.2927ZM29.4077 79.2771L28.697 78.5737C30.5189 76.7328 31.3593 74.1332 30.9893 71.5704L31.979 71.4275L32.9687 71.2846C33.4271 74.4587 32.3878 77.6876 30.1185 79.9805L29.4077 79.2771ZM31.979 71.4275L31.2662 70.7261L46.0679 55.6822L46.7808 56.3835L47.4936 57.0849L32.6918 72.1288L31.979 71.4275ZM46.7808 56.3835L46.9288 55.3946C51.1129 56.0208 55.1172 53.2323 55.9987 48.9645L56.978 49.1667L57.9574 49.369C56.8648 54.6585 51.8852 58.1586 46.6327 57.3725L46.7808 56.3835ZM56.978 49.1667L56.0836 48.7195L56.0846 48.7176L56.979 49.1648L57.8734 49.612L57.8725 49.614L56.978 49.1667ZM56.979 49.1648L55.9993 48.9641C56.2917 47.537 56.2065 46.0544 55.7524 44.6698L56.7026 44.3582L57.6528 44.0465C58.2154 45.7618 58.3208 47.5975 57.9587 49.3654L56.979 49.1648ZM56.7026 44.3582L55.7525 44.6701L55.7524 44.6697L55.9761 43.6951L56.1997 42.7204C56.8832 42.8772 57.4343 43.3807 57.6527 44.0462L56.7026 44.3582ZM55.9761 43.6951L55.7531 44.6699L55.7526 44.6704L55.0327 43.9763L54.3128 43.2822C54.7989 42.7781 55.5147 42.5637 56.1991 42.7202L55.9761 43.6951ZM55.0327 43.9763L55.7529 44.6701L50.4013 50.2248L49.6812 49.531L48.961 48.8372L54.3126 43.2825L55.0327 43.9763ZM49.6812 49.531L49.447 50.5032L46.4217 49.7747L46.6558 48.8025L46.8899 47.8303L49.9153 48.5588L49.6812 49.531ZM46.6558 48.8025L45.6791 49.0172L44.9984 45.9205L45.9751 45.7058L46.9518 45.4911L47.6324 48.5878L46.6558 48.8025ZM45.9751 45.7058L45.2563 45.0106L50.6537 39.4296L51.3726 40.1248L52.0914 40.8199L46.6939 46.401L45.9751 45.7058ZM51.3726 40.1248L50.6535 39.4298L50.654 39.4292L51.6265 39.196L52.5989 38.9629C52.7585 39.6284 52.566 40.3288 52.0916 40.8197L51.3726 40.1248ZM51.6265 39.196L50.6541 39.4295L50.6538 39.4288L50.979 38.4832L51.3043 37.5375C51.9513 37.7601 52.4393 38.2984 52.5988 38.9625L51.6265 39.196ZM25.9956 69.7976L26.9762 69.6018L27.8464 73.9592L26.8657 74.155L25.8851 74.3508L25.015 69.9934L25.9956 69.7976ZM26.8657 74.155L27.5784 74.8565L24.8147 77.6642L24.1021 76.9626L23.3894 76.2611L26.1531 73.4535L26.8657 74.155ZM24.1021 76.9626L23.8751 77.9365L19.6807 76.959L19.9077 75.9851L20.1347 75.0112L24.329 75.9887L24.1021 76.9626ZM19.9077 75.9851L18.9336 76.2111L17.9375 71.9171L18.9116 71.6912L19.8858 71.4652L20.8818 75.7591L19.9077 75.9851ZM18.9116 71.6912L18.1992 70.9894L20.9658 68.1808L21.6782 68.8826L22.3906 69.5843L19.624 72.3929L18.9116 71.6912ZM21.6782 68.8826L21.8856 67.9043L26.2029 68.8193L25.9956 69.7976L25.7883 70.7759L21.4709 69.8608L21.6782 68.8826Z" fill="black" fill-opacity="0.8"/>
</svg>
