<svg width="244" height="36" viewBox="0 0 244 36" fill="none" xmlns="http://www.w3.org/2000/svg">
<g clip-path="url(#clip0_574_121)">
<path d="M243.321 30.3509V34.7754H242.588V31.3657H242.542L241.326 34.7754H240.695L239.488 31.3657V34.7754H238.745V30.3509H239.85L241.066 33.8171L242.217 30.3509H243.321ZM238.272 30.3509V30.9895H236.851V34.7749H236.118V30.9895H234.698V30.3509H238.272ZM219.911 23.7472C221.015 20.1306 221.015 17.9985 219.958 16.6081C219.168 15.65 218.017 15.171 216.272 15.171C212.383 15.171 210.229 17.4067 208.493 23.0049C207.379 26.6777 207.379 28.8098 208.437 30.1912C209.171 31.1021 210.386 31.5814 212.123 31.5814C215.956 31.5814 218.175 29.3929 219.911 23.7472ZM235.116 15.65C236.638 17.5759 236.963 20.0183 236.063 23.0053C233.538 31.2621 224.014 35.9963 209.904 35.9963C201.485 35.9963 195.758 34.3433 193.223 31.1493C191.701 29.2333 191.441 26.7343 192.332 23.7472C194.857 15.4905 204.381 10.7563 218.49 10.7563C226.854 10.7563 232.647 12.4565 235.116 15.65ZM182.492 11.5544H197.437C196.537 12.7758 180.283 34.8785 180.014 35.2544H157.077C156.965 34.5592 154.227 12.4093 154.125 11.5544H168.179C168.281 12.2496 170.23 28.1717 170.23 28.1717C170.23 28.1717 182.279 11.8739 182.492 11.5544ZM136.126 23.7472C137.23 20.1306 137.286 17.9985 136.181 16.6081C135.439 15.65 134.232 15.171 132.552 15.171C128.653 15.171 126.444 17.4067 124.763 23.0049C123.603 26.6777 123.603 28.8098 124.708 30.1912C125.441 31.1021 126.657 31.5814 128.337 31.5814C132.236 31.5814 134.446 29.3929 136.126 23.7472ZM151.386 15.65C152.918 17.5759 153.234 20.0183 152.287 23.0053C149.762 31.2621 140.229 35.9963 126.184 35.9963C117.765 35.9963 112.028 34.3433 109.494 31.1493C107.972 29.2333 107.656 26.7343 108.547 23.7472C111.128 15.4905 120.652 10.7563 134.706 10.7563C143.125 10.7563 148.862 12.4565 151.386 15.65ZM107.396 14.4857C107.971 15.2279 108.287 15.9695 108.129 17.0404L102.291 35.3016H86.8165L92.2936 18.2621C92.4976 17.5199 92.2379 16.8811 91.82 16.4021C91.0772 15.491 89.4994 14.9086 84.0785 15.284C84.0785 15.284 77.6645 35.0387 77.5528 35.3016H62.0877C62.2366 34.8787 69.3468 12.8888 69.449 12.6727C74.8239 11.7146 81.9248 10.8127 89.2952 10.8127C99.2921 10.8129 105.391 12.0341 107.396 14.4857ZM50.9299 19.4925C51.2457 17.999 50.7723 16.8811 50.2427 16.2423C49.6674 15.491 48.3955 14.5326 45.7688 14.5326C42.0372 14.5326 39.243 16.3457 38.296 19.3797L36.458 26.3591L50.9299 19.4925ZM63.9255 19.4359C63.9255 20.5537 63.6657 21.512 63.4521 21.9347C62.9787 22.0475 35.9851 28.1157 35.9851 28.1157C35.9851 28.1157 35.7155 29.4497 36.7182 30.1445C38.0365 31.1028 39.4566 31.3659 41.8702 31.4692C47.8204 31.7323 55.8772 28.2191 58.1336 27.2138C57.7714 28.3786 55.4506 33.4982 55.3485 33.7611C54.3458 34.1368 48.767 35.9404 37.8226 35.9968C33.6638 36.0532 26.2472 35.5177 23.1933 31.6288C21.671 29.7128 21.4021 26.9979 22.4508 23.5882C24.9292 15.4438 34.1934 10.7567 47.7645 10.7567C55.3485 10.7567 60.296 12.1938 62.5611 15.0119C63.4521 16.1859 63.9255 17.6795 63.9255 19.4359ZM11.2466 0.000488281H26.5632C26.2477 1.00574 15.9348 34.6625 15.7676 35.2544H0.460571C0.775859 34.2399 11.0887 0.583106 11.2466 0.000488281Z" fill="#003B5A"/>
</g>
<defs>
<clipPath id="clip0_574_121">
<rect width="243" height="36" fill="white" transform="translate(0.390625)"/>
</clipPath>
</defs>
</svg>
