<svg width="162" height="162" viewBox="0 0 162 162" fill="none" xmlns="http://www.w3.org/2000/svg">
<g clip-path="url(#clip0_574_115)">
<path fill-rule="evenodd" clip-rule="evenodd" d="M50.0606 33.4336C23.9071 33.4336 2.75769 54.7741 2.75769 81.0303C2.75769 107.286 23.9071 128.566 50.0606 128.566C76.1547 128.566 97.3025 107.286 97.3025 81.0303C97.3025 54.7741 76.1547 33.4336 50.0606 33.4336ZM32.6648 57.8913C35.7627 57.8913 38.3244 60.4689 38.3244 63.5852C38.3244 66.7621 35.7627 69.3406 32.6648 69.3406C31.1481 69.3399 29.6937 68.7333 28.6213 67.6541C27.5489 66.5749 26.9462 65.1114 26.9458 63.5852C26.9458 60.4689 29.5075 57.8913 32.6648 57.8913ZM54.946 103.929H48.274V59.0906H52.6824V99.4334H61.618V103.93L54.946 103.929ZM54.946 118.136C71.6861 115.918 84.9123 102.43 86.937 85.5258H61.618V80.8496H90.988C90.988 101.89 75.261 119.454 54.946 121.972C53.3373 122.153 51.6693 122.212 50.0606 122.212C43.8054 122.212 37.9068 120.833 32.6648 118.376C18.7244 111.782 9.01374 97.5147 9.01374 81.0303C9.01374 64.545 18.7244 50.2785 32.6648 43.6845C37.6688 41.3463 43.2691 39.968 49.1669 39.7882V43.6248C43.4058 43.7402 37.7526 45.2186 32.6648 47.9404C20.8693 54.2345 12.8267 66.7033 12.8267 81.0303C12.8267 95.3573 20.8693 107.826 32.6648 114.119C37.8483 116.877 43.7461 118.435 50.0606 118.435C51.6693 118.435 53.3373 118.315 54.946 118.136ZM100.461 98.8342V66.2234H111.126V91.2206H125.722V98.8342H100.461ZM159.023 98.9535H152.113L151.754 95.7161C149.968 97.8139 147.048 99.7309 141.925 99.7309C133.644 99.7309 126.197 94.337 126.197 82.9465C126.197 72.5166 132.691 65.3838 143.235 65.3838C151.039 65.3838 157.295 69.4599 158.605 77.4929H148.478C147.702 74.795 145.797 73.3562 142.997 73.3562C138.827 73.3562 136.861 77.1928 136.861 82.8876C136.861 87.5033 138.29 91.7602 143.652 91.7602C145.797 91.7602 148.597 90.2617 149.133 87.9832H144.427V80.9689H159.023L159.023 98.9535Z" fill="#003B5A"/>
</g>
<defs>
<clipPath id="clip0_574_115">
<rect width="161" height="162" fill="white" transform="translate(0.390625)"/>
</clipPath>
</defs>
</svg>
