<svg width="84" height="84" viewBox="0 0 84 84" fill="none" xmlns="http://www.w3.org/2000/svg">
<path d="M82.6 7.63637C82.3455 7.00001 81.5818 6.74546 80.9454 7.00001L74.4545 9.92728C73.9454 10.1818 73.6909 10.5636 73.6909 11.0727V64.2727C73.6909 64.9091 73.0545 65.5455 72.4182 65.5455H12.6C11.8364 65.5455 11.3273 66.1818 11.3273 66.8182C11.3273 67.4545 11.8364 68.0909 12.6 68.0909H17.3091C16.6727 68.9818 16.2909 70.1273 16.2909 71.2727C16.2909 74.4545 18.8364 77 22.0182 77C25.2 77 27.7455 74.4545 27.7455 71.2727C27.7455 70.1273 27.3636 68.9818 26.7273 68.0909H60.2C59.5636 68.9818 59.1818 70.1273 59.1818 71.2727C59.1818 74.4545 61.7273 77 64.9091 77C68.0909 77 70.6364 74.4545 70.6364 71.2727C70.6364 70.1273 70.2545 68.9818 69.6182 68.0909H72.2909C74.4545 68.0909 76.1091 66.4364 76.1091 64.2727V11.9636L81.9636 9.41819C82.6 9.03637 82.8545 8.27274 82.6 7.63637Z" fill="#003B5A"/>
<path d="M69.3636 57.9091V20.7454C69.3636 18.5818 67.5818 16.9273 65.5454 16.9273H45.9455V10.6909C45.9455 9.2909 44.8 8.14545 43.4 8.14545H27.2364C25.8364 8.14545 24.6909 9.2909 24.6909 10.6909V16.9273H5.09092C3.05455 16.9273 1.27274 18.5818 1.27274 20.7454V57.7818C1.27274 59.9454 3.05455 61.6 5.09092 61.6H65.5454C67.5818 61.7273 69.3636 59.9454 69.3636 57.9091ZM27.2364 10.6909H43.2727V16.9273H27.2364V10.6909ZM13.7455 43.0182C13.7455 43.7818 13.2364 44.2909 12.4727 44.2909C11.7091 44.2909 11.2 43.7818 11.2 43.0182V41.7454C11.2 40.9818 11.7091 40.4727 12.4727 40.4727C13.2364 40.4727 13.7455 40.9818 13.7455 41.7454V43.0182ZM13.7455 35C13.7455 35.7636 13.2364 36.2727 12.4727 36.2727C11.7091 36.2727 11.2 35.7636 11.2 35V33.7273C11.2 32.9636 11.7091 32.4545 12.4727 32.4545C13.2364 32.4545 13.7455 32.9636 13.7455 33.7273V35ZM33.0909 24.6909L31.5636 28.3818C31.3091 29.0182 30.5455 29.2727 29.9091 29.0182C29.2727 28.7636 29.0182 28 29.2727 27.3636L29.6545 26.3454C25.0727 28.5091 22.0182 33.0909 22.0182 38.3091C22.0182 44.1636 25.7091 49.1273 31.1818 50.9091C31.8182 51.1636 32.2 51.8 31.9455 52.4364C31.8182 53.2 31.0545 53.5818 30.2909 53.3273C23.9273 51.1636 19.4727 45.1818 19.4727 38.3091C19.4727 32.0727 23.0364 26.6 28.3818 24.0545L27.7455 23.8C27.1091 23.5454 26.8545 22.7818 27.1091 22.1454C27.3636 21.5091 28.1273 21.2545 28.7636 21.5091L32.4545 23.0364C33.0909 23.2909 33.4727 24.0545 33.0909 24.6909ZM42.1273 52.5636L42.7636 52.8182C43.4 53.0727 43.6545 53.8364 43.4 54.4727C43.1455 55.1091 42.3818 55.3636 41.7455 55.1091L38.1818 53.5818C37.5455 53.3273 37.2909 52.5636 37.5455 51.9273L39.0727 48.2364C39.3273 47.6 40.0909 47.3455 40.7273 47.6C41.3636 47.8545 41.6182 48.6182 41.3636 49.2545L40.9818 50.2727C45.5636 48.1091 48.6182 43.5273 48.6182 38.3091C48.6182 32.4545 44.9273 27.4909 39.4545 25.7091C38.8182 25.4545 38.4364 24.8182 38.6909 24.1818C38.8182 23.4182 39.5818 23.0364 40.3455 23.2909C46.8364 25.4545 51.1636 31.4364 51.1636 38.3091C51.1636 44.5455 47.6 49.8909 42.1273 52.5636ZM59.4364 43.0182C59.4364 43.7818 58.9273 44.2909 58.1636 44.2909C57.4 44.2909 56.8909 43.7818 56.8909 43.0182V41.7454C56.8909 40.9818 57.4 40.4727 58.1636 40.4727C58.9273 40.4727 59.4364 40.9818 59.4364 41.7454V43.0182ZM59.4364 35C59.4364 35.7636 58.9273 36.2727 58.1636 36.2727C57.4 36.2727 56.8909 35.7636 56.8909 35V33.7273C56.8909 32.9636 57.4 32.4545 58.1636 32.4545C58.9273 32.4545 59.4364 32.9636 59.4364 33.7273V35Z" fill="#003B5A"/>
</svg>
