<svg width="81" height="55" viewBox="0 0 81 55" fill="none" xmlns="http://www.w3.org/2000/svg">
<path fill-rule="evenodd" clip-rule="evenodd" d="M10.3519 48.1658C11.2732 52.0788 14.9041 55 19.2376 55C23.5711 55 27.2019 52.0788 28.1233 48.1658H49.5012C50.4226 52.0788 54.0534 55 58.3869 55C62.7204 55 66.3512 52.0788 67.2746 48.1658H76.0631C78.7908 48.1658 81.0001 46.0354 81.0001 43.4072V27.9891C81.0001 27.337 80.6619 26.7277 80.0989 26.3645L76.5714 24.0975L72.3108 13.8247C71.4563 11.7666 69.3887 10.4154 67.0883 10.4154H55.3494V5.85792C55.3494 4.30362 54.7095 2.81375 53.5714 1.71637C52.4313 0.61703 50.8863 0 49.2744 0C39.684 0 15.6675 0 6.07506 0C4.46316 0 2.91808 0.61703 1.78003 1.71637C0.639957 2.81375 6.10352e-05 4.30362 6.10352e-05 5.85792V42.8936C6.10352e-05 45.807 2.44831 48.1658 5.46759 48.1658H10.3519ZM58.3869 41.3315C61.1814 41.3315 63.4494 43.5204 63.4494 46.2131C63.4494 48.9078 61.1814 51.0947 58.3869 51.0947C55.5944 51.0947 53.3244 48.9078 53.3244 46.2131C53.3244 43.5204 55.5944 41.3315 58.3869 41.3315ZM19.2376 41.3315C22.0321 41.3315 24.3001 43.5204 24.3001 46.2131C24.3001 48.9078 22.0321 51.0947 19.2376 51.0947C16.4431 51.0947 14.1751 48.9078 14.1751 46.2131C14.1751 43.5204 16.4431 41.3315 19.2376 41.3315ZM59.5918 14.3207H55.3494V37.9281C56.3012 37.6039 57.3238 37.4262 58.3869 37.4262C62.7204 37.4262 66.3512 40.3493 67.2746 44.2605H76.0631C76.5532 44.2605 76.9501 43.8778 76.9501 43.4072V35.1495H70.8751C69.7573 35.1495 68.8501 34.2747 68.8501 33.1968C68.8501 32.119 69.7573 31.2442 70.8751 31.2442H76.9501V29.0338L74.3115 27.3389H62.7751C61.7342 27.3389 60.8635 26.5774 60.7602 25.5796L59.5918 14.3207ZM22.8137 24.4334L16.5362 30.6369C15.7566 31.4082 15.7708 32.6462 16.5707 33.3979C17.3705 34.1517 18.6543 34.136 19.436 33.3647L25.6811 27.1925C29.4375 29.5395 34.5162 29.1256 37.8068 25.9525C41.5936 22.3011 41.5936 16.3748 37.8068 12.7254C34.0221 9.07587 27.8762 9.07587 24.0915 12.7254C20.7948 15.9043 20.3675 20.8093 22.8137 24.4334ZM26.9548 15.4864C29.1601 13.36 32.7383 13.36 34.9435 15.4864C37.1487 17.6128 37.1487 21.0651 34.9435 23.1895C32.7383 25.316 29.1601 25.316 26.9548 23.1895C24.7496 21.0651 24.7496 17.6128 26.9548 15.4864Z" fill="#003B5A"/>
</svg>
