<svg width="118" height="118" viewBox="0 0 118 118" fill="none" xmlns="http://www.w3.org/2000/svg">
<path d="M104.264 35.2341C103.637 33.9803 102.365 33.1875 100.964 33.1875H17.0362C15.635 33.1875 14.3628 33.9803 13.7359 35.2341L7.375 47.9375V94.0312C7.375 96.0594 9.03437 97.7188 11.0625 97.7188H106.938C108.966 97.7188 110.625 96.0594 110.625 94.0312V47.9375L104.264 35.2341Z" fill="#003B5A"/>
<path d="M22.125 70.0625H95.875C97.9031 70.0625 99.5625 71.7219 99.5625 73.75V97.7188H18.4375V73.75C18.4375 71.7219 20.0969 70.0625 22.125 70.0625Z" fill="#536882"/>
<path d="M110.625 47.9375H7.375L13.7359 35.2341C14.3628 33.9803 15.635 33.1875 17.0362 33.1875H100.982C102.383 33.1875 103.656 33.9803 104.283 35.2341L110.643 47.9375H110.625Z" fill="#536882"/>
<path d="M40.5625 7.375H77.4375C79.4656 7.375 81.125 9.03437 81.125 11.0625V40.5625H36.875V11.0625C36.875 9.03437 38.5344 7.375 40.5625 7.375Z" fill="#D3DCE5"/>
<path d="M80.6087 110.625H37.4097C35.1787 110.625 33.464 108.652 33.759 106.458L36.8934 84.8125H81.1434L84.2778 106.458C84.5728 108.671 82.8581 110.625 80.6272 110.625H80.6087Z" fill="#D3DCE5"/>
<path d="M84.8125 42.4062H33.1875C32.1734 42.4062 31.3438 41.5766 31.3438 40.5625C31.3438 39.5484 32.1734 38.7188 33.1875 38.7188H84.8125C85.8266 38.7188 86.6562 39.5484 86.6562 40.5625C86.6562 41.5766 85.8266 42.4062 84.8125 42.4062Z" fill="#B8C3D5"/>
<path d="M84.8125 86.6562H33.1875C32.1734 86.6562 31.3438 85.8266 31.3438 84.8125C31.3438 83.7984 32.1734 82.9688 33.1875 82.9688H84.8125C85.8266 82.9688 86.6562 83.7984 86.6562 84.8125C86.6562 85.8266 85.8266 86.6562 84.8125 86.6562Z" fill="#B8C3D5"/>
<path d="M99.5625 57.1562H94.0312C93.0172 57.1562 92.1875 56.3266 92.1875 55.3125C92.1875 54.2984 93.0172 53.4688 94.0312 53.4688H99.5625C100.577 53.4688 101.406 54.2984 101.406 55.3125C101.406 56.3266 100.577 57.1562 99.5625 57.1562Z" fill="#E26677"/>
<path d="M99.5625 64.5312H94.0312C93.0172 64.5312 92.1875 63.7016 92.1875 62.6875C92.1875 61.6734 93.0172 60.8438 94.0312 60.8438H99.5625C100.577 60.8438 101.406 61.6734 101.406 62.6875C101.406 63.7016 100.577 64.5312 99.5625 64.5312Z" fill="#96D696"/>
<path d="M71.9062 95.875H46.0938C45.0797 95.875 44.25 95.0453 44.25 94.0312C44.25 93.0172 45.0797 92.1875 46.0938 92.1875H71.9062C72.9203 92.1875 73.75 93.0172 73.75 94.0312C73.75 95.0453 72.9203 95.875 71.9062 95.875Z" fill="#B8C3D5"/>
<path d="M71.9062 103.25H46.0938C45.0797 103.25 44.25 102.42 44.25 101.406C44.25 100.392 45.0797 99.5625 46.0938 99.5625H71.9062C72.9203 99.5625 73.75 100.392 73.75 101.406C73.75 102.42 72.9203 103.25 71.9062 103.25Z" fill="#B8C3D5"/>
</svg>
