<svg width="89" height="89" viewBox="0 0 89 89" fill="none" xmlns="http://www.w3.org/2000/svg">
<path d="M82.0468 11.125H27.8125V6.95315C27.8127 6.73742 27.7627 6.52461 27.6665 6.33154L26.2758 3.55029C26.1603 3.31912 25.9827 3.12471 25.7628 2.98888C25.543 2.85304 25.2896 2.78115 25.0312 2.78127H22.25C21.9915 2.78115 21.7382 2.85304 21.5184 2.98888C21.2985 3.12471 21.1209 3.31912 21.0054 3.55029L19.6147 6.33154C19.5185 6.52461 19.4685 6.73742 19.4687 6.95315V11.6562L15.2968 13.7422L11.125 11.6562V6.95315C11.1273 6.73797 11.0797 6.52519 10.9859 6.33154L9.59528 3.55029C9.47924 3.31806 9.30051 3.12295 9.07932 2.98704C8.85813 2.85113 8.60331 2.77985 8.34371 2.78127H5.56246C5.30404 2.78115 5.0507 2.85304 4.83085 2.98888C4.61101 3.12471 4.43337 3.31912 4.31785 3.55029L2.92723 6.33154C2.831 6.52461 2.78101 6.73742 2.78121 6.95315V18.0781C2.78129 18.4469 2.92785 18.8006 3.18867 19.0613L8.34371 24.2164V64.7837L3.18867 69.9387C2.92785 70.1994 2.78129 70.5531 2.78121 70.9219V82.0469C2.77885 82.2621 2.82645 82.4748 2.92027 82.6685L4.3109 85.4497C4.42694 85.682 4.60567 85.8771 4.82686 86.013C5.04804 86.1489 5.30286 86.2202 5.56246 86.2188H8.34371C8.60213 86.2189 8.85548 86.147 9.07532 86.0112C9.29516 85.8753 9.47281 85.6809 9.58832 85.4497L10.9789 82.6685C11.0752 82.4754 11.1252 82.2626 11.125 82.0469V77.3438L15.2968 75.2579L19.4687 77.3438V82.0469C19.4685 82.2626 19.5185 82.4754 19.6147 82.6685L21.0054 85.4497C21.1209 85.6809 21.2985 85.8753 21.5184 86.0112C21.7382 86.147 21.9915 86.2189 22.25 86.2188H25.0312C25.2896 86.2189 25.543 86.147 25.7628 86.0112C25.9827 85.8753 26.1603 85.6809 26.2758 85.4497L27.6665 82.6685C27.7627 82.4754 27.8127 82.2626 27.8125 82.0469V77.875H82.0468C83.1533 77.875 84.2144 77.4355 84.9968 76.6531C85.7792 75.8707 86.2187 74.8096 86.2187 73.7031V15.2969C86.2187 14.1904 85.7792 13.1293 84.9968 12.3469C84.2144 11.5646 83.1533 11.125 82.0468 11.125ZM27.405 19.0613C27.6658 18.8006 27.8124 18.4469 27.8125 18.0781V13.9063H82.0468C82.4157 13.9063 82.7694 14.0528 83.0302 14.3136C83.291 14.5744 83.4375 14.9281 83.4375 15.2969V22.25H24.2163L27.405 19.0613ZM25.0312 81.7187L24.1718 83.4375H23.1094L22.25 81.7187V76.4844C22.2514 76.2248 22.1801 75.97 22.0442 75.7488C21.9083 75.5276 21.7132 75.3489 21.4809 75.2328L15.9184 72.4516C15.7254 72.3551 15.5126 72.3049 15.2968 72.3049C15.0811 72.3049 14.8682 72.3551 14.6752 72.4516L9.11273 75.2328C8.8805 75.3489 8.68539 75.5276 8.54948 75.7488C8.41357 75.97 8.3423 76.2248 8.34371 76.4844V81.7187L7.48431 83.4375H6.42187L5.56246 81.7187V71.4976L10.7175 66.3426C10.9783 66.0818 11.1249 65.7282 11.125 65.3594V23.6406C11.1249 23.2719 10.9783 22.9182 10.7175 22.6575L5.56246 17.5024V7.28133L6.42187 5.56252H7.48431L8.34371 7.28133V12.5156C8.34359 12.7741 8.41548 13.0274 8.55132 13.2473C8.68715 13.4671 8.88156 13.6447 9.11273 13.7603L14.6752 16.5415C14.8682 16.638 15.0811 16.6882 15.2968 16.6882C15.5126 16.6882 15.7254 16.638 15.9184 16.5415L21.4809 13.7603C21.7121 13.6447 21.9065 13.4671 22.0424 13.2473C22.1782 13.0274 22.2501 12.7741 22.25 12.5156V7.28133L23.1094 5.56252H24.1718L25.0312 7.28133V17.5024L19.8762 22.6575C19.6154 22.9182 19.4688 23.2719 19.4687 23.6406V65.3594C19.4688 65.7282 19.6154 66.0818 19.8762 66.3426L25.0312 71.4976V81.7187ZM82.0468 75.0938H27.8125V70.9219C27.8124 70.5531 27.6658 70.1994 27.405 69.9387L22.25 64.7837V25.0313H83.4375V73.7031C83.4375 74.072 83.291 74.4257 83.0302 74.6865C82.7694 74.9473 82.4157 75.0938 82.0468 75.0938Z" fill="url(#paint0_linear_358_624)"/>
<path d="M63.9688 16.6875H66.75V19.4688H63.9688V16.6875Z" fill="url(#paint1_linear_358_624)" fill-opacity="0.9"/>
<path d="M69.5312 16.6875H72.3125V19.4688H69.5312V16.6875Z" fill="url(#paint2_linear_358_624)" fill-opacity="0.9"/>
<path d="M75.0938 16.6875H77.875V19.4688H75.0938V16.6875Z" fill="url(#paint3_linear_358_624)" fill-opacity="0.9"/>
<path d="M56.1312 41.1137L47.2813 49.9636L45.3149 47.9959C44.5325 47.2134 43.4713 46.7738 42.3647 46.7738C41.2582 46.7738 40.197 47.2134 39.4145 47.9959C38.6321 48.7783 38.1925 49.8395 38.1925 50.9461C38.1925 52.0526 38.6321 53.1138 39.4145 53.8963L44.3318 58.8135C45.1141 59.5956 46.1751 60.035 47.2813 60.035C48.3875 60.035 49.4485 59.5956 50.2308 58.8135L62.0303 47.0141C62.8022 46.2296 63.2329 45.172 63.2286 44.0714C63.2242 42.9708 62.7852 41.9166 62.007 41.1383C61.2289 40.36 60.1747 39.9207 59.0742 39.9161C57.9736 39.9114 56.9158 40.3419 56.1312 41.1137ZM60.0639 45.0477L48.2645 56.8472C48.0037 57.1079 47.65 57.2544 47.2813 57.2544C46.9125 57.2544 46.5589 57.1079 46.2981 56.8472L41.3809 51.9299C41.1201 51.669 40.9737 51.3152 40.9738 50.9463C40.974 50.5774 41.1206 50.2237 41.3816 49.9629C41.6425 49.7022 41.9963 49.5557 42.3652 49.5559C42.7341 49.556 43.0878 49.7027 43.3486 49.9636L46.2981 52.9131C46.5589 53.1738 46.9125 53.3203 47.2813 53.3203C47.65 53.3203 48.0037 53.1738 48.2645 52.9131L58.0976 43.08C58.2268 42.9509 58.3801 42.8485 58.5489 42.7787C58.7177 42.7088 58.8986 42.6729 59.0812 42.673C59.2639 42.673 59.4447 42.7091 59.6135 42.779C59.7822 42.849 59.9355 42.9515 60.0646 43.0807C60.1937 43.2099 60.2961 43.3633 60.366 43.532C60.4358 43.7008 60.4717 43.8817 60.4716 44.0644C60.4716 44.247 60.4355 44.4279 60.3656 44.5966C60.2956 44.7653 60.1931 44.9186 60.0639 45.0477Z" fill="url(#paint4_linear_358_624)" fill-opacity="0.9"/>
<path d="M50.0625 29.2031C45.9369 29.2031 41.904 30.4265 38.4737 32.7186C35.0434 35.0106 32.3698 38.2684 30.791 42.08C29.2122 45.8915 28.7991 50.0856 29.6039 54.132C30.4088 58.1783 32.3955 61.8951 35.3127 64.8123C38.2299 67.7295 41.9467 69.7162 45.993 70.5211C50.0394 71.3259 54.2335 70.9128 58.045 69.334C61.8566 67.7552 65.1144 65.0816 67.4064 61.6513C69.6985 58.221 70.9219 54.1881 70.9219 50.0625C70.9156 44.5322 68.7159 39.2301 64.8054 35.3196C60.8949 31.4091 55.5928 29.2094 50.0625 29.2031ZM50.0625 68.1406C46.487 68.1406 42.9918 67.0804 40.0188 65.0939C37.0459 63.1075 34.7288 60.284 33.3605 56.9807C31.9922 53.6774 31.6342 50.0424 32.3318 46.5356C33.0293 43.0288 34.7511 39.8076 37.2793 37.2793C39.8076 34.7511 43.0288 33.0293 46.5356 32.3317C50.0425 31.6342 53.6774 31.9922 56.9807 33.3605C60.2841 34.7288 63.1075 37.0459 65.0939 40.0188C67.0804 42.9918 68.1406 46.487 68.1406 50.0625C68.1351 54.8554 66.2287 59.4505 62.8396 62.8396C59.4505 66.2287 54.8554 68.1351 50.0625 68.1406Z" fill="url(#paint5_linear_358_624)" fill-opacity="0.9"/>
<defs>
<linearGradient id="paint0_linear_358_624" x1="4.58262" y1="4.71456" x2="90.2163" y2="80.176" gradientUnits="userSpaceOnUse">
<stop stop-color="#0088FF"/>
<stop offset="0.25" stop-color="#FB6609"/>
<stop offset="0.5" stop-color="#FC4798"/>
<stop offset="0.75" stop-color="#5BBBA9"/>
<stop offset="1" stop-color="#8A38F5"/>
</linearGradient>
<linearGradient id="paint1_linear_358_624" x1="66.75" y1="18.0781" x2="63.9688" y2="18.0781" gradientUnits="userSpaceOnUse">
<stop stop-color="#FFA46F"/>
<stop offset="0.495211" stop-color="#7AFDD9"/>
<stop offset="1" stop-color="#FF8383"/>
</linearGradient>
<linearGradient id="paint2_linear_358_624" x1="72.3125" y1="18.0781" x2="69.5312" y2="18.0781" gradientUnits="userSpaceOnUse">
<stop stop-color="#FFA46F"/>
<stop offset="0.495211" stop-color="#7AFDD9"/>
<stop offset="1" stop-color="#FF8383"/>
</linearGradient>
<linearGradient id="paint3_linear_358_624" x1="77.875" y1="18.0781" x2="75.0938" y2="18.0781" gradientUnits="userSpaceOnUse">
<stop stop-color="#FFA46F"/>
<stop offset="0.495211" stop-color="#7AFDD9"/>
<stop offset="1" stop-color="#FF8383"/>
</linearGradient>
<linearGradient id="paint4_linear_358_624" x1="63.2286" y1="49.9755" x2="38.1925" y2="49.9755" gradientUnits="userSpaceOnUse">
<stop stop-color="#FFA46F"/>
<stop offset="0.495211" stop-color="#7AFDD9"/>
<stop offset="1" stop-color="#FF8383"/>
</linearGradient>
<linearGradient id="paint5_linear_358_624" x1="70.9219" y1="50.0625" x2="29.2031" y2="50.0625" gradientUnits="userSpaceOnUse">
<stop stop-color="#FFA46F"/>
<stop offset="0.495211" stop-color="#7AFDD9"/>
<stop offset="1" stop-color="#FF8383"/>
</linearGradient>
</defs>
</svg>
