<svg width="106" height="106" viewBox="0 0 106 106" fill="none" xmlns="http://www.w3.org/2000/svg">
<path d="M89.5517 0H16.4482C13.4201 0 10.9656 2.45477 10.9656 5.48281V100.517C10.9656 103.545 13.4203 106 16.4484 106H89.5517C92.5798 106 95.0345 103.545 95.0345 100.517V5.48281C95.0343 2.45477 92.5798 0 89.5517 0ZM47.5171 5.48281H58.4828C59.492 5.48281 60.3104 6.3012 60.3104 7.31048C60.3104 8.31976 59.492 9.13815 58.4828 9.13815H47.5171C46.5079 9.13815 45.6895 8.31976 45.6895 7.31048C45.6895 6.3012 46.5079 5.48281 47.5171 5.48281ZM40.2069 5.48281C41.2162 5.48281 42.0345 6.3012 42.0345 7.31048C42.0345 8.31976 41.2162 9.13815 40.2069 9.13815C39.1976 9.13815 38.3792 8.31976 38.3792 7.31048C38.3792 6.3012 39.1976 5.48281 40.2069 5.48281ZM53 102.345C50.9812 102.345 49.3448 100.708 49.3448 98.6897C49.3448 96.6712 50.9812 95.0346 53 95.0346C55.0187 95.0346 56.6551 96.6712 56.6551 98.6897C56.6551 100.708 55.0187 102.345 53 102.345ZM89.5517 91.3792H16.4482V14.6208H89.5515V91.3792H89.5517Z" fill="#003B5A"/>
<path d="M16.4482 91.3792H89.5516V14.6207H16.4482V91.3792ZM36.5518 87.7241C34.533 87.7241 32.8967 86.0875 32.8967 84.0689C32.8967 82.0504 34.533 80.4138 36.5518 80.4138C38.5706 80.4138 40.2069 82.0504 40.2069 84.0689C40.2069 86.0875 38.5706 87.7241 36.5518 87.7241ZM47.5172 87.7241C45.4985 87.7241 43.8621 86.0875 43.8621 84.0689C43.8621 82.0504 45.4985 80.4138 47.5172 80.4138C49.536 80.4138 51.1724 82.0504 51.1724 84.0689C51.1724 86.0875 49.536 87.7241 47.5172 87.7241ZM69.4482 87.7241C67.4295 87.7241 65.7931 86.0875 65.7931 84.0689C65.7931 82.0504 67.4295 80.4138 69.4482 80.4138C71.467 80.4138 73.1034 82.0504 73.1034 84.0689C73.1034 86.0875 71.467 87.7241 69.4482 87.7241ZM80.4139 87.7241C78.3951 87.7241 76.7587 86.0875 76.7587 84.0689C76.7587 82.0504 78.3951 80.4138 80.4139 80.4138C82.4326 80.4138 84.069 82.0504 84.069 84.0689C84.069 86.0875 82.4326 87.7241 80.4139 87.7241ZM54.8277 21.931C54.8277 20.9217 55.6461 20.1033 56.6554 20.1033H82.2415C83.2508 20.1033 84.0692 20.9217 84.0692 21.931C84.0692 22.9403 83.2508 23.7587 82.2415 23.7587H56.6552C55.6459 23.7587 54.8277 22.9403 54.8277 21.931ZM54.8277 29.2413C54.8277 28.232 55.6461 27.4136 56.6554 27.4136H73.1036C74.1129 27.4136 74.9313 28.232 74.9313 29.2413C74.9313 30.2506 74.1129 31.0689 73.1036 31.0689H56.6554C55.6459 31.0689 54.8277 30.2506 54.8277 29.2413ZM54.8277 36.5518C54.8277 35.5425 55.6461 34.7241 56.6554 34.7241H82.2415C83.2508 34.7241 84.0692 35.5425 84.0692 36.5518C84.0692 37.561 83.2508 38.3794 82.2415 38.3794H56.6552C55.6459 38.3792 54.8277 37.561 54.8277 36.5518ZM54.8277 43.862C54.8277 42.8528 55.6461 42.0344 56.6554 42.0344H73.1036C74.1129 42.0344 74.9313 42.8528 74.9313 43.862C74.9313 44.8713 74.1129 45.6897 73.1036 45.6897H56.6554C55.6459 45.6897 54.8277 44.8713 54.8277 43.862ZM54.8277 51.1723C54.8277 50.163 55.6461 49.3446 56.6554 49.3446H82.2415C83.2508 49.3446 84.0692 50.163 84.0692 51.1723C84.0692 52.1816 83.2508 53 82.2415 53H56.6552C55.6459 53 54.8277 52.1816 54.8277 51.1723ZM54.8277 58.4828C54.8277 57.4735 55.6461 56.6551 56.6554 56.6551H73.1036C74.1129 56.6551 74.9313 57.4735 74.9313 58.4828C74.9313 59.4921 74.1129 60.3105 73.1036 60.3105H56.6554C55.6459 60.3102 54.8277 59.4921 54.8277 58.4828ZM54.8277 65.7931C54.8277 64.7838 55.6461 63.9654 56.6554 63.9654H82.2415C83.2508 63.9654 84.0692 64.7838 84.0692 65.7931C84.0692 66.8023 83.2508 67.6207 82.2415 67.6207H56.6552C55.6459 67.6207 54.8277 66.8023 54.8277 65.7931ZM54.8277 73.1033C54.8277 72.0941 55.6461 71.2757 56.6554 71.2757H73.1036C74.1129 71.2757 74.9313 72.0941 74.9313 73.1033C74.9313 74.1126 74.1129 74.931 73.1036 74.931H56.6554C55.6459 74.931 54.8277 74.1126 54.8277 73.1033ZM58.4828 80.4138C60.5016 80.4138 62.138 82.0504 62.138 84.0689C62.138 86.0875 60.5016 87.7241 58.4828 87.7241C56.4641 87.7241 54.8277 86.0875 54.8277 84.0689C54.8277 82.0504 56.4641 80.4138 58.4828 80.4138ZM21.9311 21.931C21.9311 20.9217 22.7494 20.1033 23.7587 20.1033H49.3449C50.3542 20.1033 51.1726 20.9217 51.1726 21.931V29.2413C51.1726 30.2506 50.3542 31.0689 49.3449 31.0689H23.7587C22.7494 31.0689 21.9311 30.2506 21.9311 29.2413V21.931ZM21.9311 36.5518C21.9311 35.5425 22.7494 34.7241 23.7587 34.7241H49.3449C50.3542 34.7241 51.1726 35.5425 51.1726 36.5518V43.862C51.1726 44.8713 50.3542 45.6897 49.3449 45.6897H23.7587C22.7494 45.6897 21.9311 44.8713 21.9311 43.862V36.5518ZM21.9311 51.1723C21.9311 50.163 22.7494 49.3446 23.7587 49.3446H49.3449C50.3542 49.3446 51.1726 50.163 51.1726 51.1723V58.4826C51.1726 59.4919 50.3542 60.3102 49.3449 60.3102H23.7587C22.7494 60.3102 21.9311 59.4919 21.9311 58.4826V51.1723ZM21.9311 65.7931C21.9311 64.7838 22.7494 63.9654 23.7587 63.9654H49.3449C50.3542 63.9654 51.1726 64.7838 51.1726 65.7931V73.1033C51.1726 74.1126 50.3542 74.931 49.3449 74.931H23.7587C22.7494 74.931 21.9311 74.1126 21.9311 73.1033V65.7931ZM25.5862 80.4138C27.605 80.4138 29.2413 82.0504 29.2413 84.0689C29.2413 86.0875 27.605 87.7241 25.5862 87.7241C23.5674 87.7241 21.9311 86.0875 21.9311 84.0689C21.9311 82.0504 23.5674 80.4138 25.5862 80.4138Z" fill="white"/>
<path d="M47.5172 9.13789H58.4829C59.4921 9.13789 60.3105 8.31949 60.3105 7.31022C60.3105 6.30094 59.4921 5.48254 58.4829 5.48254H47.5172C46.508 5.48254 45.6896 6.30094 45.6896 7.31022C45.6896 8.31949 46.508 9.13789 47.5172 9.13789Z" fill="white"/>
<path d="M40.2069 9.13789C41.2163 9.13789 42.0346 8.31961 42.0346 7.31022C42.0346 6.30082 41.2163 5.48254 40.2069 5.48254C39.1975 5.48254 38.3793 6.30082 38.3793 7.31022C38.3793 8.31961 39.1975 9.13789 40.2069 9.13789Z" fill="white"/>
<path d="M53 102.345C55.0187 102.345 56.6552 100.708 56.6552 98.6897C56.6552 96.671 55.0187 95.0345 53 95.0345C50.9814 95.0345 49.3449 96.671 49.3449 98.6897C49.3449 100.708 50.9814 102.345 53 102.345Z" fill="white"/>
<path d="M23.7587 31.069H49.3449C50.3541 31.069 51.1725 30.2506 51.1725 29.2413V21.9311C51.1725 20.9218 50.3541 20.1034 49.3449 20.1034H23.7587C22.7494 20.1034 21.931 20.9218 21.931 21.9311V29.2413C21.931 30.2506 22.7494 31.069 23.7587 31.069Z" fill="#FFDC69"/>
<path d="M56.6551 23.7587H82.2413C83.2506 23.7587 84.069 22.9403 84.069 21.9311C84.069 20.9218 83.2506 20.1034 82.2413 20.1034H56.6551C55.6458 20.1034 54.8275 20.9218 54.8275 21.9311C54.8277 22.9403 55.6458 23.7587 56.6551 23.7587Z" fill="#BEC8DC"/>
<path d="M56.6551 31.0689H73.1033C74.1126 31.0689 74.931 30.2505 74.931 29.2412C74.931 28.232 74.1126 27.4136 73.1033 27.4136H56.6551C55.6458 27.4136 54.8275 28.232 54.8275 29.2412C54.8277 30.2505 55.6458 31.0689 56.6551 31.0689Z" fill="#DEE3ED"/>
<path d="M23.7587 45.6897H49.3449C50.3541 45.6897 51.1725 44.8713 51.1725 43.8621V36.5518C51.1725 35.5425 50.3541 34.7241 49.3449 34.7241H23.7587C22.7494 34.7241 21.931 35.5425 21.931 36.5518V43.8621C21.931 44.8713 22.7494 45.6897 23.7587 45.6897Z" fill="#FF6469"/>
<path d="M56.6551 38.3792H82.2413C83.2506 38.3792 84.069 37.5608 84.069 36.5515C84.069 35.5423 83.2506 34.7239 82.2413 34.7239H56.6551C55.6458 34.7239 54.8275 35.5423 54.8275 36.5515C54.8277 37.561 55.6458 38.3792 56.6551 38.3792Z" fill="#BEC8DC"/>
<path d="M56.6551 45.6898H73.1033C74.1126 45.6898 74.931 44.8714 74.931 43.8621C74.931 42.8528 74.1126 42.0344 73.1033 42.0344H56.6551C55.6458 42.0344 54.8275 42.8528 54.8275 43.8621C54.8277 44.8714 55.6458 45.6898 56.6551 45.6898Z" fill="#DEE3ED"/>
<path d="M23.7587 60.3102H49.3449C50.3541 60.3102 51.1725 59.4918 51.1725 58.4825V51.1723C51.1725 50.163 50.3541 49.3446 49.3449 49.3446H23.7587C22.7494 49.3446 21.931 50.163 21.931 51.1723V58.4825C21.931 59.492 22.7494 60.3102 23.7587 60.3102Z" fill="#B4E173"/>
<path d="M56.6551 52.9999H82.2413C83.2506 52.9999 84.069 52.1816 84.069 51.1723C84.069 50.163 83.2506 49.3446 82.2413 49.3446H56.6551C55.6458 49.3446 54.8275 50.163 54.8275 51.1723C54.8277 52.1816 55.6458 52.9999 56.6551 52.9999Z" fill="#BEC8DC"/>
<path d="M56.6551 60.3103H73.1033C74.1126 60.3103 74.931 59.4919 74.931 58.4826C74.931 57.4733 74.1126 56.6549 73.1033 56.6549H56.6551C55.6458 56.6549 54.8275 57.4733 54.8275 58.4826C54.8277 59.4921 55.6458 60.3103 56.6551 60.3103Z" fill="#DEE3ED"/>
<path d="M23.7587 74.9311H49.3449C50.3541 74.9311 51.1725 74.1127 51.1725 73.1034V65.7931C51.1725 64.7838 50.3541 63.9655 49.3449 63.9655H23.7587C22.7494 63.9655 21.931 64.7838 21.931 65.7931V73.1034C21.931 74.1127 22.7494 74.9311 23.7587 74.9311Z" fill="#003B5A"/>
<path d="M56.6551 67.6208H82.2413C83.2506 67.6208 84.069 66.8024 84.069 65.7931C84.069 64.7838 83.2506 63.9655 82.2413 63.9655H56.6551C55.6458 63.9655 54.8275 64.7838 54.8275 65.7931C54.8277 66.8024 55.6458 67.6208 56.6551 67.6208Z" fill="#BEC8DC"/>
<path d="M56.6551 74.931H73.1033C74.1126 74.931 74.931 74.1126 74.931 73.1033C74.931 72.094 74.1126 71.2756 73.1033 71.2756H56.6551C55.6458 71.2756 54.8275 72.094 54.8275 73.1033C54.8277 74.1126 55.6458 74.931 56.6551 74.931Z" fill="#DEE3ED"/>
<path d="M36.5518 87.7241C38.5705 87.7241 40.2069 86.0876 40.2069 84.069C40.2069 82.0503 38.5705 80.4138 36.5518 80.4138C34.5331 80.4138 32.8967 82.0503 32.8967 84.069C32.8967 86.0876 34.5331 87.7241 36.5518 87.7241Z" fill="#BEC8DC"/>
<path d="M25.5862 87.7241C27.6048 87.7241 29.2413 86.0876 29.2413 84.069C29.2413 82.0503 27.6048 80.4138 25.5862 80.4138C23.5675 80.4138 21.931 82.0503 21.931 84.069C21.931 86.0876 23.5675 87.7241 25.5862 87.7241Z" fill="#FFDC69"/>
<path d="M58.4828 87.7241C60.5015 87.7241 62.138 86.0876 62.138 84.069C62.138 82.0503 60.5015 80.4138 58.4828 80.4138C56.4642 80.4138 54.8277 82.0503 54.8277 84.069C54.8277 86.0876 56.4642 87.7241 58.4828 87.7241Z" fill="#BEC8DC"/>
<path d="M47.5172 87.7241C49.5359 87.7241 51.1723 86.0876 51.1723 84.069C51.1723 82.0503 49.5359 80.4138 47.5172 80.4138C45.4985 80.4138 43.8621 82.0503 43.8621 84.069C43.8621 86.0876 45.4985 87.7241 47.5172 87.7241Z" fill="#BEC8DC"/>
<path d="M80.4139 87.7241C82.4325 87.7241 84.069 86.0876 84.069 84.069C84.069 82.0503 82.4325 80.4138 80.4139 80.4138C78.3952 80.4138 76.7587 82.0503 76.7587 84.069C76.7587 86.0876 78.3952 87.7241 80.4139 87.7241Z" fill="#BEC8DC"/>
<path d="M69.4482 87.7241C71.4669 87.7241 73.1034 86.0876 73.1034 84.069C73.1034 82.0503 71.4669 80.4138 69.4482 80.4138C67.4296 80.4138 65.7931 82.0503 65.7931 84.069C65.7931 86.0876 67.4296 87.7241 69.4482 87.7241Z" fill="#BEC8DC"/>
</svg>
