<svg width="104" height="104" viewBox="0 0 104 104" fill="none" xmlns="http://www.w3.org/2000/svg">
<path d="M95.844 54.4086H86.121L94.1182 15.3103C94.7812 12.07 92.6945 8.90774 89.4513 8.24515C86.2108 7.57999 83.0502 9.66883 82.3868 12.911L73.8997 54.4086H30.1001L21.613 12.911C20.9474 9.65902 17.7771 7.58106 14.5485 8.24515C11.3076 8.9071 9.21793 12.0672 9.88159 15.3103L17.879 54.4086H8.15603C3.65837 54.4086 0.000244141 58.0667 0.000244141 62.564V79.8364C0.000244141 84.3335 3.65837 87.9918 8.15603 87.9918H9.30406V93.293C9.30406 94.7183 10.464 95.8783 11.8898 95.8783H18.0553C19.1276 95.8783 20.1004 95.2031 20.4769 94.198L22.7981 87.9918H81.2021L83.5233 94.1986C83.8996 95.2034 84.8726 95.8783 85.9449 95.8783H92.1104C93.5362 95.8783 94.6962 94.7183 94.6962 93.293V87.9918H95.8442C100.342 87.9918 104 84.3337 104 79.8364V62.564C104 58.067 100.342 54.4086 95.844 54.4086ZM84.3844 13.3193C84.8219 11.1789 86.9096 9.80719 89.0432 10.2425C91.1811 10.6802 92.5579 12.7629 92.121 14.902L84.0399 54.4086H75.9807L84.3844 13.3193ZM11.879 14.902C11.4424 12.7641 12.8176 10.6804 14.9568 10.2425C17.0985 9.80527 19.1801 11.1874 19.6156 13.3193L28.0194 54.4086H19.9599L11.879 14.902ZM18.5672 93.4838C18.4874 93.6963 18.2823 93.8391 18.0553 93.8391H11.8898C11.5882 93.8391 11.3432 93.5942 11.3432 93.293V87.9918H20.6212L18.5672 93.4838ZM92.6568 93.293C92.6568 93.5942 92.4118 93.8391 92.1102 93.8391H85.9447C85.7177 93.8391 85.5126 93.6963 85.4329 93.4842L83.3788 87.9918H92.6568V93.293ZM101.961 79.8366C101.961 83.2091 99.2164 85.9528 95.844 85.9528C83.4694 85.9528 20.4232 85.9528 8.15603 85.9528C4.78358 85.9528 2.0394 83.2091 2.0394 79.8366V62.5642C2.0394 59.1918 4.78358 56.448 8.15603 56.448H95.844C99.2164 56.448 101.961 59.1918 101.961 62.5642V79.8366Z" fill="black" fill-opacity="0.8"/>
<path d="M92.1031 62.6882H11.8969C9.90249 62.6882 8.27948 64.3108 8.27948 66.3052V76.0955C8.27948 78.0899 9.90249 79.7129 11.8969 79.7129H92.1031C94.0975 79.7129 95.7206 78.0899 95.7206 76.0955V66.3052C95.7206 64.3106 94.0975 62.6882 92.1031 62.6882ZM93.6814 76.0953C93.6814 76.9656 92.9734 77.6736 92.1031 77.6736H11.8969C11.0266 77.6736 10.3186 76.9656 10.3186 76.0953V66.305C10.3186 65.4352 11.0266 64.7274 11.8969 64.7274H92.1031C92.9734 64.7274 93.6814 65.4354 93.6814 66.305V76.0953Z" fill="black" fill-opacity="0.8"/>
<path d="M31.3242 67.231C29.1356 67.231 27.3553 69.0117 27.3553 71.2003C27.3553 73.3889 29.1356 75.1693 31.3242 75.1693C33.5128 75.1693 35.294 73.3889 35.294 71.2003C35.294 69.0117 33.5126 67.231 31.3242 67.231ZM31.3242 73.1299C30.2598 73.1299 29.3947 72.2642 29.3947 71.2003C29.3947 70.1359 30.26 69.2701 31.3242 69.2701C32.3885 69.2701 33.2549 70.1359 33.2549 71.2003C33.2549 72.2642 32.3885 73.1299 31.3242 73.1299Z" fill="black" fill-opacity="0.8"/>
<path d="M20.1663 67.231C17.9777 67.231 16.1965 69.0117 16.1965 71.2003C16.1965 73.3889 17.9779 75.1693 20.1663 75.1693C22.3547 75.1693 24.1352 73.3889 24.1352 71.2003C24.1352 69.0117 22.3549 67.231 20.1663 67.231ZM20.1663 73.1299C19.1018 73.1299 18.2356 72.2642 18.2356 71.2003C18.2356 70.1359 19.1018 69.2701 20.1663 69.2701C21.2307 69.2701 22.0959 70.1359 22.0959 71.2003C22.0959 72.2642 21.2307 73.1299 20.1663 73.1299Z" fill="black" fill-opacity="0.8"/>
<path d="M42.4831 67.231C40.2944 67.231 38.5141 69.0117 38.5141 71.2003C38.5141 73.3889 40.2944 75.1693 42.4831 75.1693C44.6717 75.1693 46.452 73.3889 46.452 71.2003C46.452 69.0117 44.6717 67.231 42.4831 67.231ZM42.4831 73.1299C41.4186 73.1299 40.5535 72.2642 40.5535 71.2003C40.5535 70.1359 41.4188 69.2701 42.4831 69.2701C43.5473 69.2701 44.4126 70.1359 44.4126 71.2003C44.4128 72.2642 43.5475 73.1299 42.4831 73.1299Z" fill="black" fill-opacity="0.8"/>
<rect x="55" y="69" width="32" height="2" fill="black" fill-opacity="0.8"/>
<path d="M51.1711 27.549L57.1931 33.6621C57.0691 34.2114 56.9982 34.7961 56.9982 35.3808C56.9982 39.5979 60.3634 43 64.508 43C65.3936 43 66.2614 42.8405 67.0407 42.557L66.9522 42.4861L62.0992 37.578L62.4888 33.3609L67.0585 33.0951L71.5041 37.7906L71.5926 37.8615C71.8583 37.0818 72 36.249 72 35.3808C72 31.1637 68.6348 27.7617 64.4903 27.7617C63.9058 27.7617 63.3213 27.8325 62.7722 27.9566L47.0443 11.9741C47.1151 11.5843 47.1328 11.1767 47.1328 10.7515C47.1328 6.53436 43.7676 3.13232 39.6231 3.13232C38.7375 3.13232 37.8696 3.29179 37.0903 3.5753L37.1789 3.64617L42.0319 8.55432L41.6422 12.7714L37.0726 13.0372L32.627 8.3417L32.5384 8.27082C32.2727 9.05045 32.131 9.88324 32.131 10.7515C32.131 14.9686 35.4963 18.3706 39.6408 18.3706C40.4024 18.3706 41.1286 18.2466 41.8193 18.034L51.1711 27.549Z" fill="#D9D9D9" stroke="black" stroke-opacity="0.8" stroke-width="2" stroke-miterlimit="10" stroke-linecap="round" stroke-linejoin="round"/>
<path d="M66.2812 2.46265C63.149 1.38604 59.6911 2.22095 57.3711 4.60815H57.3701C55.4484 6.58891 54.5477 9.35405 54.915 12.0886L40.7998 26.3826C38.1864 26.0027 35.537 26.8531 33.6123 28.7039L33.416 28.8992L33.4014 28.9138C30.0864 32.4512 30.2217 38.043 33.7002 41.407C37.0675 44.6693 42.374 44.6703 45.7412 41.408C45.7461 41.4032 45.7511 41.3981 45.7559 41.3933C47.7094 39.4195 48.61 36.6383 48.2217 33.8992L62.2842 19.6062C66.7945 20.2685 71.0831 17.2597 72.0264 12.6921V12.6902C72.3396 11.1608 72.2493 9.57244 71.7627 8.08862L71.7139 7.96753C71.5832 7.69505 71.3342 7.49408 71.0352 7.42554C70.6934 7.34736 70.3351 7.4535 70.0918 7.70581L65.0137 12.9773L62.1885 12.2966L61.5518 9.40112L66.6748 4.10425C66.9123 3.85849 67.0084 3.50789 66.9287 3.17554C66.8489 2.84317 66.6045 2.5738 66.2812 2.46265ZM42.4717 32.3318L43.2998 36.4812L40.6689 39.155L36.6748 38.2244L35.7256 34.1345L38.3604 31.4597L42.4717 32.3318Z" fill="#D9D9D9"/>
<path d="M66.2812 2.46265L66.6063 1.51695L66.6064 1.517L66.2812 2.46265ZM57.3711 4.60815L58.0882 5.30509C57.8999 5.49884 57.6413 5.60815 57.3711 5.60815V4.60815ZM57.3701 4.60815L56.6524 3.91182C56.8407 3.71771 57.0997 3.60815 57.3701 3.60815V4.60815ZM54.915 12.0886L55.9061 11.9555C55.9474 12.2623 55.8441 12.571 55.6266 12.7913L54.915 12.0886ZM40.7998 26.3826L41.5113 27.0852C41.288 27.3114 40.9705 27.4179 40.656 27.3722L40.7998 26.3826ZM33.6123 28.7039L32.907 27.995C32.911 27.991 32.9151 27.987 32.9192 27.983L33.6123 28.7039ZM33.416 28.8992L32.7089 28.1921L32.7107 28.1903L33.416 28.8992ZM33.4014 28.9138L32.6717 28.23C32.6791 28.2221 32.6866 28.2144 32.6943 28.2067L33.4014 28.9138ZM33.7002 41.407L34.3954 40.6881L34.396 40.6888L33.7002 41.407ZM45.7412 41.408L46.4378 42.1254L46.437 42.1262L45.7412 41.408ZM45.7559 41.3933L46.4666 42.0968L46.4664 42.0969L45.7559 41.3933ZM48.2217 33.8992L47.2316 34.0395C47.1879 33.7311 47.2904 33.4199 47.5089 33.1978L48.2217 33.8992ZM62.2842 19.6062L61.5713 18.9049C61.7951 18.6775 62.1138 18.5705 62.4295 18.6168L62.2842 19.6062ZM72.0264 12.6921H73.0264C73.0264 12.7601 73.0194 12.8278 73.0057 12.8944L72.0264 12.6921ZM72.0264 12.6902H71.0264C71.0264 12.6228 71.0332 12.5556 71.0467 12.4895L72.0264 12.6902ZM71.7627 8.08862L72.6901 7.71465C72.6984 7.73519 72.706 7.756 72.7129 7.77704L71.7627 8.08862ZM71.7139 7.96753L72.6156 7.53519C72.6248 7.55437 72.6334 7.57384 72.6413 7.59356L71.7139 7.96753ZM71.0352 7.42554L71.2582 6.45072L71.2586 6.45081L71.0352 7.42554ZM70.0918 7.70581L69.3716 7.01204L69.372 7.01161L70.0918 7.70581ZM65.0137 12.9773L65.7339 13.6711C65.4877 13.9266 65.1244 14.0326 64.7794 13.9495L65.0137 12.9773ZM62.1885 12.2966L61.9543 13.2688C61.5822 13.1792 61.294 12.8851 61.2118 12.5114L62.1885 12.2966ZM61.5518 9.40112L60.5751 9.61589C60.5031 9.28852 60.5999 8.94685 60.833 8.70591L61.5518 9.40112ZM66.6748 4.10425L67.3939 4.79917L67.3936 4.79946L66.6748 4.10425ZM66.9287 3.17554L67.9011 2.94198L67.9011 2.94233L66.9287 3.17554ZM42.4717 32.3318L42.6792 31.3536C43.0701 31.4365 43.3741 31.7442 43.4523 32.1361L42.4717 32.3318ZM43.2998 36.4812L44.2805 36.2855C44.3453 36.6104 44.245 36.9464 44.0126 37.1826L43.2998 36.4812ZM40.6689 39.155L41.3818 39.8564C41.1374 40.1047 40.7814 40.208 40.442 40.1289L40.6689 39.155ZM36.6748 38.2244L36.4479 39.1983C36.0766 39.1118 35.7869 38.8218 35.7007 38.4504L36.6748 38.2244ZM35.7256 34.1345L34.7515 34.3606C34.674 34.0269 34.7728 33.6768 35.0132 33.4328L35.7256 34.1345ZM38.3604 31.4597L37.6479 30.758C37.8873 30.5149 38.2341 30.4107 38.5678 30.4815L38.3604 31.4597ZM66.2812 2.46265L65.9562 3.40834C63.1934 2.45874 60.1407 3.19317 58.0882 5.30509L57.3711 4.60815L56.654 3.91122C59.2415 1.24873 63.1045 0.313354 66.6063 1.51695L66.2812 2.46265ZM57.3711 4.60815V5.60815H57.3701V4.60815V3.60815H57.3711V4.60815ZM57.3701 4.60815L58.0878 5.30449C56.3814 7.06329 55.5792 9.52196 55.9061 11.9555L54.915 12.0886L53.9239 12.2218C53.5162 9.18614 54.5153 6.11453 56.6524 3.91182L57.3701 4.60815ZM54.915 12.0886L55.6266 12.7913L41.5113 27.0852L40.7998 26.3826L40.0883 25.6799L54.2035 11.386L54.915 12.0886ZM40.7998 26.3826L40.656 27.3722C38.3498 27.0369 36.0089 27.7867 34.3054 29.4247L33.6123 28.7039L32.9192 27.983C35.0652 25.9195 38.023 24.9684 40.9437 25.393L40.7998 26.3826ZM33.6123 28.7039L34.3176 29.4127L34.1214 29.608L33.416 28.8992L32.7107 28.1903L32.907 27.995L33.6123 28.7039ZM33.416 28.8992L34.1231 29.6063L34.1085 29.6209L33.4014 28.9138L32.6943 28.2067L32.7089 28.1921L33.416 28.8992ZM33.4014 28.9138L34.131 29.5976C31.1888 32.7373 31.3102 37.7046 34.3954 40.6881L33.7002 41.407L33.005 42.1258C29.1331 38.3814 28.984 32.1651 32.6717 28.23L33.4014 28.9138ZM33.7002 41.407L34.396 40.6888C37.3756 43.5755 42.0661 43.5763 45.0454 40.6898L45.7412 41.408L46.437 42.1262C42.6818 45.7644 36.7593 45.7631 33.0044 42.1252L33.7002 41.407ZM45.7412 41.408L45.0446 40.6905C45.0413 40.6937 45.0393 40.6958 45.0398 40.6953C45.0399 40.6951 45.0403 40.6947 45.0413 40.6937C45.0418 40.6932 45.0439 40.6911 45.0453 40.6897L45.7559 41.3933L46.4664 42.0969C46.4663 42.0971 46.4609 42.1025 46.4574 42.1061C46.4529 42.1105 46.446 42.1175 46.4378 42.1254L45.7412 41.408ZM45.7559 41.3933L45.0451 40.6899C46.7755 38.9415 47.5767 36.4737 47.2316 34.0395L48.2217 33.8992L49.2118 33.7588C49.6433 36.8028 48.6432 39.8975 46.4666 42.0968L45.7559 41.3933ZM48.2217 33.8992L47.5089 33.1978L61.5713 18.9049L62.2842 19.6062L62.997 20.3075L48.9345 34.6005L48.2217 33.8992ZM62.2842 19.6062L62.4295 18.6168C66.4068 19.2008 70.2091 16.5473 71.047 12.4899L72.0264 12.6921L73.0057 12.8944C71.9571 17.972 67.1823 21.3361 62.1389 20.5956L62.2842 19.6062ZM72.0264 12.6921H71.0264V12.6902H72.0264H73.0264V12.6921H72.0264ZM72.0264 12.6902L71.0467 12.4895C71.3251 11.1302 71.2447 9.71836 70.8125 8.40021L71.7627 8.08862L72.7129 7.77704C73.2538 9.42652 73.3541 11.1915 73.006 12.8908L72.0264 12.6902ZM71.7627 8.08862L70.8353 8.46259L70.7864 8.3415L71.7139 7.96753L72.6413 7.59356L72.6901 7.71465L71.7627 8.08862ZM71.7139 7.96753L70.8122 8.39987L70.8118 8.40026L71.0352 7.42554L71.2586 6.45081C71.8556 6.58766 72.3537 6.98904 72.6156 7.53519L71.7139 7.96753ZM71.0352 7.42554L70.8122 8.40036L70.8116 8.40001L70.0918 7.70581L69.372 7.01161C69.8595 6.50619 70.5758 6.29462 71.2582 6.45072L71.0352 7.42554ZM70.0918 7.70581L70.812 8.39959L65.7339 13.6711L65.0137 12.9773L64.2935 12.2835L69.3716 7.01204L70.0918 7.70581ZM65.0137 12.9773L64.7794 13.9495L61.9543 13.2688L62.1885 12.2966L62.4227 11.3244L65.2479 12.0051L65.0137 12.9773ZM62.1885 12.2966L61.2118 12.5114L60.5751 9.61589L61.5518 9.40112L62.5284 9.18636L63.1651 12.0819L62.1885 12.2966ZM61.5518 9.40112L60.833 8.70591L65.956 3.40903L66.6748 4.10425L67.3936 4.79946L62.2706 10.0963L61.5518 9.40112ZM66.6748 4.10425L65.9557 3.40932L65.9563 3.40875L66.9287 3.17554L67.9011 2.94233C68.0608 3.60789 67.8683 4.30831 67.3939 4.79917L66.6748 4.10425ZM66.9287 3.17554L65.9564 3.4091L65.9561 3.40829L66.2812 2.46265L66.6064 1.517C67.2536 1.73955 67.7415 2.27794 67.9011 2.94198L66.9287 3.17554ZM42.4717 32.3318L43.4523 32.1361L44.2805 36.2855L43.2998 36.4812L42.3191 36.6769L41.491 32.5275L42.4717 32.3318ZM43.2998 36.4812L44.0126 37.1826L41.3818 39.8564L40.6689 39.155L39.9561 38.4537L42.587 35.7798L43.2998 36.4812ZM40.6689 39.155L40.442 40.1289L36.4479 39.1983L36.6748 38.2244L36.9017 37.2505L40.8959 38.1811L40.6689 39.155ZM36.6748 38.2244L35.7007 38.4504L34.7515 34.3606L35.7256 34.1345L36.6997 33.9084L37.6489 37.9983L36.6748 38.2244ZM35.7256 34.1345L35.0132 33.4328L37.6479 30.758L38.3604 31.4597L39.0728 32.1615L36.438 34.8363L35.7256 34.1345ZM38.3604 31.4597L38.5678 30.4815L42.6792 31.3536L42.4717 32.3318L42.2642 33.31L38.1529 32.438L38.3604 31.4597Z" fill="black" fill-opacity="0.8"/>
</svg>
