<svg width="137" height="138" viewBox="0 0 137 138" fill="none" xmlns="http://www.w3.org/2000/svg">
<path d="M21.4063 49.5938H6.42192C5.59911 49.5938 4.84909 50.0689 4.49268 50.8158C4.136 51.5629 4.23634 52.45 4.75036 53.0971L12.2431 62.5312L4.75036 71.9654C4.23634 72.6125 4.136 73.4993 4.49268 74.2467C4.84909 74.9936 5.59911 75.4688 6.42192 75.4688H21.4063C22.5885 75.4688 23.5469 74.5033 23.5469 73.3125V51.75C23.5469 50.5592 22.5885 49.5938 21.4063 49.5938Z" fill="#5BBBA9"/>
<path d="M124.757 62.5312L132.25 53.0971C132.764 52.45 132.864 51.5632 132.507 50.8158C132.151 50.0689 131.401 49.5938 130.578 49.5938H115.594C114.412 49.5938 113.453 50.5592 113.453 51.75V73.3125C113.453 74.5033 114.412 75.4688 115.594 75.4688H130.578C131.401 75.4688 132.151 74.9936 132.507 74.2467C132.864 73.4996 132.764 72.6125 132.25 71.9654L124.757 62.5312Z" fill="#5BBBA9"/>
<path d="M70.0138 104.132L52.8888 86.8816C52.0526 86.0398 50.6976 86.0398 49.8614 86.8816L24.1739 112.757C23.5617 113.373 23.3786 114.301 23.7102 115.107C24.0417 115.913 24.822 116.438 25.6876 116.438H40.672V131.531C40.672 132.403 41.1935 133.189 41.9933 133.523C42.2582 133.634 42.5362 133.688 42.812 133.688C43.3691 133.688 43.9169 133.468 44.3263 133.056L70.0138 107.181C70.8497 106.339 70.8497 104.974 70.0138 104.132Z" fill="#5BBBA9"/>
<path d="M112.826 112.757L87.1387 86.8816C86.3025 86.0398 84.9475 86.0398 84.1113 86.8816L66.9863 104.132C66.1504 104.974 66.1504 106.339 66.9863 107.181L92.6738 133.056C93.0835 133.468 93.6309 133.688 94.188 133.688C94.4636 133.688 94.7419 133.634 95.0068 133.523C95.8066 133.19 96.3281 132.404 96.3281 131.531V116.438H111.312C112.178 116.438 112.959 115.912 113.29 115.107C113.622 114.301 113.438 113.373 112.826 112.757Z" fill="#5BBBA9"/>
<path d="M104.438 101.004L68.5 120.75L32.5621 101.004C25.6851 97.2259 21.4062 89.9655 21.4062 82.0747V21.5625C21.4062 20.3717 22.3647 19.4062 23.5469 19.4062C30.6404 19.4062 36.3906 13.614 36.3906 6.46875C36.3906 5.27796 37.3491 4.3125 38.5312 4.3125H98.4688C99.6509 4.3125 100.609 5.27796 100.609 6.46875C100.609 13.614 106.36 19.4062 113.453 19.4062C114.635 19.4062 115.594 20.3717 115.594 21.5625V82.0747C115.594 89.9655 111.315 97.2259 104.438 101.004Z" fill="white"/>
<path d="M113.453 19.4062C106.36 19.4062 100.609 13.614 100.609 6.46875C100.609 5.27796 99.6509 4.3125 98.4688 4.3125H68.5V120.75L104.438 101.004C111.315 97.2259 115.594 89.9655 115.594 82.0747V21.5625C115.594 20.3717 114.635 19.4062 113.453 19.4062Z" fill="white"/>
<path d="M36.6622 93.4325C32.5335 91.1641 29.9688 86.812 29.9688 82.0747V27.0402C36.617 24.93 41.8744 19.634 43.9692 12.9375H93.0308C95.1256 19.6343 100.383 24.93 107.031 27.0402V82.0747C107.031 86.812 104.467 91.1641 100.338 93.4325L68.5 110.925L36.6622 93.4325Z" fill="#555A6E"/>
<path d="M93.0308 12.9375H43.9692C41.8744 19.6343 36.6167 24.93 29.9688 27.0402V35.6652C36.617 33.555 41.8744 28.259 43.9692 21.5625H93.0308C95.1256 28.2593 100.383 33.555 107.031 35.6652V27.0402C100.383 24.93 95.1256 19.6343 93.0308 12.9375Z" fill="#463C4B"/>
<path d="M93.0308 12.9375H68.5V110.925L100.338 93.4325C104.467 91.1641 107.031 86.812 107.031 82.0747V27.0402C100.383 24.93 95.1256 19.6343 93.0308 12.9375Z" fill="#463C4B"/>
<path d="M117.734 90.5625H19.2656C16.901 90.5625 14.9844 88.6318 14.9844 86.25V60.375C14.9844 62.7568 16.901 64.6875 19.2656 64.6875H117.734C120.099 64.6875 122.016 62.7568 122.016 60.375V86.25C122.016 88.6318 120.099 90.5625 117.734 90.5625Z" fill="#5BBBA9"/>
<path d="M68.5 64.6875C80.3223 64.6875 89.9062 55.0336 89.9062 43.125C89.9062 31.2164 80.3223 21.5625 68.5 21.5625C56.6777 21.5625 47.0938 31.2164 47.0938 43.125C47.0938 55.0336 56.6777 64.6875 68.5 64.6875Z" fill="#A5C3DC"/>
<path d="M49.2344 45.2812C48.0522 45.2812 47.0938 44.3158 47.0938 43.125C47.0938 31.2354 56.6966 21.5625 68.5 21.5625C69.6822 21.5625 70.6406 22.528 70.6406 23.7188C70.6406 24.9095 69.6822 25.875 68.5 25.875C59.0572 25.875 51.375 33.6132 51.375 43.125C51.375 44.3158 50.4165 45.2812 49.2344 45.2812Z" fill="#D7E6F0"/>
<path d="M66.3594 49.5938C65.8114 49.5938 65.2636 49.3833 64.8457 48.9623L60.5644 44.6498C59.7285 43.8075 59.7285 42.4426 60.5644 41.6003C61.4006 40.7586 62.7556 40.7586 63.5918 41.6003L66.3594 44.3883L75.5488 35.1316C76.385 34.2898 77.74 34.2898 78.5762 35.1316C79.4121 35.9738 79.4121 37.3387 78.5762 38.181L67.8731 48.9623C67.4551 49.3833 66.9074 49.5938 66.3594 49.5938Z" fill="#4D6C8F"/>
<path d="M19.2656 64.6875H21.4062V56.0625H19.2656C16.901 56.0625 14.9844 57.9932 14.9844 60.375C14.9844 62.7568 16.901 64.6875 19.2656 64.6875Z" fill="#5BBBA9"/>
<path d="M117.734 64.6875H115.594V56.0625H117.734C120.099 56.0625 122.016 57.9932 122.016 60.375C122.016 62.7568 120.099 64.6875 117.734 64.6875Z" fill="#5BBBA9"/>
<path d="M23.9036 70.0781C21.543 70.0781 19.6223 72.0128 19.6223 74.3906V80.8594C19.6223 83.2372 21.543 85.1719 23.9036 85.1719C26.2641 85.1719 28.1848 83.2372 28.1848 80.8594V79.7812C28.1848 79.1859 27.7056 78.7031 27.1145 78.7031H24.9739C24.3828 78.7031 23.9036 79.1859 23.9036 79.7812C23.9036 80.3766 24.3828 80.8594 24.9739 80.8594H26.0442C26.0442 82.0483 25.0839 83.0156 23.9036 83.0156C22.7233 83.0156 21.7629 82.0483 21.7629 80.8594V74.3906C21.7629 73.2017 22.7233 72.2344 23.9036 72.2344C25.0839 72.2344 26.0442 73.2017 26.0442 74.3906V75.4688C26.0442 76.0641 26.5234 76.5469 27.1145 76.5469C27.7056 76.5469 28.1848 76.0641 28.1848 75.4688V74.3906C28.1848 72.0128 26.2641 70.0781 23.9036 70.0781Z" fill="#D7E6F0"/>
<path d="M38.5312 70.0781C37.9402 70.0781 37.4609 70.5609 37.4609 71.1562V80.8594C37.4609 82.0483 36.5006 83.0156 35.3203 83.0156C34.14 83.0156 33.1797 82.0483 33.1797 80.8594V71.1562C33.1797 70.5609 32.7005 70.0781 32.1094 70.0781C31.5183 70.0781 31.0391 70.5609 31.0391 71.1562V80.8594C31.0391 83.2372 32.9597 85.1719 35.3203 85.1719C37.6809 85.1719 39.6016 83.2372 39.6016 80.8594V71.1562C39.6016 70.5609 39.1223 70.0781 38.5312 70.0781Z" fill="#D7E6F0"/>
<path d="M46.7371 70.0781C44.3765 70.0781 42.4558 72.0128 42.4558 74.3906V84.0938C42.4558 84.6891 42.935 85.1719 43.5261 85.1719C44.1172 85.1719 44.5964 84.6891 44.5964 84.0938V78.7031H48.8777V84.0938C48.8777 84.6891 49.3569 85.1719 49.948 85.1719C50.5391 85.1719 51.0183 84.6891 51.0183 84.0938V74.3906C51.0183 72.0128 49.0976 70.0781 46.7371 70.0781ZM44.5964 76.5469V74.3906C44.5964 73.2017 45.5568 72.2344 46.7371 72.2344C47.9173 72.2344 48.8777 73.2017 48.8777 74.3906V76.5469H44.5964Z" fill="#D7E6F0"/>
<path d="M69.5703 70.0781C67.2097 70.0781 65.2891 72.0128 65.2891 74.3906V84.0938C65.2891 84.6891 65.7683 85.1719 66.3594 85.1719C66.9505 85.1719 67.4297 84.6891 67.4297 84.0938V78.7031H71.7109V84.0938C71.7109 84.6891 72.1902 85.1719 72.7812 85.1719C73.3723 85.1719 73.8516 84.6891 73.8516 84.0938V74.3906C73.8516 72.0128 71.9309 70.0781 69.5703 70.0781ZM67.4297 76.5469V74.3906C67.4297 73.2017 68.39 72.2344 69.5703 72.2344C70.7506 72.2344 71.7109 73.2017 71.7109 74.3906V76.5469H67.4297Z" fill="#D7E6F0"/>
<path d="M80.9871 70.0781C78.6265 70.0781 76.7058 72.0128 76.7058 74.3906V84.0938C76.7058 84.6891 77.185 85.1719 77.7761 85.1719C78.3672 85.1719 78.8464 84.6891 78.8464 84.0938V74.3906C78.8464 73.2017 79.8068 72.2344 80.9871 72.2344C82.1673 72.2344 83.1277 73.2017 83.1277 74.3906V84.0938C83.1277 84.6891 83.6069 85.1719 84.198 85.1719C84.7891 85.1719 85.2683 84.6891 85.2683 84.0938V74.3906C85.2683 72.0128 83.3476 70.0781 80.9871 70.0781Z" fill="#D7E6F0"/>
<path d="M59.0237 78.6136C60.9685 78.2075 62.4348 76.4682 62.4348 74.3906C62.4348 72.0128 60.5141 70.0781 58.1536 70.0781H54.9426C54.3515 70.0781 53.8723 70.5609 53.8723 71.1562V84.0938C53.8723 84.6891 54.3515 85.1719 54.9426 85.1719C55.5337 85.1719 56.0129 84.6891 56.0129 84.0938V78.7031H56.5104L60.474 84.6918C60.6803 85.0034 61.0196 85.1719 61.3656 85.1719C61.5695 85.1719 61.7758 85.1134 61.9583 84.9908C62.4501 84.6603 62.5831 83.9911 62.255 83.4957L59.0237 78.6136ZM56.0129 72.2344H58.1536C59.3339 72.2344 60.2942 73.2017 60.2942 74.3906C60.2942 75.5795 59.3339 76.5469 58.1536 76.5469H57.1119C57.0926 76.5463 57.0731 76.5463 57.0538 76.5469H56.0129V72.2344Z" fill="#D7E6F0"/>
<path d="M94.9011 70.0781H88.4792C87.8882 70.0781 87.4089 70.5609 87.4089 71.1562C87.4089 71.7516 87.8882 72.2344 88.4792 72.2344H90.6199V84.0938C90.6199 84.6891 91.0991 85.1719 91.6902 85.1719C92.2813 85.1719 92.7605 84.6891 92.7605 84.0938V72.2344H94.9011C95.4922 72.2344 95.9714 71.7516 95.9714 71.1562C95.9714 70.5609 95.4922 70.0781 94.9011 70.0781Z" fill="#D7E6F0"/>
<path d="M105.604 72.2344C106.195 72.2344 106.675 71.7516 106.675 71.1562C106.675 70.5609 106.195 70.0781 105.604 70.0781H99.1824C98.5913 70.0781 98.1121 70.5609 98.1121 71.1562V84.0938C98.1121 84.6891 98.5913 85.1719 99.1824 85.1719H105.604C106.195 85.1719 106.675 84.6891 106.675 84.0938C106.675 83.4984 106.195 83.0156 105.604 83.0156H100.253V78.7031H103.464C104.055 78.7031 104.534 78.2204 104.534 77.625C104.534 77.0296 104.055 76.5469 103.464 76.5469H100.253V72.2344H105.604Z" fill="#D7E6F0"/>
<path d="M116.307 83.0156H110.956V78.7031H114.167C114.758 78.7031 115.237 78.2204 115.237 77.625C115.237 77.0296 114.758 76.5469 114.167 76.5469H110.956V72.2344H116.307C116.898 72.2344 117.378 71.7516 117.378 71.1562C117.378 70.5609 116.898 70.0781 116.307 70.0781H109.885C109.294 70.0781 108.815 70.5609 108.815 71.1562V84.0938C108.815 84.6891 109.294 85.1719 109.885 85.1719H116.307C116.898 85.1719 117.378 84.6891 117.378 84.0938C117.378 83.4984 116.898 83.0156 116.307 83.0156Z" fill="#D7E6F0"/>
</svg>
