<svg width="116" height="116" viewBox="0 0 116 116" fill="none" xmlns="http://www.w3.org/2000/svg">
<path d="M64.2394 94.5401C65.3818 92.9758 67.0867 90.6558 67.0867 90.6558C65.8564 88.6873 64.9424 86.5079 64.3976 84.1704L59.6345 83.4322C58.6679 83.274 57.9473 82.4479 57.9473 81.4637V76.8764C57.9473 75.8922 58.6679 75.0661 59.6345 74.9079L64.3976 74.1698C64.9424 71.8498 65.8564 69.6704 67.0867 67.6843L64.2394 63.8001C63.6594 63.0091 63.7473 61.9195 64.4327 61.2164L67.6842 57.9649C68.3697 57.2794 69.477 57.1916 70.2679 57.7716C71.8321 58.914 74.1521 60.6188 74.1521 60.6188C76.1206 59.3885 78.3 58.4746 80.6376 57.9298L81.3758 53.1667C81.5339 52.2001 82.36 51.4795 83.3442 51.4795H85.6467V28.5079H2.70667V88.037C2.70667 92.9407 6.67879 96.9304 11.6 96.9304H64.3097C63.7649 96.2273 63.7121 95.2607 64.2394 94.5401Z" fill="#DFDEDB"/>
<path d="M111.606 74.9079L106.861 74.1697C106.316 71.8497 105.402 69.6703 104.172 67.6842C104.172 67.6842 105.876 65.3466 107.019 63.8C107.599 63.0091 107.511 61.9194 106.825 61.2163L103.574 57.9648C102.888 57.2794 101.781 57.1915 100.99 57.7715L97.1061 60.6188C95.1376 59.3885 92.9582 58.4745 90.6206 57.9297C90.6206 57.9297 90.1812 55.0824 89.8824 53.1666C89.7242 52.2 88.8982 51.4794 87.9139 51.4794H83.3267C82.3424 51.4794 81.5164 52.2 81.3582 53.1666L80.62 57.9297C78.3 58.4745 76.1206 59.3885 74.1345 60.6188C74.1345 60.6188 71.797 58.9139 70.2503 57.7715C69.4594 57.1915 68.3697 57.2794 67.6667 57.9648L64.4151 61.2163C63.7297 61.9018 63.6418 63.0091 64.2218 63.8L67.0691 67.6842C65.8388 69.6527 64.9248 71.8321 64.38 74.1697L59.617 74.9079C58.6503 75.066 57.9297 75.8921 57.9297 76.8763V81.4636C57.9297 82.4479 58.6503 83.2739 59.617 83.4321L64.38 84.1703C64.9248 86.4903 65.8388 88.6697 67.0691 90.6557C67.0691 90.6557 65.3642 92.9933 64.2218 94.54C63.6418 95.3309 63.7297 96.4206 64.4151 97.1236L67.6667 100.375C68.3521 101.061 69.4594 101.148 70.2503 100.568L74.1345 97.7212C76.103 98.9515 78.2824 99.8654 80.62 100.41C80.62 100.41 81.0594 103.258 81.3582 105.173C81.5164 106.14 82.3424 106.861 83.3267 106.861H87.9139C88.8982 106.861 89.7242 106.14 89.8824 105.173L90.6206 100.41C92.9406 99.8654 95.12 98.9515 97.1061 97.7212C97.1061 97.7212 99.4436 99.426 100.99 100.568C101.781 101.148 102.871 101.061 103.574 100.375L106.825 97.1236C107.511 96.4382 107.599 95.3309 107.019 94.54L104.172 90.6557C105.402 88.6873 106.316 86.5079 106.861 84.1703L111.624 83.4321C112.59 83.2739 113.311 82.4479 113.311 81.4636V76.8763C113.293 75.8921 112.573 75.066 111.606 74.9079Z" fill="#003B5A"/>
<path d="M85.6291 18.0503C85.6291 13.1467 81.657 9.15698 76.7357 9.15698H11.6C6.69636 9.15698 2.70667 13.1291 2.70667 18.0503V28.5079H85.6291V18.0503Z" fill="#003B5A"/>
<path d="M76.7885 20.5636H54.8364C53.8873 20.5636 53.114 19.7903 53.114 18.8412C53.114 17.8921 53.8873 17.1188 54.8364 17.1188H76.7885C77.7376 17.1188 78.5109 17.8921 78.5109 18.8412C78.5109 19.7903 77.7552 20.5636 76.7885 20.5636Z" fill="white"/>
<path d="M27.7345 22.2861C29.6468 22.2861 31.197 20.7359 31.197 18.8236C31.197 16.9114 29.6468 15.3612 27.7345 15.3612C25.8223 15.3612 24.2721 16.9114 24.2721 18.8236C24.2721 20.7359 25.8223 22.2861 27.7345 22.2861Z" fill="white"/>
<path d="M14.7461 22.2861C16.6583 22.2861 18.2085 20.7359 18.2085 18.8236C18.2085 16.9114 16.6583 15.3612 14.7461 15.3612C12.8338 15.3612 11.2836 16.9114 11.2836 18.8236C11.2836 20.7359 12.8338 22.2861 14.7461 22.2861Z" fill="white"/>
<path d="M40.7055 22.2861C42.6177 22.2861 44.1679 20.7359 44.1679 18.8236C44.1679 16.9114 42.6177 15.3612 40.7055 15.3612C38.7932 15.3612 37.243 16.9114 37.243 18.8236C37.243 20.7359 38.7932 22.2861 40.7055 22.2861Z" fill="white"/>
<path d="M56.0491 64.5733H14.1836C13.2345 64.5733 12.4612 63.7999 12.4612 62.8508C12.4612 61.9018 13.2345 61.1284 14.1836 61.1284H56.0491C56.9982 61.1284 57.7715 61.9018 57.7715 62.8508C57.7891 63.7999 57.0158 64.5733 56.0491 64.5733Z" fill="#5BBBA9"/>
<path d="M47.4897 76.0327H34.5539C33.6048 76.0327 32.8315 75.2594 32.8315 74.3103C32.8315 73.3612 33.6048 72.5879 34.5539 72.5879H47.4897C48.4388 72.5879 49.2121 73.3612 49.2121 74.3103C49.2297 75.2594 48.4564 76.0327 47.4897 76.0327Z" fill="#003B5A"/>
<path d="M27.3127 76.0327H14.1836C13.2345 76.0327 12.4612 75.2594 12.4612 74.3103C12.4612 73.3612 13.2345 72.5879 14.1836 72.5879H27.3127C28.2618 72.5879 29.0352 73.3612 29.0352 74.3103C29.0352 75.2594 28.2618 76.0327 27.3127 76.0327Z" fill="#003B5A"/>
<path d="M49.0188 87.5097H14.1836C13.2345 87.5097 12.4612 86.7363 12.4612 85.7872C12.4612 84.8382 13.2345 84.0648 14.1836 84.0648H49.0188C49.9679 84.0648 50.7412 84.8382 50.7412 85.7872C50.7412 86.7363 49.9855 87.5097 49.0188 87.5097Z" fill="#FF8383"/>
<path d="M49.0188 55.2582C48.4388 55.2582 47.8764 54.9594 47.5424 54.4321C47.0503 53.6236 47.2964 52.5515 48.1048 52.0594L53.5006 48.7376L49.8273 43.9745C49.2473 43.2188 49.3879 42.1291 50.1436 41.5491C50.8994 40.9691 51.9891 41.1097 52.5691 41.8655L57.42 48.1576C57.7188 48.5442 57.8418 49.0364 57.7539 49.5285C57.6661 50.003 57.3848 50.4248 56.963 50.6885L49.9327 55.0297C49.6515 55.1879 49.3351 55.2582 49.0188 55.2582Z" fill="#FF6469"/>
<path d="M36.6279 53.2194C36.1182 53.2194 35.5909 52.9909 35.257 52.5515L30.4061 46.277C30.1073 45.8903 29.9843 45.3982 30.0721 44.906C30.16 44.4315 30.4412 44.0097 30.863 43.746L37.8933 39.4048C38.7018 38.8951 39.7739 39.1588 40.2661 39.9673C40.7582 40.7757 40.5121 41.8479 39.7036 42.34L34.3079 45.6618L37.9812 50.4248C38.5612 51.1806 38.4206 52.2703 37.6649 52.8503C37.3661 53.1139 36.997 53.2194 36.6279 53.2194Z" fill="#FF6469"/>
<path d="M40.3364 58.3515C40.1254 58.3515 39.9321 58.3163 39.7212 58.246C38.8248 57.9121 38.3854 56.9103 38.7194 56.0139L45.8727 37.1903C46.2067 36.2939 47.2085 35.8545 48.1048 36.1885C49.0012 36.5224 49.4406 37.5242 49.1067 38.4206L41.9533 57.2442C41.6897 57.9297 41.0218 58.3515 40.3364 58.3515Z" fill="#FF6469"/>
<path d="M85.6291 90.9019C79.1612 90.9019 73.9061 85.6467 73.9061 79.1788C73.9061 72.711 79.1612 67.4558 85.6291 67.4558C92.097 67.4558 97.3521 72.711 97.3521 79.1788C97.3521 85.6467 92.097 90.9019 85.6291 90.9019Z" fill="white"/>
</svg>
