<svg width="174" height="174" viewBox="0 0 174 174" fill="none" xmlns="http://www.w3.org/2000/svg">
<path d="M10.7952 18.2845H163.212C167.17 18.2845 170.382 21.489 170.382 25.4548V120.966C170.382 124.925 167.178 128.137 163.212 128.137H10.7952C6.83675 128.137 3.625 124.932 3.625 120.966V25.4475C3.625 21.489 6.8295 18.2845 10.7952 18.2845Z" stroke="black" stroke-opacity="0.8" stroke-width="2" stroke-linecap="round" stroke-linejoin="round"/>
<path d="M87 128.122V155.716" stroke="black" stroke-opacity="0.8" stroke-width="2" stroke-linecap="round" stroke-linejoin="round"/>
<path d="M57.8333 155.716H116.167" stroke="black" stroke-opacity="0.8" stroke-width="2" stroke-linecap="round" stroke-linejoin="round"/>
<path d="M3.625 111.614H170.375" stroke="black" stroke-opacity="0.8" stroke-width="2" stroke-linecap="round" stroke-linejoin="round"/>
<path d="M85.7566 72.8236L94.7896 81.9931C94.6036 82.8171 94.4973 83.6941 94.4973 84.5712C94.4973 90.8969 99.5451 96 105.762 96C107.09 96 108.392 95.7607 109.561 95.3355L109.428 95.2292L102.149 87.867L102.733 81.5413L109.588 81.1426L116.256 88.1859L116.389 88.2922C116.787 87.1228 117 85.8736 117 84.5712C117 78.2456 111.952 73.1425 105.735 73.1425C104.859 73.1425 103.982 73.2488 103.158 73.4349L79.5664 49.4611C79.6726 48.8764 79.6992 48.2651 79.6992 47.6272C79.6992 41.3015 74.6514 36.1985 68.4346 36.1985C67.1062 36.1985 65.8044 36.4377 64.6354 36.8629L64.7683 36.9693L72.0478 44.3315L71.4633 50.6572L64.6089 51.0558L57.9404 44.0125L57.8076 43.9062C57.4091 45.0757 57.1965 46.3249 57.1965 47.6272C57.1965 53.9529 62.2444 59.0559 68.4612 59.0559C69.6036 59.0559 70.6928 58.8699 71.729 58.5509L85.7566 72.8236Z" fill="#D9D9D9" stroke="black" stroke-opacity="0.8" stroke-width="2" stroke-miterlimit="10" stroke-linecap="round" stroke-linejoin="round"/>
<path d="M108.259 35.6681C103.745 34.1165 98.7608 35.3175 95.4147 38.7609H95.4137C92.5821 41.6794 91.286 45.7783 91.9039 49.8077L70.3746 71.6085C66.5284 70.9696 62.6024 72.1881 59.7653 74.9161L59.4811 75.1984L59.4674 75.213C54.6805 80.3206 54.8749 88.3982 59.8971 93.254C64.7541 97.9589 72.4066 97.9585 77.2633 93.2531C77.2683 93.2482 77.2731 93.2433 77.278 93.2384C80.1541 90.3326 81.448 86.2126 80.7985 82.1788L102.248 60.3781C108.838 61.4825 115.169 57.1185 116.548 50.4376L116.549 50.4357C117.002 48.2264 116.87 45.9324 116.168 43.7892L116.119 43.6681C115.988 43.3956 115.74 43.1937 115.441 43.1251C115.099 43.0469 114.741 43.1539 114.498 43.4064L106.682 51.5197L101.861 50.3585L100.781 45.4484L108.653 37.3087C108.891 37.063 108.986 36.7124 108.906 36.38C108.826 36.0478 108.582 35.7793 108.259 35.6681ZM72.7076 79.9972L73.9498 86.2218L70.0035 90.2325L64.0114 88.8361L62.5875 82.7013L66.5397 78.6896L72.7076 79.9972Z" fill="#D9D9D9"/>
<path d="M108.259 35.6681L108.584 34.7224L108.585 34.7226L108.259 35.6681ZM95.4147 38.7609L96.1318 39.4578C95.9435 39.6515 95.6849 39.7609 95.4147 39.7609V38.7609ZM95.4137 38.7609L94.696 38.0645C94.8843 37.8704 95.1432 37.7609 95.4137 37.7609V38.7609ZM91.9039 49.8077L92.8924 49.6562C92.9403 49.9687 92.8376 50.2854 92.6155 50.5104L91.9039 49.8077ZM70.3746 71.6085L71.0862 72.3112C70.8578 72.5424 70.5313 72.6483 70.2108 72.595L70.3746 71.6085ZM59.7653 74.9161L59.0606 74.2066C59.0644 74.2028 59.0683 74.199 59.0721 74.1953L59.7653 74.9161ZM59.4811 75.1984L58.75 74.516C58.7586 74.5068 58.7674 74.4977 58.7764 74.4888L59.4811 75.1984ZM59.4674 75.213L60.1985 75.8953L60.197 75.8968L59.4674 75.213ZM59.8971 93.254L60.5922 92.5351L60.5929 92.5358L59.8971 93.254ZM77.2633 93.2531L77.9595 93.9709L77.9591 93.9713L77.2633 93.2531ZM77.278 93.2384L76.567 92.5351L76.5672 92.5349L77.278 93.2384ZM80.7985 82.1788L79.8112 82.3378C79.7606 82.0237 79.8625 81.7043 80.0856 81.4775L80.7985 82.1788ZM102.248 60.3781L101.535 59.6767C101.764 59.4442 102.091 59.3379 102.413 59.3918L102.248 60.3781ZM116.548 50.4376L115.569 50.2353C115.587 50.1504 115.615 50.068 115.654 49.9904L116.548 50.4376ZM116.549 50.4357L117.529 50.6364C117.512 50.7219 117.483 50.8048 117.444 50.8829L116.549 50.4357ZM116.168 43.7892L117.095 43.4152C117.103 43.4357 117.111 43.4565 117.118 43.4776L116.168 43.7892ZM116.119 43.6681L117.02 43.2357C117.03 43.2549 117.038 43.2744 117.046 43.2941L116.119 43.6681ZM115.441 43.1251L115.664 42.1503L115.664 42.1504L115.441 43.1251ZM114.498 43.4064L113.777 42.7126L113.778 42.7124L114.498 43.4064ZM106.682 51.5197L107.402 52.2134C107.156 52.469 106.793 52.5749 106.448 52.4919L106.682 51.5197ZM101.861 50.3585L101.627 51.3307C101.255 51.2411 100.967 50.9471 100.884 50.5734L101.861 50.3585ZM100.781 45.4484L99.8042 45.6632C99.7322 45.3358 99.829 44.9941 100.062 44.7532L100.781 45.4484ZM108.653 37.3087L109.372 38.0037L109.372 38.0039L108.653 37.3087ZM108.906 36.38L109.878 36.1463L109.878 36.1468L108.906 36.38ZM72.7076 79.9972L72.915 79.0189C73.306 79.1018 73.6101 79.4095 73.6883 79.8015L72.7076 79.9972ZM73.9498 86.2218L74.9305 86.0261C74.9953 86.351 74.895 86.687 74.6626 86.9232L73.9498 86.2218ZM70.0035 90.2325L70.7164 90.9339C70.472 91.1823 70.1159 91.2855 69.7766 91.2064L70.0035 90.2325ZM64.0114 88.8361L63.7844 89.81C63.4132 89.7234 63.1234 89.4334 63.0372 89.0621L64.0114 88.8361ZM62.5875 82.7013L61.6134 82.9274C61.536 82.5937 61.6347 82.2435 61.8751 81.9995L62.5875 82.7013ZM66.5397 78.6896L65.8273 77.9878C66.0667 77.7448 66.4134 77.6406 66.7471 77.7113L66.5397 78.6896ZM108.259 35.6681L107.934 36.6138C103.79 35.1891 99.2103 36.2899 96.1318 39.4578L95.4147 38.7609L94.6975 38.064C98.3114 34.3451 103.701 33.0439 108.584 34.7224L108.259 35.6681ZM95.4147 38.7609V39.7609H95.4137V38.7609V37.7609H95.4147V38.7609ZM95.4137 38.7609L96.1314 39.4572C93.5197 42.1491 92.3215 45.9335 92.8924 49.6562L91.9039 49.8077L90.9155 49.9593C90.2505 45.6231 91.6445 41.2097 94.696 38.0645L95.4137 38.7609ZM91.9039 49.8077L92.6155 50.5104L71.0862 72.3112L70.3746 71.6085L69.6631 70.9059L91.1924 49.1051L91.9039 49.8077ZM70.3746 71.6085L70.2108 72.595C66.678 72.0081 63.0692 73.1265 60.4584 75.637L59.7653 74.9161L59.0721 74.1953C62.1356 71.2497 66.3789 69.931 70.5385 70.622L70.3746 71.6085ZM59.7653 74.9161L60.4699 75.6257L60.1857 75.9079L59.4811 75.1984L58.7764 74.4888L59.0606 74.2066L59.7653 74.9161ZM59.4811 75.1984L60.2121 75.8807L60.1985 75.8953L59.4674 75.213L58.7364 74.5307L58.75 74.516L59.4811 75.1984ZM59.4674 75.213L60.197 75.8968C55.7828 80.6068 55.9637 88.0599 60.5922 92.5351L59.8971 93.254L59.202 93.9729C53.7861 88.7365 53.5783 80.0343 58.7378 74.5292L59.4674 75.213ZM59.8971 93.254L60.5929 92.5358C65.0621 96.865 72.0985 96.8646 76.5675 92.5348L77.2633 93.2531L77.9591 93.9713C72.7147 99.0524 64.4462 99.0528 59.2013 93.9723L59.8971 93.254ZM77.2633 93.2531L76.5671 92.5352L76.567 92.5351L77.278 93.2384L77.9889 93.9417C77.9886 93.942 77.974 93.9569 77.9595 93.9709L77.2633 93.2531ZM77.278 93.2384L76.5672 92.5349C79.2155 89.8594 80.4107 86.0611 79.8112 82.3378L80.7985 82.1788L81.7857 82.0199C82.4853 86.364 81.0927 90.8058 77.9887 93.9419L77.278 93.2384ZM80.7985 82.1788L80.0856 81.4775L101.535 59.6767L102.248 60.3781L102.961 61.0794L81.5113 82.8802L80.7985 82.1788ZM102.248 60.3781L102.413 59.3918C108.463 60.4056 114.296 56.4001 115.569 50.2353L116.548 50.4376L117.528 50.6399C116.041 57.837 109.214 62.5593 102.082 61.3643L102.248 60.3781ZM116.548 50.4376L115.654 49.9904L115.655 49.9885L116.549 50.4357L117.444 50.8829L117.443 50.8848L116.548 50.4376ZM116.549 50.4357L115.57 50.235C115.987 48.1961 115.866 46.0787 115.217 44.1008L116.168 43.7892L117.118 43.4776C117.875 45.7862 118.017 48.2567 117.529 50.6364L116.549 50.4357ZM116.168 43.7892L115.24 44.1632L115.191 44.0421L116.119 43.6681L117.046 43.2941L117.095 43.4152L116.168 43.7892ZM116.119 43.6681L115.217 44.1005L115.218 44.0999L115.441 43.1251L115.664 42.1504C116.265 42.288 116.76 42.6928 117.02 43.2357L116.119 43.6681ZM115.441 43.1251L115.218 44.0999L115.218 44.1004L114.498 43.4064L113.778 42.7124C114.264 42.2079 114.98 41.9938 115.664 42.1503L115.441 43.1251ZM114.498 43.4064L115.218 44.1001L107.402 52.2134L106.682 51.5197L105.962 50.8259L113.777 42.7126L114.498 43.4064ZM106.682 51.5197L106.448 52.4919L101.627 51.3307L101.861 50.3585L102.095 49.3863L106.916 50.5475L106.682 51.5197ZM101.861 50.3585L100.884 50.5734L99.8042 45.6632L100.781 45.4484L101.758 45.2335L102.838 50.1437L101.861 50.3585ZM100.781 45.4484L100.062 44.7532L107.934 36.6135L108.653 37.3087L109.372 38.0039L101.5 46.1436L100.781 45.4484ZM108.653 37.3087L107.934 36.6137L107.933 36.6132L108.906 36.38L109.878 36.1468C110.037 36.8102 109.848 37.5112 109.372 38.0037L108.653 37.3087ZM108.906 36.38L107.934 36.6137L107.934 36.6136L108.259 35.6681L108.585 34.7226C109.232 34.9452 109.719 35.4825 109.878 36.1463L108.906 36.38ZM72.7076 79.9972L73.6883 79.8015L74.9305 86.0261L73.9498 86.2218L72.9692 86.4175L71.727 80.1929L72.7076 79.9972ZM73.9498 86.2218L74.6626 86.9232L70.7164 90.9339L70.0035 90.2325L69.2907 89.5312L73.237 85.5204L73.9498 86.2218ZM70.0035 90.2325L69.7766 91.2064L63.7844 89.81L64.0114 88.8361L64.2383 87.8622L70.2305 89.2586L70.0035 90.2325ZM64.0114 88.8361L63.0372 89.0621L61.6134 82.9274L62.5875 82.7013L63.5616 82.4752L64.9855 88.61L64.0114 88.8361ZM62.5875 82.7013L61.8751 81.9995L65.8273 77.9878L66.5397 78.6896L67.252 79.3914L63.2999 83.4031L62.5875 82.7013ZM66.5397 78.6896L66.7471 77.7113L72.915 79.0189L72.7076 79.9972L72.5002 80.9754L66.3323 79.6678L66.5397 78.6896Z" fill="black" fill-opacity="0.8"/>
</svg>
