<svg width="108" height="99" viewBox="0 0 108 99" fill="none" xmlns="http://www.w3.org/2000/svg">
<path d="M64.8185 51.1127C64.7726 51.1127 64.7287 51.1127 64.6847 51.1127C55.0661 51.042 47.2401 43.0651 47.2401 33.3299V25.3204C47.2401 15.6291 55.1254 7.7439 64.8166 7.7439C74.5078 7.7439 82.3931 15.6291 82.3931 25.3204V33.5363C82.3931 38.2567 80.5489 42.6867 77.1987 46.012C73.8829 49.3029 69.4912 51.1127 64.8185 51.1127ZM64.8185 10.0353C56.3905 10.0353 49.5354 16.8924 49.5354 25.3185V33.3279C49.5354 41.8075 56.3389 48.7563 64.7038 48.8175H64.8204C68.8815 48.8175 72.7018 47.2447 75.5876 44.3818C78.5002 41.4903 80.1055 37.6375 80.1055 33.5343V25.3185C80.1017 16.8924 73.2465 10.0353 64.8185 10.0353Z" fill="#333333" fill-opacity="0.88"/>
<path d="M99.7153 84.7444H45.5573C44.9248 84.7444 44.4107 84.2304 44.4107 83.5978L28.7749 72.5076C28.7749 68.3414 31.4562 64.737 35.4466 63.5407L55.8362 57.2722L58.078 48.6187C58.2366 48.0052 58.8634 47.6383 59.475 47.7969C60.0885 47.9556 60.4554 48.5824 60.2968 49.194L57.8945 58.4686C57.7951 58.8546 57.5027 59.1604 57.1224 59.277L36.1117 65.7365C33.0902 66.6424 31.0663 69.3638 31.0663 72.5095L45.7872 82.453H98.5668V72.5076C98.5668 69.3619 96.5429 66.6405 93.5291 65.7365L72.8738 59.2751C72.4954 59.1566 72.2049 58.8527 72.1055 58.4686L69.7033 49.194C69.5446 48.5805 69.9135 47.9556 70.525 47.7969C71.1385 47.6383 71.7634 48.0072 71.9221 48.6187L74.1638 57.2761L94.1999 63.5445C98.1769 64.737 100.858 68.3414 100.858 72.5076V83.5978C100.862 84.2323 100.348 84.7444 99.7153 84.7444Z" fill="#333333" fill-opacity="0.88"/>
<path d="M65 62.7303C61.5906 62.7303 58.3856 61.4021 55.9738 58.9922C55.5266 58.545 55.5266 57.8187 55.9738 57.3715C56.421 56.9243 57.1472 56.9243 57.5964 57.3715C59.5744 59.3495 62.204 60.4389 65 60.4389C67.7979 60.4389 70.4276 59.3495 72.4036 57.3715C72.8508 56.9243 73.5771 56.9243 74.0243 57.3715C74.4715 57.8187 74.4715 58.545 74.0243 58.9922C71.6163 61.4021 68.4113 62.7303 65 62.7303Z" fill="#333333" fill-opacity="0.88"/>
<path d="M81.0381 26.7478H74.1562C71.1596 26.7478 68.2795 25.4998 66.2251 23.3575L66.0493 23.5333C63.9757 25.6069 61.2199 26.7478 58.2882 26.7478H48.597C47.9644 26.7478 47.4503 26.2337 47.4503 25.6011C47.4503 24.9686 47.9644 24.4545 48.597 24.4545H58.2882C60.6083 24.4545 62.7889 23.5505 64.4286 21.9108L65.4817 20.8578C65.7167 20.6227 66.0416 20.5023 66.3741 20.5252C66.7048 20.5482 67.0105 20.7144 67.2093 20.9801C68.8414 23.1549 71.4367 24.4545 74.1562 24.4545H81.0381C81.6707 24.4545 82.1848 24.9686 82.1848 25.6011C82.1848 26.2337 81.6707 26.7478 81.0381 26.7478Z" fill="#333333" fill-opacity="0.88"/>
<path d="M48.4346 34.6102H47.6147C44.8149 34.6102 42.5369 32.3321 42.5369 29.5324C42.5369 28.1774 43.0643 26.9027 44.0237 25.9414C44.9869 24.9801 46.2616 24.4526 47.6147 24.4526H48.4346C49.0671 24.4526 49.5812 24.9667 49.5812 25.5993C49.5812 26.2319 49.0671 26.746 48.4346 26.746H47.6147C46.8713 26.746 46.1718 27.0365 45.6443 27.562C45.1188 28.0876 44.8302 28.787 44.8302 29.5305C44.8302 31.067 46.0801 32.3149 47.6147 32.3149H48.4346C49.0671 32.3149 49.5812 32.829 49.5812 33.4616C49.5812 34.0942 49.0671 34.6102 48.4346 34.6102Z" fill="#333333" fill-opacity="0.88"/>
<path d="M82.0204 34.6102H81.2005C80.5679 34.6102 80.0538 34.0961 80.0538 33.4636C80.0538 32.831 80.5679 32.3169 81.2005 32.3169H82.0204C82.7638 32.3169 83.4633 32.0264 83.9907 31.5009C84.5163 30.9753 84.8068 30.2758 84.8068 29.5324C84.8068 27.9959 83.5569 26.7479 82.0204 26.7479H81.2005C80.5679 26.7479 80.0538 26.2338 80.0538 25.6013C80.0538 24.9687 80.5679 24.4546 81.2005 24.4546H82.0204C84.8201 24.4546 87.1001 26.7326 87.1001 29.5324C87.1001 30.8874 86.5726 32.1621 85.6133 33.1234C84.6501 34.0828 83.3753 34.6102 82.0204 34.6102Z" fill="#333333" fill-opacity="0.88"/>
<path d="M87.92 84.7445C87.2874 84.7445 86.7733 84.2304 86.7733 83.5978V75.7336C86.7733 75.101 87.2874 74.5869 87.92 74.5869C88.5526 74.5869 89.0666 75.101 89.0666 75.7336V83.5978C89.0666 84.2323 88.5526 84.7445 87.92 84.7445Z" fill="#333333" fill-opacity="0.88"/>
<path d="M85.9535 30.6791C85.3209 30.6791 84.8068 30.165 84.8068 29.5324V24.9457C84.8068 12.4299 76.2145 2.99089 64.8185 2.99089C53.4226 2.99089 44.8302 12.4299 44.8302 24.9457V29.5324C44.8302 30.165 44.3161 30.6791 43.6835 30.6791C43.051 30.6791 42.5369 30.165 42.5369 29.5324V24.9457C42.5369 18.2377 44.8455 12.0706 49.0366 7.58137C53.1798 3.14377 58.7832 0.699463 64.8185 0.699463C70.8538 0.699463 76.4591 3.14377 80.6005 7.58137C84.7915 12.0706 87.1002 18.2377 87.1002 24.9457V29.5324C87.1002 30.165 86.5861 30.6791 85.9535 30.6791Z" fill="#333333" fill-opacity="0.88"/>
<path d="M70.7086 39.5255H69.2427C68.6102 39.5255 68.0961 39.0115 68.0961 38.3789C68.0961 37.7463 68.6102 37.2322 69.2427 37.2322H70.7086C74.4333 37.2322 77.9364 35.5906 80.3214 32.7296C80.7266 32.2423 81.4509 32.1773 81.9363 32.5825C82.4237 32.9876 82.4886 33.71 82.0835 34.1974C79.2608 37.5839 75.1156 39.5255 70.7086 39.5255Z" fill="#333333" fill-opacity="0.88"/>
<path d="M66.785 41.492C64.7975 41.492 63.1807 40.095 63.1807 38.3788C63.1807 36.6626 64.7975 35.2656 66.785 35.2656C68.7726 35.2656 70.3894 36.6626 70.3894 38.3788C70.3894 40.095 68.7707 41.492 66.785 41.492ZM66.785 37.5609C66.034 37.5609 65.474 37.9928 65.474 38.3807C65.474 38.7687 66.034 39.2006 66.785 39.2006C67.5361 39.2006 68.096 38.7687 68.096 38.3807C68.096 37.9928 67.5342 37.5609 66.785 37.5609Z" fill="#333333" fill-opacity="0.88"/>
<path d="M26.4432 77.6864L34.1212 85.3277C33.9631 86.0143 33.8728 86.7452 33.8728 87.4761C33.8728 92.7475 38.1634 97.0001 43.4477 97.0001C44.5768 97.0001 45.6834 96.8007 46.677 96.4464L46.5641 96.3578L40.3765 90.2226L40.8733 84.9512L46.6996 84.619L52.3678 90.4884L52.4807 90.577C52.8194 89.6024 53.0001 88.5614 53.0001 87.4761C53.0001 82.2048 48.7094 77.9522 43.4251 77.9522C42.6799 77.9522 41.9347 78.0408 41.2346 78.1958L21.1815 58.2177C21.2718 57.7305 21.2944 57.221 21.2944 56.6895C21.2944 51.4181 17.0037 47.1655 11.7195 47.1655C10.5903 47.1655 9.48381 47.3649 8.49018 47.7192L8.60309 47.8078L14.7907 53.943L14.2939 59.2144L8.4676 59.5466L2.79942 53.6772L2.68651 53.5886C2.34777 54.5632 2.16711 55.6042 2.16711 56.6895C2.16711 61.9608 6.45777 66.2134 11.742 66.2134C12.7131 66.2134 13.639 66.0584 14.5197 65.7926L26.4432 77.6864Z" fill="#D9D9D9" stroke="#333333" stroke-width="2" stroke-miterlimit="10" stroke-linecap="round" stroke-linejoin="round"/>
<path d="M45.613 46.5632C41.7294 45.2545 37.4373 46.2653 34.5515 49.1765L34.5505 49.1775C32.1295 51.624 31.0062 55.0562 31.5066 58.4431L13.321 76.4978C9.92241 75.9667 6.45482 77.084 4.00854 79.5408C4.00379 79.5455 3.99855 79.5505 3.9939 79.5554C-0.140587 83.8804 0.0287971 90.7269 4.36499 94.8376L4.36597 94.8367C8.55075 98.8111 15.1365 98.8114 19.321 94.8367C19.326 94.832 19.3309 94.8268 19.3357 94.822C21.7953 92.3857 22.9182 88.9358 22.3914 85.5447L40.5085 67.4919C46.1489 68.3808 51.5738 64.7113 52.7625 59.0681V59.0671C53.1538 57.1943 53.041 55.2487 52.4333 53.4324L52.3845 53.3132C52.2535 53.0434 52.0064 52.8436 51.7097 52.7751C51.3708 52.697 51.015 52.8014 50.7712 53.0496L44.1863 59.7517L40.2546 58.824L39.3806 54.9294L46.0056 48.2136C46.2476 47.9683 46.346 47.6153 46.2664 47.28C46.1865 46.9447 45.9397 46.6733 45.613 46.5632ZM15.3513 83.6648L16.408 88.8513L13.0525 92.1941L7.95972 91.03L6.74976 85.9177L10.1091 82.575L15.3513 83.6648Z" fill="#D9D9D9"/>
<path d="M45.613 46.5632L45.9324 45.6156L45.9324 45.6156L45.613 46.5632ZM34.5515 49.1765L35.2617 49.8805L35.2586 49.8836L34.5515 49.1765ZM34.5505 49.1775L33.8397 48.4741L33.8434 48.4704L34.5505 49.1775ZM31.5066 58.4431L32.4959 58.2969C32.5423 58.6113 32.4366 58.9289 32.2111 59.1528L31.5066 58.4431ZM13.321 76.4978L14.0256 77.2075C13.7999 77.4316 13.4809 77.5349 13.1667 77.4858L13.321 76.4978ZM4.00854 79.5408L3.29975 78.8354L3.29992 78.8352L4.00854 79.5408ZM3.9939 79.5554L4.71699 80.2462L4.71674 80.2464L3.9939 79.5554ZM4.36499 94.8376L5.0721 95.5448C4.68892 95.9279 4.07026 95.9362 3.677 95.5634L4.36499 94.8376ZM4.36597 94.8367L3.65886 94.1296C4.04229 93.7461 4.66144 93.7382 5.05462 94.1116L4.36597 94.8367ZM19.321 94.8367L20.0101 95.5614L20.0097 95.5617L19.321 94.8367ZM19.3357 94.822L20.0394 95.5325L20.0392 95.5327L19.3357 94.822ZM22.3914 85.5447L21.4032 85.6982C21.3541 85.3823 21.4591 85.062 21.6855 84.8363L22.3914 85.5447ZM40.5085 67.4919L39.8027 66.7836C40.0288 66.5583 40.3489 66.4544 40.6642 66.5041L40.5085 67.4919ZM52.7625 59.0681H53.7625C53.7625 59.1374 53.7553 59.2064 53.741 59.2742L52.7625 59.0681ZM52.7625 59.0671H51.7625C51.7625 58.9984 51.7695 58.9299 51.7836 58.8626L52.7625 59.0671ZM52.4333 53.4324L53.3587 53.0531C53.367 53.0735 53.3747 53.0942 53.3817 53.1151L52.4333 53.4324ZM52.3845 53.3132L53.2841 52.8765C53.2933 52.8954 53.3019 52.9146 53.3098 52.934L52.3845 53.3132ZM51.7097 52.7751L51.9344 51.8007L51.9347 51.8008L51.7097 52.7751ZM50.7712 53.0496L50.0579 52.3487L50.058 52.3487L50.7712 53.0496ZM44.1863 59.7517L44.8996 60.4526C44.6545 60.702 44.297 60.8053 43.9566 60.725L44.1863 59.7517ZM40.2546 58.824L40.025 59.7972C39.6524 59.7093 39.3627 59.4165 39.2789 59.043L40.2546 58.824ZM39.3806 54.9294L38.4049 55.1484C38.3304 54.8165 38.4298 54.4694 38.6687 54.2272L39.3806 54.9294ZM46.0056 48.2136L46.7175 48.9159L46.7175 48.9159L46.0056 48.2136ZM46.2664 47.28L47.2392 47.0484L47.2393 47.049L46.2664 47.28ZM15.3513 83.6648L15.5549 82.6857C15.9461 82.7671 16.2514 83.0736 16.3312 83.4652L15.3513 83.6648ZM16.408 88.8513L17.3878 88.6517C17.455 88.9812 17.352 89.3224 17.1137 89.5598L16.408 88.8513ZM13.0525 92.1941L13.7583 92.9025C13.515 93.1449 13.1644 93.2455 12.8297 93.1689L13.0525 92.1941ZM7.95972 91.03L7.73689 92.0049C7.36535 91.92 7.07438 91.6312 6.9866 91.2603L7.95972 91.03ZM6.74976 85.9177L5.77664 86.148C5.69657 85.8097 5.79796 85.4541 6.0444 85.2089L6.74976 85.9177ZM10.1091 82.575L9.40378 81.8661C9.64207 81.629 9.98355 81.5275 10.3127 81.5959L10.1091 82.575ZM45.613 46.5632L45.2937 47.5109C41.7707 46.3237 37.8783 47.2409 35.2617 49.8805L34.5515 49.1765L33.8413 48.4725C36.9964 45.2896 41.688 44.1854 45.9324 45.6156L45.613 46.5632ZM34.5515 49.1765L35.2586 49.8836L35.2576 49.8846L34.5505 49.1775L33.8434 48.4704L33.8444 48.4694L34.5515 49.1765ZM34.5505 49.1775L35.2613 49.8809C33.0612 52.1042 32.0415 55.2219 32.4959 58.2969L31.5066 58.4431L30.5173 58.5893C29.9708 54.8906 31.1978 51.1439 33.8397 48.4741L34.5505 49.1775ZM31.5066 58.4431L32.2111 59.1528L14.0256 77.2075L13.321 76.4978L12.6165 75.7881L30.802 57.7335L31.5066 58.4431ZM13.321 76.4978L13.1667 77.4858C10.082 77.0038 6.93591 78.0181 4.71717 80.2464L4.00854 79.5408L3.29992 78.8352C5.97372 76.1499 9.76282 74.9297 13.4754 75.5098L13.321 76.4978ZM4.00854 79.5408L4.71734 80.2462C4.71306 80.2505 4.70941 80.2541 4.70739 80.2561C4.70637 80.2571 4.70536 80.2581 4.70488 80.2586C4.70425 80.2592 4.70406 80.2594 4.70397 80.2595C4.70375 80.2597 4.70504 80.2584 4.70702 80.2564C4.70903 80.2544 4.71255 80.2508 4.71699 80.2462L3.9939 79.5554L3.2708 78.8647C3.28358 78.8513 3.29453 78.8405 3.2984 78.8367C3.29955 78.8355 3.3006 78.8345 3.30122 78.8339C3.30198 78.8331 3.30221 78.8329 3.30243 78.8327C3.30286 78.8323 3.30165 78.8335 3.29975 78.8354L4.00854 79.5408ZM3.9939 79.5554L4.71674 80.2464C0.964787 84.1712 1.11902 90.3825 5.05298 94.1119L4.36499 94.8376L3.677 95.5634C-1.06142 91.0713 -1.24596 83.5895 3.27105 78.8644L3.9939 79.5554ZM4.36499 94.8376L3.65788 94.1305L3.65886 94.1296L4.36597 94.8367L5.07307 95.5438L5.0721 95.5448L4.36499 94.8376ZM4.36597 94.8367L5.05462 94.1116C8.85351 97.7195 14.8338 97.7197 18.6324 94.1116L19.321 94.8367L20.0097 95.5617C15.4392 99.9031 8.248 99.9027 3.67732 95.5618L4.36597 94.8367ZM19.321 94.8367L18.632 94.112C18.6265 94.1172 18.6222 94.1214 18.6198 94.1238C18.6174 94.1262 18.6159 94.1277 18.6161 94.1275C18.6163 94.1273 18.6164 94.1272 18.6172 94.1264C18.6178 94.1258 18.6189 94.1246 18.6202 94.1234C18.6226 94.1209 18.6269 94.1165 18.6321 94.1114L19.3357 94.822L20.0392 95.5327C20.042 95.5299 20.0439 95.528 20.0439 95.528C20.044 95.5279 20.0439 95.528 20.0433 95.5287C20.0428 95.5291 20.0418 95.5302 20.0407 95.5313C20.0385 95.5335 20.0345 95.5376 20.0297 95.5424C20.0248 95.5472 20.0181 95.5538 20.0101 95.5614L19.321 94.8367ZM19.3357 94.822L18.6319 94.1116C20.8628 91.9017 21.881 88.7735 21.4032 85.6982L22.3914 85.5447L23.3795 85.3912C23.9554 89.098 22.7277 92.8696 20.0394 95.5325L19.3357 94.822ZM22.3914 85.5447L21.6855 84.8363L39.8027 66.7836L40.5085 67.4919L41.2144 68.2003L23.0972 86.253L22.3914 85.5447ZM40.5085 67.4919L40.6642 66.5041C45.7851 67.3111 50.7063 63.978 51.7839 58.862L52.7625 59.0681L53.741 59.2742C52.4413 65.4447 46.5127 69.4505 40.3529 68.4798L40.5085 67.4919ZM52.7625 59.0681H51.7625V59.0671H52.7625H53.7625V59.0681H52.7625ZM52.7625 59.0671L51.7836 58.8626C52.1387 57.163 52.0363 55.3976 51.485 53.7496L52.4333 53.4324L53.3817 53.1151C54.0456 55.0999 54.1689 57.2255 53.7413 59.2717L52.7625 59.0671ZM52.4333 53.4324L51.508 53.8116L51.4592 53.6925L52.3845 53.3132L53.3098 52.934L53.3587 53.0531L52.4333 53.4324ZM52.3845 53.3132L51.4849 53.75L51.4848 53.7495L51.7097 52.7751L51.9347 51.8008C52.529 51.938 53.0224 52.3375 53.2841 52.8765L52.3845 53.3132ZM51.7097 52.7751L51.4851 53.7496C51.4859 53.7498 51.4863 53.7496 51.4857 53.7497C51.4851 53.7499 51.4848 53.7502 51.4845 53.7504L50.7712 53.0496L50.058 52.3487C50.5445 51.8535 51.255 51.6441 51.9344 51.8007L51.7097 52.7751ZM50.7712 53.0496L51.4846 53.7504L44.8996 60.4526L44.1863 59.7517L43.473 59.0509L50.0579 52.3487L50.7712 53.0496ZM44.1863 59.7517L43.9566 60.725L40.025 59.7972L40.2546 58.824L40.4843 57.8507L44.4159 58.7784L44.1863 59.7517ZM40.2546 58.824L39.2789 59.043L38.4049 55.1484L39.3806 54.9294L40.3563 54.7105L41.2304 58.605L40.2546 58.824ZM39.3806 54.9294L38.6687 54.2272L45.2937 47.5113L46.0056 48.2136L46.7175 48.9159L40.0925 55.6317L39.3806 54.9294ZM46.0056 48.2136L45.2937 47.5114L45.2934 47.5111L46.2664 47.28L47.2393 47.049C47.3984 47.7188 47.2021 48.4246 46.7175 48.9159L46.0056 48.2136ZM46.2664 47.28L45.2936 47.5117L45.2937 47.5109L45.613 46.5632L45.9324 45.6156C46.5871 45.8362 47.0798 46.3791 47.2392 47.0484L46.2664 47.28ZM15.3513 83.6648L16.3312 83.4652L17.3878 88.6517L16.408 88.8513L15.4281 89.0509L14.3714 83.8644L15.3513 83.6648ZM16.408 88.8513L17.1137 89.5598L13.7583 92.9025L13.0525 92.1941L12.3467 91.4856L15.7022 88.1429L16.408 88.8513ZM13.0525 92.1941L12.8297 93.1689L7.73689 92.0049L7.95972 91.03L8.18254 90.0552L13.2753 91.2192L13.0525 92.1941ZM7.95972 91.03L6.9866 91.2603L5.77664 86.148L6.74976 85.9177L7.72287 85.6874L8.93283 90.7997L7.95972 91.03ZM6.74976 85.9177L6.0444 85.2089L9.40378 81.8661L10.1091 82.575L10.8145 83.2838L7.45511 86.6266L6.74976 85.9177ZM10.1091 82.575L10.3127 81.5959L15.5549 82.6857L15.3513 83.6648L15.1478 84.6439L9.90559 83.554L10.1091 82.575Z" fill="black" fill-opacity="0.8"/>
</svg>
