<svg width="110" height="116" viewBox="0 0 110 116" fill="none" xmlns="http://www.w3.org/2000/svg">
<path d="M105.042 91.1045L68.4774 112.355C67.1495 113.127 65.0043 113.127 63.6676 112.355L1.54546 76.4887C0.87689 76.103 0.540891 75.5944 0.542346 75.0857L0.52271 77.7513C0.521255 78.26 0.85715 78.7686 1.52572 79.1551L63.648 115.022C64.9847 115.793 67.1297 115.793 68.4577 115.022L105.023 93.7701C105.683 93.387 106.013 92.8874 106.014 92.3871L106.034 89.7215C106.032 90.2218 105.702 90.7214 105.042 91.1045Z" fill="#4C5671"/>
<path d="M105.027 88.3187C106.364 89.0905 106.37 90.333 105.042 91.1047L68.4774 112.355C67.1494 113.127 65.0044 113.127 63.6676 112.355L1.54543 76.4892C0.219516 75.7237 0.201799 74.4749 1.52981 73.7032L38.0947 52.4525C39.4228 51.6807 41.5786 51.6869 42.9046 52.4524L105.027 88.3187Z" fill="#D3DBEA"/>
<path d="M55.1912 87.1201C56.101 87.6454 56.1058 88.4756 55.2018 89.001L44.6031 95.1602C43.7141 95.6768 42.2658 95.6855 41.356 95.1602L19.2716 82.4098C18.3618 81.8845 18.3721 81.0456 19.2611 80.529L29.8597 74.3697C30.7638 73.8443 32.197 73.8444 33.1068 74.3697L55.1912 87.1201Z" fill="#B4BED7"/>
<path d="M40.6948 57.0871L39.3652 57.8598L36.2404 56.0556L37.5699 55.283L40.6948 57.0871Z" fill="#4C5671"/>
<path d="M44.3668 61.629L41.4259 63.338L38.301 61.5339L41.2419 59.8248L44.3668 61.629Z" fill="#4C5671"/>
<path d="M73.7526 78.5935L70.8118 80.3025L67.6869 78.4984L70.6278 76.7893L73.7526 78.5935Z" fill="#4C5671"/>
<path d="M35.7192 69.4819L32.7808 71.1895L29.6559 69.3853L32.5943 67.6777L35.7192 69.4819Z" fill="#4C5671"/>
<path d="M31.6974 67.1801L28.759 68.8877L25.6342 67.0836L28.5725 65.376L31.6974 67.1801Z" fill="#4C5671"/>
<path d="M27.4986 64.7559L24.5602 66.4635L21.4353 64.6594L24.3737 62.9518L27.4986 64.7559Z" fill="#4C5671"/>
<path d="M49.0925 61.9355L47.763 62.7082L44.6381 60.904L45.9676 60.1313L49.0925 61.9355Z" fill="#4C5671"/>
<path d="M53.2889 64.3584L51.9594 65.131L48.8345 63.3269L50.164 62.5542L53.2889 64.3584Z" fill="#4C5671"/>
<path d="M48.5632 64.0518L45.6223 65.7609L42.4974 63.9567L45.4383 62.2477L48.5632 64.0518Z" fill="#4C5671"/>
<path d="M43.3 65.3017L40.3591 67.0108L37.2343 65.2066L40.1751 63.4976L43.3 65.3017Z" fill="#4C5671"/>
<path d="M57.4878 66.7825L56.1582 67.5552L53.0333 65.7511L54.3629 64.9784L57.4878 66.7825Z" fill="#4C5671"/>
<path d="M52.7621 66.476L49.8212 68.1851L46.6963 66.3809L49.6372 64.6719L52.7621 66.476Z" fill="#4C5671"/>
<path d="M39.5982 67.4531L36.6598 69.1607L33.5349 67.3565L36.4733 65.6489L39.5982 67.4531Z" fill="#4C5671"/>
<path d="M47.4964 67.7246L44.5556 69.4336L41.4307 67.6295L44.3715 65.9204L47.4964 67.7246Z" fill="#4C5671"/>
<path d="M56.9609 68.9002L54.02 70.6093L50.8951 68.8051L53.836 67.0961L56.9609 68.9002Z" fill="#4C5671"/>
<path d="M43.7946 69.8758L40.8562 71.5834L37.7313 69.7793L40.6697 68.0717L43.7946 69.8758Z" fill="#4C5671"/>
<path d="M65.3549 73.7451L62.4141 75.4541L59.2892 73.65L62.2301 71.9409L65.3549 73.7451Z" fill="#4C5671"/>
<path d="M55.8941 72.573L52.9533 74.282L49.8284 72.4778L52.7692 70.7688L55.8941 72.573Z" fill="#4C5671"/>
<path d="M69.5538 76.1693L66.6129 77.8783L63.488 76.0742L66.4289 74.3651L69.5538 76.1693Z" fill="#4C5671"/>
<path d="M52.1923 74.7243L49.2539 76.4319L46.129 74.6278L49.0674 72.9202L52.1923 74.7243Z" fill="#4C5671"/>
<path d="M64.2906 77.4192L61.3497 79.1282L58.2224 77.3227L61.1633 75.6136L64.2906 77.4192Z" fill="#4C5671"/>
<path d="M60.5888 79.5704L57.6504 81.2781L54.5231 79.4725L57.4615 77.7649L60.5888 79.5704Z" fill="#4C5671"/>
<path d="M44.8937 59.5113L43.5641 60.284L40.4392 58.4798L41.7688 57.7072L44.8937 59.5113Z" fill="#4C5671"/>
<path d="M61.6866 69.2067L60.3571 69.9794L57.2322 68.1753L58.5617 67.4026L61.6866 69.2067Z" fill="#4C5671"/>
<path d="M61.1585 71.3222L58.2177 73.0313L55.0928 71.2271L58.0336 69.5181L61.1585 71.3222Z" fill="#4C5671"/>
<path d="M60.0918 74.995L57.1509 76.704L54.026 74.8998L56.9669 73.1908L60.0918 74.995Z" fill="#4C5671"/>
<path d="M56.3899 77.1462L53.4516 78.8538L50.3267 77.0496L53.265 75.342L56.3899 77.1462Z" fill="#4C5671"/>
<path d="M65.8843 71.6287L64.5547 72.4014L61.4298 70.5972L62.7594 69.8246L65.8843 71.6287Z" fill="#4C5671"/>
<path d="M69.4832 88.9917L66.5425 90.7006L63.4176 88.8965L66.3583 87.1875L69.4832 88.9917Z" fill="#4C5671"/>
<path d="M74.281 91.7616L71.3402 93.4705L68.2153 91.6664L71.1561 89.9574L74.281 91.7616Z" fill="#4C5671"/>
<path d="M77.9805 89.6117L75.0421 91.3193L71.9172 89.5151L74.8556 87.8075L77.9805 89.6117Z" fill="#4C5671"/>
<path d="M82.1794 92.0358L79.241 93.7435L76.1161 91.9393L79.0545 90.2317L82.1794 92.0358Z" fill="#4C5671"/>
<path d="M85.8812 89.8845L82.9403 91.5935L79.8154 89.7894L82.7563 88.0803L85.8812 89.8845Z" fill="#4C5671"/>
<path d="M81.6823 87.4603L78.7415 89.1693L75.6166 87.3652L78.5574 85.6561L81.6823 87.4603Z" fill="#4C5671"/>
<path d="M100.069 91.3653L98.7394 92.138L95.6145 90.3338L96.9441 89.5612L100.069 91.3653Z" fill="#4C5671"/>
<path d="M97.9784 92.5802L95.0375 94.2892L91.9126 92.485L94.8535 90.776L97.9784 92.5802Z" fill="#4C5671"/>
<path d="M94.2765 94.7315L91.3356 96.4406L88.2107 94.6364L91.1516 92.9274L94.2765 94.7315Z" fill="#4C5671"/>
<path d="M86.3758 94.4586L83.4374 96.1662L80.3125 94.362L83.2509 92.6544L86.3758 94.4586Z" fill="#4C5671"/>
<path d="M82.6762 96.6085L79.7355 98.3174L76.6106 96.5133L79.5513 94.8043L82.6762 96.6085Z" fill="#4C5671"/>
<path d="M90.5746 96.8828L83.9343 100.742L80.8094 98.9375L87.4497 95.0786L90.5746 96.8828Z" fill="#4C5671"/>
<path d="M90.0776 92.3073L87.1367 94.0164L84.0118 92.2122L86.9527 90.5032L90.0776 92.3073Z" fill="#4C5671"/>
<path d="M93.7795 90.156L90.8386 91.865L87.7137 90.0608L90.6546 88.3518L93.7795 90.156Z" fill="#4C5671"/>
<path d="M87.4748 84.0941L86.1453 84.8667L83.0204 83.0626L84.35 82.2899L87.4748 84.0941Z" fill="#4C5671"/>
<path d="M85.3842 85.309L82.4434 87.0181L79.3185 85.2139L82.2593 83.5049L85.3842 85.309Z" fill="#4C5671"/>
<path d="M91.6737 86.5183L90.3441 87.2909L87.2192 85.4868L88.5488 84.7141L91.6737 86.5183Z" fill="#4C5671"/>
<path d="M89.5831 87.7332L86.6422 89.4423L83.5173 87.6381L86.4582 85.9291L89.5831 87.7332Z" fill="#4C5671"/>
<path d="M68.487 79.842L65.5462 81.551L62.4213 79.7469L65.3621 78.0378L68.487 79.842Z" fill="#4C5671"/>
<path d="M76.8847 84.6904L73.9439 86.3994L66.6201 82.1711L69.561 80.462L76.8847 84.6904Z" fill="#4C5671"/>
<path d="M80.5867 82.539L77.6458 84.2481L71.8833 80.9211L74.8242 79.212L80.5867 82.539Z" fill="#4C5671"/>
<path d="M82.6772 81.3242L81.3477 82.0968L78.2228 80.2927L79.5524 79.52L82.6772 81.3242Z" fill="#4C5671"/>
<path d="M78.4784 78.9L77.1488 79.6726L74.0239 77.8685L75.3535 77.0958L78.4784 78.9Z" fill="#4C5671"/>
<path d="M74.2795 76.4758L72.95 77.2484L69.8251 75.4443L71.1546 74.6716L74.2795 76.4758Z" fill="#4C5671"/>
<path d="M70.0831 74.0529L68.7535 74.8255L65.6262 73.02L66.9558 72.2473L70.0831 74.0529Z" fill="#4C5671"/>
<path d="M47.9934 72.3L45.0551 74.0076L41.9302 72.2035L44.8686 70.4958L47.9934 72.3Z" fill="#4C5671"/>
<path d="M51.6953 70.1488L48.7544 71.8578L45.6295 70.0537L48.5704 68.3446L51.6953 70.1488Z" fill="#4C5671"/>
<path d="M61.0856 84.1431L58.1449 85.8521L55.02 84.048L57.9608 82.339L61.0856 84.1431Z" fill="#4C5671"/>
<path d="M56.8892 81.7204L53.9484 83.4294L33.8524 71.8285L36.7932 70.1195L56.8892 81.7204Z" fill="#4C5671"/>
<path d="M65.2845 86.5675L62.3438 88.2764L59.2189 86.4723L62.1596 84.7633L65.2845 86.5675Z" fill="#4C5671"/>
<path d="M68.9839 84.4174L66.0455 86.125L62.9207 84.3209L65.859 82.6133L68.9839 84.4174Z" fill="#4C5671"/>
<path d="M39.1011 62.8775L36.1603 64.5866L28.8365 60.3582L31.7774 58.6492L39.1011 62.8775Z" fill="#4C5671"/>
<path d="M35.3993 65.0289L32.4609 66.7365L25.1372 62.5081L28.0756 60.8005L35.3993 65.0289Z" fill="#4C5671"/>
<path d="M40.1679 59.2049L37.227 60.9139L32.5385 58.207L35.4793 56.4979L40.1679 59.2049Z" fill="#4C5671"/>
<path d="M95.8701 88.9411L94.5405 89.7138L91.4156 87.9096L92.7452 87.137L95.8701 88.9411Z" fill="#4C5671"/>
<path d="M78.4798 94.1857L75.5391 95.8947L72.4142 94.0906L75.3549 92.3816L78.4798 94.1857Z" fill="#4C5671"/>
<path d="M105.17 37.6149C106.603 38.442 107.773 40.469 107.769 42.1284L107.642 86.8282C107.637 88.4745 106.459 89.1457 105.027 88.3186L42.9045 52.4524C41.4603 51.6185 40.3016 49.5983 40.3063 47.952L40.433 3.25221C40.4377 1.59278 41.604 0.914838 43.0482 1.74868L105.17 37.6149ZM42.913 49.457L105.035 85.3232L105.162 40.6235L43.0397 4.75719L42.913 49.457Z" fill="#4C5671"/>
<path d="M43.0397 4.7572L42.913 49.457L105.035 85.3233L105.162 40.6235L43.0397 4.7572Z" fill="#003B5A"/>
<path d="M109.477 41.1322L109.348 85.8402C109.348 86.6493 109.054 87.2384 108.594 87.4952L106.888 88.4896C107.347 88.2139 107.642 87.6437 107.642 86.8346L107.77 42.1266C107.77 40.4716 106.612 38.4485 105.177 37.6214L43.0454 1.75502C42.3282 1.33207 41.6661 1.29525 41.2063 1.57183L42.913 0.576553C43.3912 0.300872 44.0348 0.337689 44.7705 0.76064L106.884 36.627C108.318 37.4541 109.495 39.4773 109.477 41.1322Z" fill="#272E3A"/>
<path d="M98.844 46.5604L98.7528 74.9171C98.7528 76.012 97.9671 76.4327 97.0128 75.8996L50.5652 49.0693C49.6109 48.5362 48.8533 47.1892 48.8533 46.0956L48.9228 17.7469L98.844 46.5604Z" fill="white"/>
<path d="M98.844 43.3042V46.5605L48.9229 17.747L48.95 14.4908C48.95 13.4058 49.7096 12.9448 50.6593 13.5144L97.1076 40.3196C98.0843 40.8627 98.844 42.2193 98.844 43.3042Z" fill="#4C5671"/>
<path d="M93.5322 39.9497C93.9716 40.2034 94.3315 40.8269 94.3301 41.3387C94.3286 41.8505 93.9663 42.0503 93.527 41.7966C93.0816 41.5394 92.7216 40.9227 92.723 40.4109C92.7245 39.8991 93.0868 39.6926 93.5322 39.9497Z" fill="#FFDD94"/>
<path d="M91.1126 38.5528C91.558 38.8099 91.918 39.4334 91.9165 39.9452C91.9151 40.457 91.5528 40.6568 91.1074 40.3996C90.662 40.1425 90.308 39.5292 90.3095 39.0174C90.3109 38.5056 90.6672 38.2956 91.1126 38.5528Z" fill="#003B5A"/>
<path d="M66.7014 42.9674C66.6722 47.6073 63.3753 49.4736 59.349 47.1401C55.2936 44.8052 52.0259 39.1466 52.0259 34.5067C52.0551 29.8383 55.352 27.9721 59.3782 30.3056C63.4335 32.6391 66.7014 38.3004 66.7014 42.9674Z" fill="#4C5671"/>
<path d="M65.5595 42.4553C65.5595 46.3686 62.7589 47.9796 59.3444 45.9865C55.9299 44.0289 53.1677 39.2333 53.1677 35.2825C53.1677 31.3692 55.9683 29.7957 59.3828 31.7533C62.7971 33.709 65.5595 38.5046 65.5595 42.4553Z" fill="white"/>
<path d="M57.4876 34.1216L62.7914 40.6435L57.468 41.0338L57.4876 34.1216Z" fill="#4C5671"/>
<path d="M95.9457 41.3431C96.3911 41.6003 96.7511 42.2238 96.7496 42.7356C96.7482 43.2474 96.3859 43.4471 95.9405 43.19C95.5011 42.9363 95.1411 42.3196 95.1426 41.8077C95.144 41.2959 95.5063 41.0894 95.9457 41.3431Z" fill="#ED5D71"/>
<path d="M78.7716 43.6323L78.7644 46.1707L70.7412 41.5385L70.7484 39.0001L78.7716 43.6323Z" fill="#ED5D71"/>
<path d="M85.105 52.6911L85.0978 55.2295L70.7246 46.9311L70.7318 44.3927L85.105 52.6911Z" fill="#FFDD94"/>
<path d="M83.838 62.7636L83.8308 65.3088L70.6915 57.7228L70.6987 55.1776L83.838 62.7636Z" fill="#4C5671"/>
<path d="M85.7807 58.4834L85.7735 61.0214L79.0804 57.1572L79.0876 54.6191L85.7807 58.4834Z" fill="#96D696"/>
<path d="M95.9135 53.5291L95.9063 56.0675L81.2562 47.6093L81.2634 45.0709L95.9135 53.5291Z" fill="#ED5D71"/>
<path d="M87.9068 43.5047L87.8996 46.0427L70.7577 36.1458L70.7649 33.6078L87.9068 43.5047Z" fill="#003B5A"/>
<path d="M95.8804 64.3145L95.8732 66.8525L87.2963 61.9006L87.3035 59.3625L95.8804 64.3145Z" fill="#96D696"/>
<path d="M95.8969 58.9217L95.8898 61.4601L86.6206 56.1086L86.6278 53.5702L95.8969 58.9217Z" fill="#FFDD94"/>
<path d="M76.5958 53.1805L76.5886 55.7185L70.7081 52.3234L70.7153 49.7854L76.5958 53.1805Z" fill="#96D696"/>
<path d="M95.8638 69.7067L95.8566 72.2519L85.2814 66.1462L85.2886 63.6011L95.8638 69.7067Z" fill="#4C5671"/>
<path d="M95.9301 48.1369L95.9229 50.6749L89.3502 46.8802L89.3574 44.3422L95.9301 48.1369Z" fill="#003B5A"/>
</svg>
