<svg width="188" height="188" viewBox="0 0 188 188" fill="none" xmlns="http://www.w3.org/2000/svg">
<path d="M176.617 38.3711V137.181C176.617 139.311 174.855 141.073 172.725 141.073H110.523L107.219 145.186H80.7812L77.4766 141.073H15.275C13.1453 141.073 11.3828 139.311 11.3828 137.181V38.3711C11.3828 36.2414 13.1453 34.4789 15.275 34.4789H172.725C174.855 34.4789 176.617 36.2047 176.617 38.3711Z" stroke="black" stroke-opacity="0.8" stroke-width="2" stroke-miterlimit="10" stroke-linecap="round" stroke-linejoin="round"/>
<path d="M15.9727 147.352H25.8867" stroke="black" stroke-opacity="0.8" stroke-width="2" stroke-miterlimit="10" stroke-linecap="round" stroke-linejoin="round"/>
<path d="M32.4961 147.352H35.8008" stroke="black" stroke-opacity="0.8" stroke-width="2" stroke-miterlimit="10" stroke-linecap="round" stroke-linejoin="round"/>
<path d="M42.4102 147.352H52.3242" stroke="black" stroke-opacity="0.8" stroke-width="2" stroke-miterlimit="10" stroke-linecap="round" stroke-linejoin="round"/>
<path d="M177.168 141.184H110.34L107.035 145.296H94H80.9648L77.6602 141.184H10.832C8.48203 141.184 6.57266 143.46 6.42578 146.324C6.42578 146.545 6.4625 146.765 6.53594 146.985C7.56406 149.702 9.62031 151.942 12.3375 153.007C13.2555 153.374 14.1367 153.558 15.2016 153.558H94H172.798C173.9 153.558 174.745 153.411 175.662 153.007C178.38 151.942 180.436 149.702 181.464 146.985C181.538 146.765 181.574 146.545 181.574 146.324C181.427 143.46 179.518 141.184 177.168 141.184Z" stroke="black" stroke-opacity="0.8" stroke-width="2" stroke-miterlimit="10" stroke-linecap="round" stroke-linejoin="round"/>
<path d="M92.6091 94.3591L101.974 103.712C101.781 104.553 101.671 105.448 101.671 106.342C101.671 112.795 106.904 118 113.349 118C114.726 118 116.076 117.756 117.288 117.322L117.15 117.214L109.603 109.704L110.209 103.252L117.315 102.845L124.229 110.029L124.367 110.138C124.78 108.945 125 107.671 125 106.342C125 99.8898 119.767 94.6844 113.322 94.6844C112.413 94.6844 111.504 94.7929 110.65 94.9827L86.1915 70.5284C86.3016 69.932 86.3292 69.3084 86.3292 68.6578C86.3292 62.2053 81.096 57 74.6508 57C73.2737 57 71.924 57.244 70.7121 57.6778L70.8498 57.7862L78.3967 65.296L77.7908 71.7484L70.6846 72.1551L63.7712 64.9707L63.6335 64.8622C63.2203 66.0551 63 67.3293 63 68.6578C63 75.1102 68.2332 80.3156 74.6784 80.3156C75.8627 80.3156 76.992 80.1258 78.0662 79.8004L92.6091 94.3591Z" fill="#D9D9D9" stroke="black" stroke-opacity="0.8" stroke-width="2" stroke-miterlimit="10" stroke-linecap="round" stroke-linejoin="round"/>
<path d="M115.921 56.4763C111.407 54.9499 106.435 56.0442 102.982 59.2996L102.653 59.6218C99.7225 62.5941 98.3777 66.7734 99.0195 70.8845L76.6787 93.1433C72.5667 92.4629 68.3597 93.806 65.4004 96.7888C65.3956 96.7936 65.3904 96.7986 65.3857 96.8035C60.4288 102.007 60.6318 110.244 65.8311 115.19L65.832 115.189C70.8517 119.973 78.7531 119.974 83.7725 115.189C83.7774 115.184 83.7823 115.179 83.7871 115.175C86.7639 112.215 88.1063 108.015 87.4316 103.899L109.689 81.6404C116.497 82.776 123.064 78.3468 124.496 71.5232V71.5212C124.965 69.2683 124.829 66.9289 124.101 64.7439C123.99 64.4134 123.716 64.164 123.377 64.0857C123.037 64.0074 122.681 64.1121 122.438 64.3611L114.318 72.6531L109.271 71.4568L108.147 66.4324L116.314 58.1248C116.556 57.8793 116.653 57.526 116.573 57.1912C116.493 56.8565 116.247 56.5866 115.921 56.4763ZM79.0811 101.677L80.3691 108.025L76.2773 112.117L70.0654 110.692L68.5889 104.435L72.6865 100.343L79.0811 101.677Z" fill="#D9D9D9"/>
<path d="M115.921 56.4763L116.241 55.529L116.241 55.529L115.921 56.4763ZM102.982 59.2996L102.283 58.5851C102.287 58.5807 102.292 58.5763 102.296 58.572L102.982 59.2996ZM102.653 59.6218L101.941 58.9197C101.945 58.9155 101.95 58.9114 101.954 58.9073L102.653 59.6218ZM99.0195 70.8845L100.008 70.7303C100.057 71.0464 99.952 71.3671 99.7253 71.5929L99.0195 70.8845ZM76.6787 93.1433L77.3845 93.8517C77.1565 94.0789 76.833 94.1824 76.5155 94.1299L76.6787 93.1433ZM65.4004 96.7888L66.1103 97.4931L66.11 97.4934L65.4004 96.7888ZM65.3857 96.8035L64.6617 96.1138L64.6619 96.1135L65.3857 96.8035ZM65.8311 115.19L66.5382 115.897C66.1545 116.281 65.5349 116.289 65.1418 115.915L65.8311 115.19ZM65.832 115.189L65.1249 114.482C65.5088 114.098 66.1289 114.091 66.522 114.465L65.832 115.189ZM83.7725 115.189L84.4626 115.913L84.4624 115.913L83.7725 115.189ZM83.7871 115.175L84.4921 115.884L84.492 115.884L83.7871 115.175ZM87.4316 103.899L86.4448 104.061C86.3927 103.743 86.4968 103.42 86.7245 103.192L87.4316 103.899ZM109.689 81.6404L108.982 80.9333C109.211 80.7049 109.535 80.6009 109.854 80.654L109.689 81.6404ZM124.496 71.5232H125.496C125.496 71.5922 125.489 71.6611 125.475 71.7286L124.496 71.5232ZM124.496 71.5212H123.496C123.496 71.4528 123.503 71.3845 123.517 71.3174L124.496 71.5212ZM124.101 64.7439L125.049 64.4275L125.049 64.4277L124.101 64.7439ZM123.377 64.0857L123.602 63.1112L123.602 63.1113L123.377 64.0857ZM122.438 64.3611L123.152 65.0607L123.152 65.0607L122.438 64.3611ZM114.318 72.6531L115.033 73.3527C114.788 73.6032 114.429 73.707 114.088 73.6261L114.318 72.6531ZM109.271 71.4568L109.041 72.4298C108.668 72.3416 108.379 72.0485 108.296 71.6751L109.271 71.4568ZM108.147 66.4324L107.172 66.6507C107.097 66.3195 107.196 65.9733 107.434 65.7313L108.147 66.4324ZM116.314 58.1248L117.028 58.8257L117.028 58.8258L116.314 58.1248ZM116.573 57.1912L117.546 56.9588L117.546 56.9595L116.573 57.1912ZM79.0811 101.677L79.2853 100.698C79.6765 100.779 79.9816 101.086 80.0611 101.478L79.0811 101.677ZM80.3691 108.025L81.3492 107.826C81.4159 108.155 81.3134 108.495 81.0762 108.732L80.3691 108.025ZM76.2773 112.117L76.9845 112.824C76.741 113.068 76.3894 113.169 76.0538 113.092L76.2773 112.117ZM70.0654 110.692L69.8419 111.667C69.4704 111.582 69.1797 111.293 69.0922 110.922L70.0654 110.692ZM68.5889 104.435L67.6156 104.665C67.536 104.327 67.6368 103.973 67.8822 103.728L68.5889 104.435ZM72.6865 100.343L71.9798 99.635C72.2183 99.3968 72.5608 99.2948 72.8907 99.3636L72.6865 100.343ZM115.921 56.4763L115.601 57.4236C111.438 56.0159 106.852 57.0251 103.668 60.0271L102.982 59.2996L102.296 58.572C106.017 55.0634 111.377 53.884 116.241 55.529L115.921 56.4763ZM102.982 59.2996L103.682 60.014L103.353 60.3363L102.653 59.6218L101.954 58.9073L102.283 58.5851L102.982 59.2996ZM102.653 59.6218L103.365 60.324C100.657 63.0707 99.4146 66.9324 100.008 70.7303L99.0195 70.8845L98.0315 71.0388C97.3407 66.6144 98.7881 62.1174 101.941 58.9197L102.653 59.6218ZM99.0195 70.8845L99.7253 71.5929L77.3845 93.8517L76.6787 93.1433L75.9729 92.4349L98.3137 70.1761L99.0195 70.8845ZM76.6787 93.1433L76.5155 94.1299C72.7215 93.5021 68.8404 94.7414 66.1103 97.4931L65.4004 96.7888L64.6905 96.0845C67.879 92.8706 72.4119 91.4237 76.842 92.1567L76.6787 93.1433ZM65.4004 96.7888L66.11 97.4934C66.1054 97.4981 66.1014 97.502 66.0992 97.5042C66.098 97.5053 66.097 97.5064 66.0964 97.5069C66.0957 97.5076 66.0956 97.5078 66.0954 97.5079C66.0952 97.5081 66.0966 97.5067 66.0987 97.5046C66.1009 97.5024 66.1047 97.4985 66.1095 97.4935L65.3857 96.8035L64.6619 96.1135C64.6754 96.0994 64.6869 96.088 64.6906 96.0843C64.6917 96.0832 64.6928 96.0822 64.6933 96.0816C64.694 96.081 64.6942 96.0808 64.6943 96.0807C64.6946 96.0804 64.6931 96.0819 64.6908 96.0842L65.4004 96.7888ZM65.3857 96.8035L66.1098 97.4932C61.5336 102.298 61.7217 109.901 66.5203 114.466L65.8311 115.19L65.1418 115.915C59.5418 110.587 59.324 101.717 64.6617 96.1138L65.3857 96.8035ZM65.8311 115.19L65.1239 114.483L65.1249 114.482L65.832 115.189L66.5391 115.896L66.5382 115.897L65.8311 115.19ZM65.832 115.189L66.522 114.465C71.1554 118.881 78.4495 118.882 83.0825 114.465L83.7725 115.189L84.4624 115.913C79.0567 121.066 70.548 121.065 65.1421 115.913L65.832 115.189ZM83.7725 115.189L83.0823 114.466C83.0775 114.47 83.0737 114.474 83.0715 114.476C83.0693 114.478 83.0679 114.48 83.0681 114.48C83.0681 114.479 83.0683 114.479 83.069 114.479C83.0695 114.478 83.0705 114.477 83.0716 114.476C83.0738 114.474 83.0776 114.47 83.0822 114.465L83.7871 115.175L84.492 115.884C84.4942 115.882 84.4956 115.88 84.4953 115.881C84.4952 115.881 84.495 115.881 84.4943 115.882C84.4938 115.882 84.4927 115.883 84.4916 115.884C84.4876 115.888 84.4765 115.9 84.4626 115.913L83.7725 115.189ZM83.7871 115.175L83.0821 114.465C85.8285 111.735 87.0675 107.86 86.4448 104.061L87.4316 103.899L88.4185 103.737C89.1451 108.17 87.6994 112.696 84.4921 115.884L83.7871 115.175ZM87.4316 103.899L86.7245 103.192L108.982 80.9333L109.689 81.6404L110.397 82.3475L88.1388 104.606L87.4316 103.899ZM109.689 81.6404L109.854 80.654C116.136 81.7019 122.196 77.6136 123.517 71.3178L124.496 71.5232L125.475 71.7286C123.932 79.0801 116.858 83.85 109.525 82.6268L109.689 81.6404ZM124.496 71.5232H123.496V71.5212H124.496H125.496V71.5232H124.496ZM124.496 71.5212L123.517 71.3174C123.95 69.2375 123.824 67.0776 123.152 65.0601L124.101 64.7439L125.049 64.4277C125.833 66.7803 125.98 69.2992 125.475 71.7251L124.496 71.5212ZM124.101 64.7439L123.152 65.0603L123.152 65.0601L123.377 64.0857L123.602 63.1113C124.281 63.268 124.829 63.7672 125.049 64.4275L124.101 64.7439ZM123.377 64.0857L123.152 65.0602L123.152 65.0607L122.438 64.3611L121.723 63.6615C122.21 63.1642 122.922 62.9545 123.602 63.1112L123.377 64.0857ZM122.438 64.3611L123.152 65.0607L115.033 73.3527L114.318 72.6531L113.604 71.9535L121.723 63.6615L122.438 64.3611ZM114.318 72.6531L114.088 73.6261L109.041 72.4298L109.271 71.4568L109.502 70.4837L114.549 71.68L114.318 72.6531ZM109.271 71.4568L108.296 71.6751L107.172 66.6507L108.147 66.4324L109.123 66.2141L110.247 71.2385L109.271 71.4568ZM108.147 66.4324L107.434 65.7313L115.601 57.4237L116.314 58.1248L117.028 58.8258L108.861 67.1334L108.147 66.4324ZM116.314 58.1248L115.601 57.4238C115.6 57.4246 115.6 57.4253 115.6 57.4248C115.601 57.4242 115.601 57.4236 115.6 57.4229L116.573 57.1912L117.546 56.9595C117.705 57.6269 117.512 58.3331 117.028 58.8257L116.314 58.1248ZM116.573 57.1912L115.601 57.4235L115.601 57.4236L115.921 56.4763L116.241 55.529C116.893 55.7494 117.386 56.2892 117.546 56.9588L116.573 57.1912ZM79.0811 101.677L80.0611 101.478L81.3492 107.826L80.3691 108.025L79.3891 108.224L78.101 101.875L79.0811 101.677ZM80.3691 108.025L81.0762 108.732L76.9845 112.824L76.2773 112.117L75.5702 111.41L79.662 107.318L80.3691 108.025ZM76.2773 112.117L76.0538 113.092L69.8419 111.667L70.0654 110.692L70.289 109.717L76.5009 111.142L76.2773 112.117ZM70.0654 110.692L69.0922 110.922L67.6156 104.665L68.5889 104.435L69.5621 104.206L71.0387 110.462L70.0654 110.692ZM68.5889 104.435L67.8822 103.728L71.9798 99.635L72.6865 100.343L73.3932 101.05L69.2956 105.143L68.5889 104.435ZM72.6865 100.343L72.8907 99.3636L79.2853 100.698L79.0811 101.677L78.8768 102.655L72.4823 101.321L72.6865 100.343Z" fill="black" fill-opacity="0.8"/>
</svg>
