<svg width="106" height="106" viewBox="0 0 106 106" fill="none" xmlns="http://www.w3.org/2000/svg">
<path d="M76.0185 106H29.9816C26.5457 106 23.7586 103.213 23.7586 99.7771V6.22293C23.7586 2.78707 26.5457 0 29.9816 0H76.0166C79.4543 0 82.2414 2.78707 82.2414 6.22293V99.7752C82.2414 103.213 79.4543 106 76.0185 106Z" fill="#003B5A"/>
<path d="M82.2414 10.9656H23.7586V84.069H82.2414V10.9656Z" fill="#E7ECED"/>
<path d="M53 100.517C56.028 100.517 58.4828 98.0626 58.4828 95.0345C58.4828 92.0065 56.028 89.5518 53 89.5518C49.972 89.5518 47.5172 92.0065 47.5172 95.0345C47.5172 98.0626 49.972 100.517 53 100.517Z" fill="white"/>
<path d="M53 7.31032H45.6896C44.679 7.31032 43.8621 6.49339 43.8621 5.48274C43.8621 4.47208 44.679 3.65515 45.6896 3.65515H53C54.0106 3.65515 54.8276 4.47208 54.8276 5.48274C54.8276 6.49339 54.0106 7.31032 53 7.31032Z" fill="white"/>
<path d="M60.3104 7.31032H58.4828C57.4721 7.31032 56.6552 6.49339 56.6552 5.48274C56.6552 4.47208 57.4721 3.65515 58.4828 3.65515H60.3104C61.321 3.65515 62.1379 4.47208 62.1379 5.48274C62.1379 6.49339 61.321 7.31032 60.3104 7.31032Z" fill="white"/>
<path d="M56.5857 31.1037H49.4143C48.3671 31.1037 47.5172 30.2539 47.5172 29.2067V22.0352C47.5172 20.988 48.3671 20.1382 49.4143 20.1382H56.5857C57.6329 20.1382 58.4828 20.988 58.4828 22.0352V29.2067C58.4828 30.2539 57.6329 31.1037 56.5857 31.1037Z" fill="#003B5A"/>
<path d="M40.1375 31.1037H32.966C31.9188 31.1037 31.069 30.2539 31.069 29.2067V22.0352C31.069 20.988 31.9188 20.1382 32.966 20.1382H40.1375C41.1847 20.1382 42.0345 20.988 42.0345 22.0352V29.2067C42.0345 30.2539 41.1847 31.1037 40.1375 31.1037Z" fill="#88C057"/>
<path d="M73.034 31.1037H65.8625C64.8153 31.1037 63.9655 30.2539 63.9655 29.2067V22.0352C63.9655 20.988 64.8153 20.1382 65.8625 20.1382H73.034C74.0812 20.1382 74.931 20.988 74.931 22.0352V29.2067C74.931 30.2539 74.0812 31.1037 73.034 31.1037Z" fill="#DC691D"/>
<path d="M56.5857 47.5173H49.4143C48.3671 47.5173 47.5172 46.6674 47.5172 45.6202V38.4488C47.5172 37.4016 48.3671 36.5518 49.4143 36.5518H56.5857C57.6329 36.5518 58.4828 37.4016 58.4828 38.4488V45.6202C58.4828 46.6674 57.6329 47.5173 56.5857 47.5173Z" fill="#EBBA16"/>
<path d="M40.1375 47.5173H32.966C31.9188 47.5173 31.069 46.6674 31.069 45.6202V38.4488C31.069 37.4016 31.9188 36.5518 32.966 36.5518H40.1375C41.1847 36.5518 42.0345 37.4016 42.0345 38.4488V45.6202C42.0345 46.6674 41.1847 47.5173 40.1375 47.5173Z" fill="#7383BF"/>
<path d="M73.034 47.5173H65.8625C64.8153 47.5173 63.9655 46.6674 63.9655 45.6202V38.4488C63.9655 37.4016 64.8153 36.5518 65.8625 36.5518H73.034C74.0812 36.5518 74.931 37.4016 74.931 38.4488V45.6202C74.931 46.6674 74.0812 47.5173 73.034 47.5173Z" fill="#DD352E"/>
<path d="M56.5857 63.9655H49.4143C48.3671 63.9655 47.5172 63.1157 47.5172 62.0685V54.897C47.5172 53.8498 48.3671 53 49.4143 53H56.5857C57.6329 53 58.4828 53.8498 58.4828 54.897V62.0685C58.4828 63.1157 57.6329 63.9655 56.5857 63.9655Z" fill="#A485BE"/>
<path d="M40.1375 63.9655H32.966C31.9188 63.9655 31.069 63.1157 31.069 62.0685V54.897C31.069 53.8498 31.9188 53 32.966 53H40.1375C41.1847 53 42.0345 53.8498 42.0345 54.897V62.0685C42.0345 63.1157 41.1847 63.9655 40.1375 63.9655Z" fill="#EA6248"/>
<path d="M73.034 63.9655H65.8625C64.8153 63.9655 63.9655 63.1157 63.9655 62.0685V54.897C63.9655 53.8498 64.8153 53 65.8625 53H73.034C74.0812 53 74.931 53.8498 74.931 54.897V62.0685C74.931 63.1157 74.0812 63.9655 73.034 63.9655Z" fill="#25AE88"/>
</svg>
