<svg width="150" height="150" viewBox="0 0 150 150" fill="none" xmlns="http://www.w3.org/2000/svg">
<path fill-rule="evenodd" clip-rule="evenodd" d="M125.666 69.8818C127.95 66.2072 129.617 62.1838 130.601 57.9709L134.913 56.8781L140.172 55.5548C140.787 51.1162 140.787 46.6141 140.172 42.1755L134.912 40.8434L130.6 39.7594C129.618 35.5433 127.951 31.5168 125.666 27.8399L127.946 24.0234L130.729 19.3617C128.019 15.7942 124.837 12.6119 121.269 9.90234L116.607 12.6855L112.79 14.9651C109.115 12.684 105.092 11.0198 100.88 10.0386L99.7866 5.71816L98.4632 0.457911C94.0244 -0.152637 89.5228 -0.152637 85.0839 0.457911L83.7521 5.71729L82.6681 10.0292C78.4532 11.0156 74.4273 12.6825 70.7487 14.9643L66.9319 12.6855L62.2702 9.90234C60.4868 11.2531 58.7984 12.7247 57.2167 14.3068C55.6366 15.8911 54.1647 17.5797 52.8111 19.3614L55.5931 24.0234L57.8727 27.8402C55.5902 31.5174 53.926 35.5438 52.9461 39.7594L48.626 40.8434L43.3664 42.1755C42.7602 46.6147 42.7602 51.1156 43.3664 55.5548L48.626 56.8781L52.9461 57.9709C53.9277 62.1833 55.5918 66.2068 57.8727 69.8818L55.5931 73.6983L52.8099 78.36C54.1639 80.1418 55.6362 81.8304 57.2167 83.4146C58.7988 84.9972 60.4878 86.4693 62.2716 87.8203L66.9333 85.0371L70.7499 82.7572C74.4266 85.0425 78.4532 86.7096 82.6693 87.6923L83.7533 92.0042L85.0851 97.2636C89.5237 97.8785 94.0258 97.8785 98.4644 97.2636L99.7877 92.0042L100.881 87.6923C105.094 86.708 109.117 85.041 112.791 82.7572L116.608 85.0371L121.27 87.8203C124.841 85.1143 128.024 81.9312 130.73 78.36L127.947 73.6983L125.666 69.8818Z" fill="#4D6C8F"/>
<path fill-rule="evenodd" clip-rule="evenodd" d="M113.747 70.838C118.093 66.4913 121.053 60.9533 122.253 54.9243C123.452 48.8952 122.836 42.646 120.484 36.9668C118.132 31.2876 114.148 26.4334 109.037 23.0183C103.926 19.6031 97.9165 17.7803 91.7693 17.7803C85.6222 17.7803 79.6131 19.6031 74.5019 23.0183C69.3908 26.4334 65.4071 31.2876 63.0547 36.9668C60.7023 42.646 60.0868 48.8952 61.2861 54.9243C62.4853 60.9533 65.4454 66.4913 69.7921 70.838C75.622 76.6646 83.527 79.9377 91.7693 79.9377C100.012 79.9377 107.917 76.6646 113.747 70.838Z" fill="#D5E3F2"/>
<path d="M84.7339 41.3045C84.7339 41.864 84.5116 42.4005 84.1161 42.7961C83.7205 43.1917 83.1839 43.4139 82.6245 43.4139C82.0651 43.4139 81.5285 43.1917 81.133 42.7961C80.7374 42.4005 80.5151 41.864 80.5151 41.3045V33.8251C80.5234 32.2742 81.1432 30.7892 82.2399 29.6926C83.3366 28.596 84.8216 27.9763 86.3725 27.968H97.1648C98.7168 27.9725 100.204 28.591 101.301 29.6885C102.399 30.7859 103.017 32.273 103.022 33.8251V41.3045C103.022 41.864 102.8 42.4005 102.404 42.7961C102.008 43.1917 101.472 43.4139 100.912 43.4139C100.353 43.4139 99.8165 43.1917 99.4209 42.7961C99.0254 42.4005 98.8031 41.864 98.8031 41.3045V33.8251C98.7972 33.3919 98.6224 32.9782 98.316 32.672C98.0095 32.3659 97.5956 32.1914 97.1625 32.1859H86.3733C85.9402 32.1916 85.5264 32.366 85.22 32.6722C84.9136 32.9783 84.7388 33.392 84.7327 33.8251L84.7339 41.3045Z" fill="#4D6C8F"/>
<path fill-rule="evenodd" clip-rule="evenodd" d="M109.956 40.5017V61.6168C109.953 62.3217 109.671 62.9967 109.172 63.4943C108.673 63.9919 107.997 64.2715 107.292 64.272H76.2469C75.5433 64.2698 74.8693 63.9893 74.3718 63.4919C73.8744 62.9944 73.5939 62.3204 73.5917 61.6168V40.5017H109.956Z" fill="#5BBBA9"/>
<path fill-rule="evenodd" clip-rule="evenodd" d="M111.074 38.3331V42.7133C111.079 43.2686 110.908 43.8113 110.586 44.2637C110.264 44.7162 109.807 45.0554 109.281 45.2328L92.6405 50.9876C92.0765 51.1839 91.4627 51.1839 90.8988 50.9876L74.2581 45.2328C73.732 45.0551 73.2755 44.7159 72.9535 44.2635C72.6316 43.8111 72.4607 43.2685 72.4652 42.7133V38.3331C72.4674 37.9814 72.6087 37.6448 72.8582 37.3968C73.1078 37.1489 73.4453 37.0098 73.797 37.0098H109.751C110.101 37.0115 110.437 37.1515 110.685 37.3993C110.932 37.6471 111.072 37.9827 111.074 38.3331Z" fill="#6BE1CB"/>
<path d="M88.8323 46.4617H94.7066V54.8376H88.8323V46.4617Z" fill="#FFD23B"/>
<path fill-rule="evenodd" clip-rule="evenodd" d="M91.5217 117.926C91.5132 113.921 89.4984 109.661 85.8697 108.039L60.4773 96.6917C55.4482 94.4461 50.9912 94.9157 46.0646 96.5039L20.2441 104.863L31.028 139.562L46.0893 135.609L68.5547 143.822C74.1132 145.854 78.9372 147.11 83.8808 144.582L132.48 119.745C136.442 117.593 141.855 115.851 139.875 109.08C138.739 105.196 135.025 102.831 131.618 103.821L91.5217 117.926Z" fill="#D5D5D5"/>
<path d="M63.2264 121.846C62.7045 121.651 62.2812 121.257 62.0498 120.75C61.8184 120.243 61.7977 119.665 61.9925 119.143C62.1872 118.621 62.5813 118.198 63.0881 117.967C63.5949 117.735 64.1728 117.715 64.6948 117.909L81.7884 124.33C83.8544 125.107 85.9122 125.193 87.5856 124.544C89.0713 123.971 90.2924 122.786 90.9841 120.958C91.16 120.487 91.2915 120.001 91.3769 119.506C91.4704 118.985 91.5194 118.456 91.5234 117.927L95.7073 116.449C95.7158 117.141 95.7243 117.841 95.7243 117.927C95.729 118.699 95.6632 119.471 95.528 120.232C95.3949 120.986 95.192 121.726 94.9219 122.443C93.769 125.474 91.6772 127.472 89.1073 128.463C86.4606 129.488 83.3525 129.402 80.33 128.266L63.2264 121.846Z" fill="#797979"/>
<path fill-rule="evenodd" clip-rule="evenodd" d="M11.2632 99.5176L23.652 95.8974C24.3211 95.7029 25.04 95.7815 25.6514 96.116C26.2627 96.4504 26.7165 97.0135 26.9136 97.6818L40.1734 143.011C40.3642 143.681 40.283 144.4 39.9473 145.01C39.6116 145.621 39.0485 146.075 38.3804 146.273L25.9913 149.893C25.3222 150.087 24.6033 150.009 23.992 149.674C23.3807 149.34 22.9268 148.777 22.7297 148.108L9.47024 102.779C9.27933 102.109 9.36055 101.391 9.69625 100.78C10.032 100.169 10.595 99.7156 11.2632 99.5176Z" fill="#4D6C8F"/>
<path d="M17.5899 105.674C17.4348 105.139 17.498 104.564 17.7656 104.076C18.0333 103.588 18.4836 103.225 19.0179 103.068C19.5522 102.911 20.1269 102.972 20.6163 103.238C21.1056 103.504 21.4696 103.953 21.6285 104.487L21.637 104.521C21.716 104.787 21.7419 105.065 21.713 105.341C21.6842 105.616 21.6013 105.883 21.469 106.127C21.3368 106.37 21.1577 106.585 20.9422 106.759C20.7267 106.933 20.479 107.063 20.2132 107.141C19.9474 107.219 19.6688 107.244 19.3934 107.214C19.118 107.184 18.8512 107.1 18.6082 106.967C18.3653 106.834 18.1511 106.654 17.9778 106.438C17.8045 106.222 17.6755 105.974 17.5984 105.708L17.5899 105.674Z" fill="#D5E3F2"/>
<path fill-rule="evenodd" clip-rule="evenodd" d="M28.2967 145.538C27.6265 145.73 26.9075 145.65 26.2966 145.314C25.6856 144.978 25.2322 144.414 25.0351 143.745L12.0317 99.2957L11.2632 99.5177C10.595 99.7157 10.032 100.169 9.69625 100.78C9.36055 101.391 9.27933 102.109 9.47024 102.779L22.7297 148.108C22.9268 148.777 23.3807 149.34 23.992 149.674C24.6033 150.009 25.3222 150.087 25.9913 149.893L38.3804 146.273C39.0485 146.075 39.6116 145.621 39.9473 145.011C40.283 144.4 40.3642 143.681 40.1734 143.011L39.9173 142.14L28.2967 145.538Z" fill="#5F96E6"/>
<path fill-rule="evenodd" clip-rule="evenodd" d="M67.6835 140.125L45.2195 131.911L37.5179 133.935L38.5852 137.581L46.0902 135.608L68.5548 143.822C74.1133 145.854 78.9373 147.109 83.8808 144.582L132.481 119.744C136.442 117.593 141.856 115.851 139.875 109.08C139.755 108.671 139.603 108.271 139.422 107.885C139.533 112.631 135.033 114.186 131.61 116.047L83.0093 140.885C78.0657 143.412 73.2417 142.157 67.6835 140.125Z" fill="#797979"/>
<path fill-rule="evenodd" clip-rule="evenodd" d="M88.0468 10.0292L89.1396 5.71726L90.4633 0.457881C91.7951 0.278585 93.1269 0.150557 94.4676 0.0737994C91.3346 -0.09732 88.1925 0.0312917 85.0841 0.457881L83.7522 5.71726L82.6682 10.0292C79.4878 10.7748 76.4108 11.9075 73.5059 13.4018L76.1274 14.9642C79.8059 12.6824 83.832 11.0155 88.0468 10.0292ZM88.0468 87.6922C83.8308 86.7096 79.8044 85.0425 76.1277 82.7572L73.5062 84.3199C76.4099 85.8164 79.487 86.9491 82.6679 87.6922L83.7519 92.0042L85.0838 97.2635C88.1894 97.6899 91.3287 97.8186 94.4588 97.6479C93.1266 97.5794 91.7863 97.4513 90.463 97.2635L89.1393 92.0042L88.0468 87.6922ZM58.1974 19.3614C59.5486 17.5777 61.0206 15.8889 62.6031 14.3068C63.4996 13.4103 64.4219 12.5563 65.3608 11.7454L62.2703 9.89968C60.4869 11.2513 58.7984 12.7238 57.2169 14.3068C55.6367 15.891 54.1648 17.5797 52.8112 19.3614L55.5932 24.0234L57.8728 27.8402C55.5904 31.5173 53.9261 35.5438 52.9463 39.7593L48.6261 40.8433L43.3665 42.1755C42.7603 46.6146 42.7603 51.1156 43.3665 55.5547L48.6261 56.8781L52.9463 57.9709C53.9278 62.1833 55.5919 66.2068 57.8728 69.8818L55.5932 73.6983L52.81 78.36C54.164 80.1417 55.6363 81.8304 57.2169 83.4146C58.7989 84.9972 60.4879 86.4692 62.2718 87.8203L65.3623 85.9746C64.4233 85.1636 63.5011 84.3096 62.6046 83.4131C61.0221 81.8311 59.55 80.1423 58.1989 78.3586L60.9821 73.6968L63.2617 69.8803C60.978 66.2058 59.3109 62.1823 58.3266 57.9694L54.0062 56.8766L48.7469 55.5533C48.1407 51.1141 48.1407 46.6132 48.7469 42.174L54.0062 40.8419L58.3266 39.7579C59.3093 35.5418 60.9764 31.5154 63.2617 27.8387L60.9809 24.0234L58.1974 19.3614Z" fill="#426082"/>
<path fill-rule="evenodd" clip-rule="evenodd" d="M75.803 61.6168V45.7616L74.2576 45.2322C74.0216 45.148 73.7978 45.0331 73.5917 44.8906V61.6171C73.5939 62.3206 73.8744 62.9947 74.3718 63.4921C74.8693 63.9896 75.5433 64.27 76.2469 64.2723H78.4585C77.7549 64.2701 77.0808 63.9897 76.5833 63.4922C76.0857 62.9947 75.8052 62.3207 75.803 61.6171V61.6168Z" fill="#6AD5C1"/>
<path fill-rule="evenodd" clip-rule="evenodd" d="M75.8628 43.8145C75.3366 43.64 74.8795 43.3028 74.5572 42.8517C74.235 42.4006 74.0643 41.8588 74.0699 41.3044V37.0098H73.7965C73.4448 37.0098 73.1073 37.1489 72.8578 37.3968C72.6082 37.6448 72.4669 37.9814 72.4647 38.3331V42.7133C72.4611 43.1405 72.562 43.5621 72.7584 43.9415C72.9548 44.3209 73.2409 44.6466 73.5917 44.8903C73.7978 45.0328 74.0217 45.1477 74.2577 45.2319L75.8031 45.7613L88.8323 50.2695V48.3066L75.8628 43.8145Z" fill="#5AC3B0"/>
<path fill-rule="evenodd" clip-rule="evenodd" d="M110.289 26.8835C114.531 31.1263 117.454 36.506 118.707 42.3735C119.959 48.241 119.486 54.3456 117.346 59.9504C115.206 65.5553 111.489 70.421 106.644 73.9604C101.8 77.4998 96.0348 79.5615 90.0446 79.8968C94.2652 80.1322 98.4895 79.504 102.459 78.0508C106.429 76.5976 110.06 74.35 113.131 71.4453C116.202 68.5406 118.649 65.0399 120.321 61.1574C121.993 57.2748 122.855 53.0921 122.855 48.8648C122.855 44.6376 121.993 40.4549 120.321 36.5723C118.649 32.6898 116.202 29.1891 113.131 26.2844C110.06 23.3797 106.429 21.1321 102.459 19.6789C98.4895 18.2257 94.2652 17.5975 90.0446 17.8329C97.6786 18.247 104.889 21.4708 110.289 26.8835Z" fill="#B7CFE8"/>
</svg>
